SplineFontDB: 3.0
FontName: CursiveSerif
FullName: Cursive Serif Book
FamilyName: Cursive Serif
Weight: Book
Copyright: Copyright (c) 2020-2024 by Wojciech Kalinowski "wmk69" with Reserved Font Name "CursiveSerif-Book".\nThis Font Software is licensed under the SIL Open Font License, Version 1.1.
Version: 3.0.0; 2020-03-
ItalicAngle: 0
UnderlinePosition: -80
UnderlineWidth: 200
Ascent: 1638
Descent: 410
InvalidEm: 0
LayerCount: 2
Layer: 0 1 "Warstwa t+AUIA-a" 1
Layer: 1 1 "Plan pierwszy" 0
XUID: [1021 783 23647091 7762759]
StyleMap: 0x0001
FSType: 0
OS2Version: 3
OS2_WeightWidthSlopeOnly: 0
OS2_UseTypoMetrics: 1
CreationTime: 1260698820
ModificationTime: 1584372766
PfmFamily: 17
TTFWeight: 400
TTFWidth: 5
LineGap: 300
VLineGap: 0
Panose: 2 8 5 3 6 3 8 13 5 4
OS2TypoAscent: 1950
OS2TypoAOffset: 0
OS2TypoDescent: -537
OS2TypoDOffset: 0
OS2TypoLinegap: 300
OS2WinAscent: 1950
OS2WinAOffset: 0
OS2WinDescent: 537
OS2WinDOffset: 0
HheadAscent: 1950
HheadAOffset: 0
HheadDescent: -537
HheadDOffset: 0
OS2SubXSize: 1434
OS2SubYSize: 1331
OS2SubXOff: 0
OS2SubYOff: 287
OS2SupXSize: 1434
OS2SupYSize: 1331
OS2SupXOff: 0
OS2SupYOff: 977
OS2StrikeYSize: 102
OS2StrikeYPos: 512
OS2CapHeight: 1530
OS2XHeight: 1120
OS2Vendor: '    '
OS2CodePages: 20000093.00000000
OS2UnicodeRanges: 8000002f.4000204b.00000000.00000000
Lookup: 258 0 0 "'kern' Horizontal Kerning lookup 0" { "'kern' Horizontal Kerning lookup 0-1 subtable" [307,0,4] } ['kern' ('DFLT' <'dflt' > 'grek' <'dflt' > 'latn' <'dflt' > ) ]
MarkAttachClasses: 1
DEI: 91125
KernClass2: 70 56 "'kern' Horizontal Kerning lookup 0-1 subtable"
 84 A Agrave Aacute Acircumflex Atilde Adieresis Aring Amacron Abreve Aogonek Aringacute
 17 B uni1E02 uni1E9E
 47 C Ccedilla Cacute Ccircumflex Cdotaccent Ccaron
 27 D Eth Dcaron Dcroat uni1E0A
 92 E AE Egrave Eacute Ecircumflex Edieresis Emacron Ebreve Edotaccent Eogonek Ecaron OE AEacute
 9 F uni1E1E
 44 G Gcircumflex Gbreve Gdotaccent Gcommaaccent
 18 H Hcircumflex Hbar

StartChar: .notdef
Encoding: 65536 -1 0
Width: 994
Flags: MW
LayerCount: 2
Fore
SplineSet
150 0 m 1,0,-1
 150 1510 l 1,1,-1
 844 1510 l 1,2,-1
 844 0 l 1,3,-1
 150 0 l 1,0,-1
260 68 m 1,4,-1
 734 68 l 1,5,-1
 734 1442 l 1,6,-1
 260 1442 l 1,7,-1
 260 68 l 1,4,-1
EndSplineSet
Validated: 1
EndChar

StartChar: exclam
Encoding: 33 33 4
Width: 659
GlyphClass: 2
Flags: MW
LayerCount: 2
Fore
SplineSet
330 -20 m 128,-1,1
 276 -20 276 -20 238 18.5 c 128,-1,2
 200 57 200 57 200 112 c 128,-1,3
 200 167 200 167 238 205.5 c 128,-1,4
 276 244 276 244 330 244 c 128,-1,5
 384 244 384 244 421.5 205.5 c 128,-1,6
 459 167 459 167 459 112 c 128,-1,7
 459 57 459 57 421.5 18.5 c 128,-1,0
 384 -20 384 -20 330 -20 c 128,-1,1
330 1530 m 128,-1,9
 384 1530 384 1530 421.5 1492 c 128,-1,10
 459 1454 459 1454 459 1398 c 0,11,-1
 458 1376 l 2,12,-1
 380 350 l 2,13,14
 380 320 380 320 350 320 c 2,15,-1
 308 320 l 2,16,17
 278 320 278 320 278 350 c 2,18,-1
 201 1376 l 2,19,20
 200 1389 200 1389 200 1398 c 0,21,22
 200 1453 200 1453 238 1491.5 c 128,-1,8
 276 1530 276 1530 330 1530 c 128,-1,9
EndSplineSet
Validated: 1
EndChar

StartChar: quotedbl
Encoding: 34 34 5
Width: 629
GlyphClass: 2
Flags: MW
LayerCount: 2
Fore
SplineSet
342 1550 m 1,0,1
 523 1550 l 1,2,3
 579 1470 579 1470 579 1379 c 0,4,5
 579 1267 579 1267 493 1141 c 1,6,-1
 372 1141 l 1,7,8
 424 1250 424 1250 424 1343 c 0,9,10
 424 1460 424 1460 342 1550 c 1,0,1
50 1550 m 1,11,-1
 231 1550 l 1,12,13
 287 1470 287 1470 287 1379 c 0,14,15
 287 1267 287 1267 201 1141 c 1,16,-1
 80 1141 l 1,17,18
 132 1250 132 1250 132 1343 c 0,19,20
 132 1460 132 1460 50 1550 c 1,11,-1
EndSplineSet
Validated: 1
EndChar

StartChar: numbersign
Encoding: 35 35 6
Width: 1354
GlyphClass: 2
Flags: MW
LayerCount: 2
Fore
SplineSet
572 648 m 1,0,-1
 782 648 l 1,1,-1
 782 859 l 1,2,-1
 572 859 l 1,3,-1
 572 648 l 1,0,-1
480 1230 m 2,4,-1
 532 1230 l 2,5,6
 572 1230 572 1230 572 1190 c 2,7,-1
 572 990 l 1,8,-1
 782 990 l 1,9,-1
 782 1190 l 2,10,11
 782 1230 782 1230 822 1230 c 2,12,-1
 874 1230 l 2,13,14
 914 1230 914 1230 914 1190 c 2,15,-1
 914 990 l 1,16,-1
 1114 990 l 2,17,18
 1154 990 1154 990 1154 950 c 2,19,-1
 1154 899 l 2,20,21
 1154 859 1154 859 1114 859 c 2,22,-1
 914 859 l 1,23,-1
 914 648 l 1,24,-1
 1114 648 l 2,25,26
 1154 648 1154 648 1154 608 c 2,27,-1
 1154 557 l 2,28,29
 1154 517 1154 517 1114 517 c 2,30,-1
 914 517 l 1,31,-1
 914 316 l 2,32,33
 914 276 914 276 874 276 c 2,34,-1
 822 276 l 2,35,36
 782 276 782 276 782 316 c 2,37,-1
 782 517 l 1,38,-1
 572 517 l 1,39,-1
 572 316 l 2,40,41
 572 276 572 276 532 276 c 2,42,-1
 480 276 l 2,43,44
 440 276 440 276 440 316 c 2,45,-1
 440 517 l 1,46,-1
 240 517 l 2,47,48
 200 517 200 517 200 557 c 2,49,-1
 200 608 l 2,50,51
 200 648 200 648 240 648 c 2,52,-1
 440 648 l 1,53,-1
 440 859 l 1,54,-1
 240 859 l 2,55,56
 200 859 200 859 200 899 c 2,57,-1
 200 950 l 2,58,59
 200 990 200 990 240 990 c 2,60,-1
 440 990 l 1,61,-1
 440 1190 l 2,62,63
 440 1230 440 1230 480 1230 c 2,4,-1
EndSplineSet
Validated: 1
EndChar

StartChar: dollar
Encoding: 36 36 7
Width: 1261
GlyphClass: 2
Flags: MW
LayerCount: 2
Fore
SplineSet
610 -150 m 6,0,1
 570 -150 570 -150 570 -110 c 6,2,-1
 570 -20 l 1,3,4
 355 -16 355 -16 230 109 c 0,5,6
 120 219 120 219 120 348 c 0,7,8
 120 417 120 417 158.5 454.5 c 128,-1,9
 197 492 197 492 251 492 c 128,-1,10
 305 492 305 492 343 454 c 128,-1,11
 381 416 381 416 381 363 c 0,12,13
 381 308 381 308 341 268 c 0,14,15
 303 230 303 230 234 230 c 1,16,17
 333 55 333 55 563 55 c 0,18,19
 567 55 567 55 570 55 c 2,20,-1
 570 784 l 1,21,-1
 523 805 l 2,22,23
 222 937 222 937 222 1189 c 0,24,25
 222 1327 222 1327 345 1438 c 0,26,27
 429 1514 429 1514 570 1527 c 1,28,-1
 570 1620 l 6,29,30
 570 1660 570 1660 610 1660 c 6,31,-1
 630 1660 l 6,32,33
 670 1660 670 1660 670 1620 c 6,34,-1
 670 1529 l 1,35,36
 900 1515 900 1515 995 1325 c 0,37,38
 1016 1283 1016 1283 1016 1228 c 128,-1,39
 1016 1173 1016 1173 978.5 1134.5 c 128,-1,40
 941 1096 941 1096 887 1096 c 128,-1,41
 833 1096 833 1096 795 1134.5 c 128,-1,42
 757 1173 757 1173 757 1228 c 128,-1,43
 757 1283 757 1283 795 1321.5 c 128,-1,44
 833 1360 833 1360 887 1360 c 2,45,-1
 896 1360 l 1,46,47
 802 1455 802 1455 670 1455 c 1,48,-1
 670 962 l 1,49,-1
 806 903 l 2,50,51
 1141 758 1141 758 1141 463 c 0,52,53
 1141 260 1141 260 978 113 c 0,54,55
 858 4 858 4 670 -16 c 1,56,-1
 670 -110 l 6,57,58
 670 -150 670 -150 630 -150 c 6,59,-1
 610 -150 l 6,0,1
570 1006 m 1,60,-1
 570 1442 l 1,61,62
 515 1426 515 1426 478 1390 c 0,63,64
 410 1324 410 1324 410 1223 c 0,65,66
 410 1088 410 1088 570 1006 c 1,60,-1
670 741 m 1,67,-1
 670 65 l 1,68,69
 796 92 796 92 865 187 c 0,70,71
 937 286 937 286 937 418 c 0,72,73
 937 624 937 624 701 727 c 2,74,-1
 670 741 l 1,67,-1
EndSplineSet
Validated: 1
EndChar

StartChar: percent
Encoding: 37 37 8
Width: 1589
GlyphClass: 2
Flags: MW
LayerCount: 2
Fore
SplineSet
1126 -20 m 128,-1,1
 1008 -20 1008 -20 918 62 c 0,2,3
 813 157 813 157 813 322.5 c 128,-1,4
 813 488 813 488 918 582 c 0,5,6
 1008 664 1008 664 1126 664 c 128,-1,7
 1244 664 1244 664 1334 582 c 0,8,9
 1439 486 1439 486 1439 322 c 128,-1,10
 1439 158 1439 158 1334 62 c 0,11,0
 1244 -20 1244 -20 1126 -20 c 128,-1,1
1126 39 m 128,-1,13
 1192 39 1192 39 1236 109 c 0,14,15
 1275 173 1275 173 1275 322 c 0,16,17
 1275 472 1275 472 1236 535 c 0,18,19
 1193 605 1193 605 1126 605 c 0,20,21
 1060 605 1060 605 1016 535 c 0,22,23
 977 473 977 473 977 322 c 0,24,25
 977 169 977 169 1016 109 c 0,26,12
 1060 39 1060 39 1126 39 c 128,-1,13
463 1530 m 128,-1,28
 581 1530 581 1530 671 1448 c 0,29,30
 776 1352 776 1352 776 1188 c 128,-1,31
 776 1024 776 1024 671 928 c 0,32,33
 581 846 581 846 463 846 c 128,-1,34
 345 846 345 846 255 928 c 0,35,36
 150 1023 150 1023 150 1188.5 c 128,-1,37
 150 1354 150 1354 255 1448 c 0,38,27
 345 1530 345 1530 463 1530 c 128,-1,28
463 1471 m 0,39,40
 397 1471 397 1471 353 1401 c 0,41,42
 314 1339 314 1339 314 1188 c 0,43,44
 314 1035 314 1035 352 975 c 0,45,46
 397 905 397 905 463 905 c 128,-1,47
 529 905 529 905 572 975 c 0,48,49
 612 1039 612 1039 612 1188 c 0,50,51
 612 1338 612 1338 573 1401 c 0,52,53
 530 1471 530 1471 463 1471 c 0,39,40
402 -40 m 0,54,55
 390 -40 390 -40 374 -31 c 2,56,-1
 326 -3 l 2,57,58
 298 13 298 13 298 36 c 0,59,60
 298 49 298 49 308 65 c 2,61,-1
 1148 1522 l 2,62,63
 1164 1550 1164 1550 1186 1550 c 0,64,65
 1200 1550 1200 1550 1216 1541 c 2,66,-1
 1264 1513 l 2,67,68
 1290 1497 1290 1497 1290 1474 c 0,69,70
 1290 1461 1290 1461 1282 1445 c 2,71,-1
 442 -12 l 2,72,73
 426 -40 426 -40 402 -40 c 0,54,55
EndSplineSet
Validated: 1
EndChar

StartChar: ampersand
Encoding: 38 38 9
Width: 1632
GlyphClass: 2
Flags: MW
LayerCount: 2
Fore
SplineSet
677 -20 m 0,0,1
 436 -20 436 -20 290 104 c 0,2,3
 120 248 120 248 120 470 c 0,4,5
 120 643 120 643 222 755 c 0,6,7
 330 873 330 873 502 886 c 1,8,9
 413 913 413 913 353 969 c 0,10,11
 252 1063 252 1063 252 1195 c 0,12,13
 252 1350 252 1350 376 1447 c 0,14,15
 483 1530 483 1530 644 1530 c 0,16,17
 812 1530 812 1530 903 1423 c 0,18,19
 983 1328 983 1328 983 1238 c 0,20,21
 983 1177 983 1177 949 1142 c 0,22,23
 908 1100 908 1100 854 1100 c 128,-1,24
 800 1100 800 1100 762 1138.5 c 128,-1,25
 724 1177 724 1177 724 1232 c 128,-1,26
 724 1287 724 1287 762 1325.5 c 128,-1,27
 800 1364 800 1364 854 1364 c 2,28,-1
 863 1364 l 1,29,30
 800 1465 800 1465 667 1465 c 0,31,32
 548 1465 548 1465 491 1376 c 0,33,34
 446 1306 446 1306 446 1204 c 0,35,36
 446 1068 446 1068 518 993 c 0,37,38
 609 898 609 898 914 872 c 1,39,-1
 1143 446 l 1,40,41
 1242 599 1242 599 1303 755 c 1,42,43
 1221 755 1221 755 1177 798 c 0,44,45
 1139 835 1139 835 1139 891 c 0,46,47
 1139 944 1139 944 1177.5 982 c 128,-1,48
 1216 1020 1216 1020 1273 1020 c 0,49,50
 1329 1020 1329 1020 1367 984 c 0,51,52
 1411 942 1411 942 1411 874 c 0,53,54
 1411 779 1411 779 1292 559 c 0,55,56
 1235 453 1235 453 1184 370 c 1,57,-1
 1314 130 l 2,58,59
 1337 87 1337 87 1386 87 c 0,60,61
 1468 87 1468 87 1497 200 c 1,62,-1
 1512 200 l 1,63,64
 1512 128 1512 128 1476 71 c 0,65,66
 1419 -20 1419 -20 1312 -20 c 0,67,68
 1199 -20 1199 -20 1149 72 c 2,69,-1
 1076 207 l 1,70,71
 1050 168 1050 168 1006 120 c 0,72,73
 877 -20 877 -20 677 -20 c 0,0,1
725 856 m 1,74,75
 561 836 561 836 461 755 c 0,76,77
 340 657 340 657 340 470 c 0,78,79
 340 282 340 282 423 182 c 0,80,81
 528 55 528 55 684 55 c 0,82,83
 839 55 839 55 952 168 c 0,84,85
 1004 219 1004 219 1038 277 c 1,86,-1
 725 856 l 1,74,75
EndSplineSet
Validated: 1
EndChar

StartChar: quotesingle
Encoding: 39 39 10
Width: 337
GlyphClass: 2
Flags: MW
LayerCount: 2
Fore
SplineSet
50 1550 m 1,0,1
 231 1550 l 1,2,3
 287 1470 287 1470 287 1379 c 0,4,5
 287 1267 287 1267 201 1141 c 1,6,-1
 80 1141 l 1,7,8
 132 1250 132 1250 132 1343 c 0,9,10
 132 1460 132 1460 50 1550 c 1,0,1
EndSplineSet
Validated: 1
EndChar

StartChar: parenleft
Encoding: 40 40 11
Width: 670
GlyphClass: 2
Flags: MW
LayerCount: 2
Fore
SplineSet
541 1730 m 1,0,-1
 620 1691 l 1,1,2
 504 1490 504 1490 448 1261 c 0,3,4
 392 1033 392 1033 392 755 c 0,5,6
 392 472 392 472 453 247 c 128,-1,7
 514 22 514 22 620 -181 c 1,8,-1
 541 -220 l 1,9,10
 382 -22 382 -22 297 208 c 0,11,12
 200 473 200 473 200 755 c 0,13,14
 200 1058 200 1058 297 1302 c 0,15,16
 379 1506 379 1506 541 1730 c 1,0,-1
EndSplineSet
Validated: 1
EndChar

StartChar: parenright
Encoding: 41 41 12
Width: 670
GlyphClass: 2
Flags: MW
LayerCount: 2
Fore
SplineSet
129 1730 m 1,0,1
 291 1506 291 1506 373 1302 c 0,2,3
 470 1058 470 1058 470 755 c 0,4,5
 470 473 470 473 373 208 c 0,6,7
 288 -22 288 -22 129 -220 c 1,8,-1
 50 -181 l 1,9,10
 156 22 156 22 217 247 c 128,-1,11
 278 472 278 472 278 755 c 0,12,13
 278 1033 278 1033 222 1261 c 0,14,15
 166 1490 166 1490 50 1691 c 1,16,-1
 129 1730 l 1,0,1
EndSplineSet
Validated: 1
EndChar

StartChar: asterisk
Encoding: 42 42 13
Width: 891
GlyphClass: 2
Flags: MW
LayerCount: 2
Fore
SplineSet
438 1550 m 1,0,-1
 449 1550 l 1,1,-1
 523 1295 l 1,2,-1
 641 1350 l 1,3,-1
 586 1237 l 1,4,-1
 841 1162 l 1,5,-1
 841 1151 l 1,6,-1
 586 1077 l 1,7,-1
 641 959 l 1,8,-1
 528 1014 l 1,9,-1
 453 759 l 1,10,-1
 442 759 l 1,11,-1
 368 1014 l 1,12,-1
 250 959 l 1,13,-1
 305 1072 l 1,14,-1
 50 1147 l 1,15,-1
 50 1158 l 1,16,-1
 305 1232 l 1,17,-1
 250 1350 l 1,18,-1
 363 1295 l 1,19,-1
 438 1550 l 1,0,-1
EndSplineSet
Validated: 1
EndChar

StartChar: plus
Encoding: 43 43 14
Width: 1133
GlyphClass: 2
Flags: MW
LayerCount: 2
Fore
SplineSet
542 1172 m 2,0,-1
 592 1172 l 2,1,2
 642 1172 642 1172 642 1122 c 2,3,-1
 642 830 l 1,4,-1
 933 830 l 2,5,6
 983 830 983 830 983 780 c 2,7,-1
 983 730 l 2,8,9
 983 680 983 680 933 680 c 2,10,-1
 642 680 l 1,11,-1
 642 388 l 2,12,13
 642 338 642 338 592 338 c 2,14,-1
 542 338 l 2,15,16
 492 338 492 338 492 388 c 2,17,-1
 492 680 l 1,18,-1
 200 680 l 2,19,20
 150 680 150 680 150 730 c 2,21,-1
 150 780 l 2,22,23
 150 830 150 830 200 830 c 2,24,-1
 492 830 l 1,25,-1
 492 1122 l 2,26,27
 492 1172 492 1172 542 1172 c 2,0,-1
EndSplineSet
Validated: 1
EndChar

StartChar: comma
Encoding: 44 44 15
Width: 368
GlyphClass: 2
Flags: MW
LayerCount: 2
Fore
SplineSet
17 -221 m 1,0,-1
 17 -208 l 1,1,2
 95 -164 95 -164 143 -97 c 0,3,4
 167 -63 167 -63 181 -18 c 1,5,6
 117 -18 117 -18 87 13 c 0,7,8
 52 49 52 49 52 99 c 0,9,10
 52 151 52 151 88 188 c 0,11,12
 123 223 123 223 178 223 c 0,13,14
 230 223 230 223 267 189 c 0,15,16
 318 141 318 141 318 69 c 128,-1,17
 318 -3 318 -3 273 -76 c 0,18,19
 214 -172 214 -172 104 -209 c 0,20,21
 68 -221 68 -221 17 -221 c 1,0,-1
EndSplineSet
Validated: 1
EndChar

StartChar: hyphen
Encoding: 45 45 16
Width: 1133
GlyphClass: 2
Flags: MW
LayerCount: 2
Fore
SplineSet
200 830 m 2,0,-1
 933 830 l 2,1,2
 983 830 983 830 983 780 c 2,3,4
 983 730 l 2,5,6
 983 680 983 680 933 680 c 2,7,-1
 200 680 l 2,8,9
 150 680 150 680 150 730 c 2,10,-1
 150 780 l 2,11,12
 150 830 150 830 200 830 c 2,0,-1
EndSplineSet
Validated: 1
EndChar

StartChar: period
Encoding: 46 46 17
Width: 359
GlyphClass: 2
Flags: MW
LayerCount: 2
Fore
SplineSet
180 -20 m 128,-1,1
 126 -20 126 -20 88 18.5 c 128,-1,2
 50 57 50 57 50 112 c 128,-1,3
 50 167 50 167 88 205.5 c 128,-1,4
 126 244 126 244 180 244 c 128,-1,5
 234 244 234 244 271.5 205.5 c 128,-1,6
 309 167 309 167 309 112 c 128,-1,7
 309 57 309 57 271.5 18.5 c 128,-1,0
 234 -20 234 -20 180 -20 c 128,-1,1
EndSplineSet
Validated: 1
EndChar

StartChar: slash
Encoding: 47 47 18
Width: 1141
GlyphClass: 2
Flags: MW
LayerCount: 2
Fore
SplineSet
1027 1662 m 0,0,1
 1041 1662 1041 1662 1056 1653 c 2,2,-1
 1104 1625 l 2,3,4
 1131 1609 1131 1609 1131 1586 c 0,5,6
 1131 1573 1131 1573 1122 1557 c 2,7,-1
 153 -122 l 2,8,9
 137 -150 137 -150 113 -150 c 0,10,11
 100 -150 100 -150 85 -141 c 2,12,-1
 37 -113 l 2,13,14
 10 -97 10 -97 10 -74 c 0,15,16
 10 -61 10 -61 19 -45 c 2,17,-1
 988 1634 l 2,18,19
 1004 1662 1004 1662 1027 1662 c 0,0,1
EndSplineSet
Validated: 1
EndChar

StartChar: zero
Encoding: 48 48 19
Width: 1424
GlyphClass: 2
Flags: MW
LayerCount: 2
Fore
SplineSet
1074 755 m 4,0,1
 1074 1161 1074 1161 946 1324 c 4,2,3
 843 1455 843 1455 712 1455 c 4,4,5
 574 1455 574 1455 478 1324 c 4,6,7
 350 1150 350 1150 350 755 c 4,8,9
 350 359 350 359 478 186 c 4,10,11
 575 55 575 55 712 55 c 4,12,13
 863 55 863 55 952 185 c 4,14,15
 1074 364 1074 364 1074 755 c 4,0,1
1294 755 m 4,16,17
 1294 353 1294 353 1077 139 c 4,18,19
 916 -20 916 -20 712 -20 c 4,20,21
 502 -20 502 -20 348 134 c 4,22,23
 130 353 130 353 130 755 c 4,24,25
 130 1152 130 1152 348 1376 c 4,26,27
 498 1530 498 1530 712 1530 c 132,-1,28
 926 1530 926 1530 1076 1376 c 4,29,30
 1294 1152 1294 1152 1294 755 c 4,16,17
EndSplineSet
Validated: 1
EndChar

StartChar: one
Encoding: 49 49 20
Width: 700
GlyphClass: 2
Flags: MW
LayerCount: 2
Fore
SplineSet
300 0 m 2,0,1
 250 0 250 0 250 50 c 2,2,-1
 250 995 l 2,3,4
 250 1186 250 1186 80 1230 c 1,5,6
 80 1237 80 1237 80 1245 c 9,7,8
 316 1338 316 1338 435 1550 c 1,9,-1
 450 1550 l 1,10,-1
 450 50 l 2,11,12
 450 0 450 0 400 0 c 2,13,-1
 300 0 l 2,0,1
EndSplineSet
Validated: 1
EndChar

StartChar: two
Encoding: 50 50 21
Width: 1341
GlyphClass: 2
Flags: MW
LayerCount: 2
Fore
SplineSet
150 -10 m 1,0,1
 225 269 225 269 385 449 c 0,2,3
 546 631 546 631 706 755 c 0,4,5
 894 900 894 900 894 1102 c 0,6,7
 894 1237 894 1237 822 1326 c 0,8,9
 734 1434 734 1434 583 1434 c 0,10,11
 441 1434 441 1434 346 1346 c 0,12,13
 253 1259 253 1259 231 1134 c 1,14,15
 263 1162 263 1162 303 1162 c 0,16,17
 353 1162 353 1162 390 1130 c 0,18,19
 428 1098 428 1098 428 1040 c 0,20,21
 428 987 428 987 390 950 c 0,22,23
 350 911 350 911 298 911 c 0,24,25
 243 911 243 911 203 949 c 0,26,27
 162 988 162 988 162 1064 c 0,28,29
 162 1247 162 1247 297 1386 c 0,30,31
 437 1530 437 1530 661 1530 c 0,32,33
 873 1530 873 1530 998 1405 c 128,-1,34
 1123 1280 1123 1280 1123 1120 c 0,35,36
 1123 862 1123 862 863 698 c 0,37,38
 620 546 620 546 515 452 c 0,39,40
 359 311 359 311 314 191 c 1,41,42
 400 261 400 261 519 261 c 0,43,44
 594 261 594 261 721 215 c 0,45,46
 845 170 845 170 929 170 c 0,47,48
 1067 170 1067 170 1176 268 c 1,49,-1
 1191 268 l 1,50,51
 1099 -10 1099 -10 834 -10 c 0,52,53
 769 -10 769 -10 622 43 c 0,54,55
 520 80 520 80 412 80 c 0,56,57
 272 80 272 80 165 -10 c 1,58,-1
 150 -10 l 1,0,1
EndSplineSet
Validated: 1
EndChar

StartChar: three
Encoding: 51 51 22
Width: 1213
GlyphClass: 2
Flags: MW
LayerCount: 2
Fore
SplineSet
506 -20 m 0,0,1
 372 -20 372 -20 269 42 c 0,2,3
 120 132 120 132 120 268 c 0,4,5
 120 328 120 328 163 372 c 0,6,7
 201 410 201 410 255 410 c 128,-1,8
 309 410 309 410 347 372 c 128,-1,9
 385 334 385 334 385 281 c 0,10,11
 385 229 385 229 347 190 c 0,12,13
 311 154 311 154 248 145 c 1,14,15
 340 55 340 55 499 55 c 0,16,17
 655 55 655 55 760 182 c 0,18,19
 843 282 843 282 843 470 c 0,20,21
 843 657 843 657 722 755 c 0,22,23
 622 836 622 836 466 856 c 1,24,-1
 466 871 l 1,25,26
 601 913 601 913 673 995 c 0,27,28
 737 1068 737 1068 737 1204 c 0,29,30
 737 1306 737 1306 692 1376 c 0,31,32
 633 1465 633 1465 516 1465 c 0,33,34
 383 1465 383 1465 320 1364 c 1,35,-1
 329 1364 l 2,36,37
 383 1364 383 1364 421 1325.5 c 128,-1,38
 459 1287 459 1287 459 1232 c 128,-1,39
 459 1177 459 1177 421 1138.5 c 128,-1,40
 383 1100 383 1100 329 1100 c 128,-1,41
 275 1100 275 1100 234 1142 c 0,42,43
 200 1177 200 1177 200 1238 c 0,44,45
 200 1328 200 1328 280 1423 c 0,46,47
 371 1530 371 1530 539 1530 c 0,48,49
 700 1530 700 1530 807 1447 c 0,50,51
 931 1350 931 1350 931 1195 c 0,52,53
 931 1063 931 1063 830 969 c 0,54,55
 781 923 781 923 681 886 c 1,56,57
 853 873 853 873 961 755 c 0,58,59
 1063 643 1063 643 1063 470 c 0,60,61
 1063 248 1063 248 893 104 c 0,62,63
 747 -20 747 -20 506 -20 c 0,0,1
EndSplineSet
Validated: 1
EndChar

StartChar: four
Encoding: 52 52 23
Width: 1176
GlyphClass: 2
Flags: MW
LayerCount: 2
Fore
SplineSet
777 0 m 2,0,1
 727 0 727 0 727 50 c 2,2,-1
 727 360 l 1,3,-1
 80 360 l 2,4,5
 50 360 50 360 50 390 c 2,6,-1
 50 410 l 2,7,8
 50 433 50 433 74 464 c 2,9,-1
 912 1550 l 1,10,-1
 927 1550 l 1,11,-1
 927 450 l 1,12,-1
 1046 450 l 2,13,14
 1076 450 1076 450 1076 420 c 2,15,-1
 1076 390 l 2,16,17
 1076 360 1076 360 1046 360 c 2,18,-1
 927 360 l 1,19,-1
 927 50 l 2,20,21
 927 0 927 0 877 0 c 2,22,-1
 777 0 l 2,0,1
727 450 m 1,23,-1
 727 1147 l 1,24,-1
 189 450 l 1,25,-1
 727 450 l 1,23,-1
EndSplineSet
Validated: 1
EndChar

StartChar: five
Encoding: 53 53 24
Width: 1203
GlyphClass: 2
Flags: MW
LayerCount: 2
Fore
SplineSet
496 -20 m 0,0,1
 362 -20 362 -20 259 42 c 0,2,3
 110 132 110 132 110 268 c 0,4,5
 110 328 110 328 153 372 c 0,6,7
 191 410 191 410 245 410 c 128,-1,8
 299 410 299 410 337 372 c 128,-1,9
 375 334 375 334 375 281 c 0,10,11
 375 229 375 229 337 190 c 0,12,13
 301 154 301 154 238 145 c 1,14,15
 330 55 330 55 489 55 c 0,16,17
 645 55 645 55 750 182 c 0,18,19
 833 282 833 282 833 470 c 0,20,21
 833 649 833 649 736 740 c 0,22,23
 635 835 635 835 487 835 c 0,24,25
 406 835 406 835 338 787 c 1,26,-1
 170 901 l 1,27,-1
 332 1510 l 1,28,-1
 996 1510 l 1,29,30
 901 1320 901 1320 678 1320 c 0,31,32
 504 1320 504 1320 387 1461 c 1,33,-1
 387 893 l 1,34,35
 468 916 468 916 565 916 c 0,36,37
 758 916 758 916 897 806 c 0,38,39
 1053 683 1053 683 1053 470 c 0,40,41
 1053 248 1053 248 883 104 c 0,42,43
 737 -20 737 -20 496 -20 c 0,0,1
EndSplineSet
Validated: 1
EndChar

StartChar: six
Encoding: 54 54 25
Width: 1366
GlyphClass: 2
Flags: MW
LayerCount: 2
Fore
SplineSet
694 -20 m 0,0,1
 470 -20 470 -20 324 147 c 0,2,3
 150 346 150 346 150 705 c 0,4,5
 150 1141 150 1141 367 1371 c 0,6,7
 517 1530 517 1530 755 1530 c 0,8,9
 889 1530 889 1530 992 1468 c 0,10,11
 1141 1378 1141 1378 1141 1242 c 0,12,13
 1141 1182 1141 1182 1098 1138 c 0,14,15
 1060 1100 1060 1100 1006 1100 c 128,-1,16
 952 1100 952 1100 914 1138 c 128,-1,17
 876 1176 876 1176 876 1229 c 0,18,19
 876 1281 876 1281 914 1320 c 0,20,21
 950 1356 950 1356 1013 1365 c 1,22,23
 921 1455 921 1455 771 1455 c 0,24,25
 595 1455 595 1455 490 1295 c 0,26,27
 373 1118 373 1118 373 854 c 1,28,29
 497 1035 497 1035 694 1035 c 0,30,31
 914 1035 914 1035 1062 886 c 0,32,33
 1216 731 1216 731 1216 508 c 128,-1,34
 1216 285 1216 285 1062 130 c 0,35,36
 913 -20 913 -20 694 -20 c 0,0,1
686 57 m 0,37,38
 844 57 844 57 936 208 c 0,39,40
 994 303 994 303 994 508 c 0,41,42
 994 707 994 707 936 807 c 0,43,44
 848 958 848 958 686 958 c 0,45,46
 530 958 530 958 442 807 c 0,47,48
 384 707 384 707 384 508 c 0,49,50
 384 308 384 308 442 208 c 0,51,52
 530 57 530 57 686 57 c 0,37,38
EndSplineSet
Validated: 1
EndChar

StartChar: seven
Encoding: 55 55 26
Width: 1141
GlyphClass: 2
Flags: MW
LayerCount: 2
Fore
SplineSet
559 -20 m 0,0,1
 503 -20 503 -20 465 18 c 0,2,3
 340 143 340 143 340 358 c 0,4,5
 340 576 340 576 462 765 c 0,6,7
 520 855 520 855 583.5 923.5 c 128,-1,8
 647 992 647 992 716 1055 c 0,9,10
 851 1179 851 1179 916 1294 c 1,11,12
 824 1250 824 1250 735 1250 c 128,-1,13
 646 1250 646 1250 520 1295 c 0,14,15
 393 1340 393 1340 312 1340 c 0,16,17
 174 1340 174 1340 65 1242 c 1,18,-1
 50 1242 l 1,19,20
 142 1520 142 1520 407 1520 c 0,21,22
 472 1520 472 1520 619 1467 c 0,23,24
 721 1430 721 1430 829 1430 c 0,25,26
 969 1430 969 1430 1076 1520 c 1,27,-1
 1091 1520 l 1,28,29
 1009 1263 1009 1263 845 1078 c 0,30,31
 743 964 743 964 702 909 c 0,32,33
 614 790 614 790 581 707 c 0,34,35
 534 589 534 589 534 455 c 0,36,37
 534 317 534 317 648 206 c 0,38,39
 688 167 688 167 688 112 c 0,40,41
 688 52 688 52 655 18 c 0,42,43
 618 -20 618 -20 559 -20 c 0,0,1
EndSplineSet
Validated: 1
EndChar

StartChar: eight
Encoding: 56 56 27
Width: 1245
GlyphClass: 2
Flags: MW
LayerCount: 2
Fore
SplineSet
746 904 m 1,0,1
 851 1016 851 1016 851 1192 c 0,2,3
 851 1315 851 1315 801 1381 c 0,4,5
 740 1462 740 1462 641 1462 c 128,-1,6
 542 1462 542 1462 483 1387 c 0,7,8
 430 1318 430 1318 430 1212 c 0,9,10
 430 1073 430 1073 580 993 c 2,11,-1
 746 904 l 1,0,1
615 -20 m 0,12,13
 400 -20 400 -20 268 101 c 0,14,15
 120 237 120 237 120 424 c 0,16,17
 120 710 120 710 446 843 c 1,18,19
 242 977 242 977 242 1172 c 0,20,21
 242 1342 242 1342 372 1444 c 0,22,23
 482 1530 482 1530 637 1530 c 0,24,25
 787 1530 787 1530 882 1448 c 0,26,27
 1001 1345 1001 1345 1001 1192 c 0,28,29
 1001 973 1001 973 800 874 c 1,30,31
 1125 733 1125 733 1125 457 c 0,32,33
 1125 258 1125 258 973 112 c 0,34,35
 835 -20 835 -20 615 -20 c 0,12,13
505 805 m 1,36,37
 270 688 270 688 270 419 c 0,38,39
 270 259 270 259 348 168 c 0,40,41
 447 52 447 52 615 52 c 0,42,43
 746 52 746 52 843 156 c 0,44,45
 928 247 928 247 928 400 c 0,46,47
 928 583 928 583 713 696 c 2,48,-1
 505 805 l 1,36,37
EndSplineSet
Validated: 1
EndChar

StartChar: nine
Encoding: 57 57 28
Width: 1366
GlyphClass: 2
Flags: MW
LayerCount: 2
Fore
SplineSet
595 55 m 0,0,1
 771 55 771 55 876 215 c 0,2,3
 993 392 993 392 993 656 c 1,4,5
 869 475 869 475 672 475 c 0,6,7
 452 475 452 475 304 624 c 0,8,9
 150 779 150 779 150 1002 c 128,-1,10
 150 1225 150 1225 304 1380 c 0,11,12
 453 1530 453 1530 672 1530 c 0,13,14
 896 1530 896 1530 1042 1363 c 0,15,16
 1216 1164 1216 1164 1216 805 c 0,17,18
 1216 369 1216 369 999 139 c 0,19,20
 849 -20 849 -20 611 -20 c 0,21,22
 477 -20 477 -20 374 42 c 0,23,24
 225 132 225 132 225 268 c 0,25,26
 225 328 225 328 268 372 c 0,27,28
 306 410 306 410 360 410 c 128,-1,29
 414 410 414 410 452 372 c 128,-1,30
 490 334 490 334 490 281 c 0,31,32
 490 229 490 229 452 190 c 0,33,34
 416 154 416 154 353 145 c 1,35,36
 445 55 445 55 595 55 c 0,0,1
680 1453 m 0,37,38
 522 1453 522 1453 430 1302 c 0,39,40
 372 1207 372 1207 372 1002 c 0,41,42
 372 803 372 803 430 703 c 0,43,44
 518 552 518 552 680 552 c 0,45,46
 836 552 836 552 924 703 c 0,47,48
 982 803 982 803 982 1002.5 c 128,-1,49
 982 1202 982 1202 924 1302 c 0,50,51
 836 1453 836 1453 680 1453 c 0,37,38
EndSplineSet
Validated: 1
EndChar

StartChar: colon
Encoding: 58 58 29
Width: 359
GlyphClass: 2
Flags: MW
LayerCount: 2
Fore
SplineSet
180 889 m 128,-1,1
 234 889 234 889 271.5 850.5 c 128,-1,2
 309 812 309 812 309 757 c 128,-1,3
 309 702 309 702 271.5 663.5 c 128,-1,4
 234 625 234 625 180 625 c 128,-1,5
 126 625 126 625 88 663.5 c 128,-1,6
 50 702 50 702 50 757 c 128,-1,7
 50 812 50 812 88 850.5 c 128,-1,0
 126 889 126 889 180 889 c 128,-1,1
180 -20 m 128,-1,9
 126 -20 126 -20 88 18.5 c 128,-1,10
 50 57 50 57 50 112 c 128,-1,11
 50 167 50 167 88 205.5 c 128,-1,12
 126 244 126 244 180 244 c 128,-1,13
 234 244 234 244 271.5 205.5 c 128,-1,14
 309 167 309 167 309 112 c 128,-1,15
 309 57 309 57 271.5 18.5 c 128,-1,8
 234 -20 234 -20 180 -20 c 128,-1,9
EndSplineSet
Validated: 1
EndChar

StartChar: semicolon
Encoding: 59 59 30
Width: 368
GlyphClass: 2
Flags: MW
LayerCount: 2
Fore
SplineSet
17 -221 m 1,0,-1
 17 -208 l 1,1,2
 95 -164 95 -164 143 -97 c 0,3,4
 167 -63 167 -63 181 -18 c 1,5,6
 117 -18 117 -18 87 13 c 0,7,8
 52 49 52 49 52 99 c 0,9,10
 52 151 52 151 88 188 c 0,11,12
 123 223 123 223 178 223 c 0,13,14
 230 223 230 223 267 189 c 0,15,16
 318 141 318 141 318 69 c 128,-1,17
 318 -3 318 -3 273 -76 c 0,18,19
 214 -172 214 -172 104 -209 c 0,20,21
 68 -221 68 -221 17 -221 c 1,0,-1
180 889 m 128,-1,23
 234 889 234 889 271.5 850.5 c 128,-1,24
 309 812 309 812 309 757 c 128,-1,25
 309 702 309 702 271.5 663.5 c 128,-1,26
 234 625 234 625 180 625 c 128,-1,27
 126 625 126 625 88 663.5 c 128,-1,28
 50 702 50 702 50 757 c 128,-1,29
 50 812 50 812 88 850.5 c 128,-1,22
 126 889 126 889 180 889 c 128,-1,23
EndSplineSet
Validated: 1
EndChar

StartChar: less
Encoding: 60 60 31
Width: 1127
GlyphClass: 2
Flags: MW
LayerCount: 2
Fore
SplineSet
874 1226 m 0,0,1
 889 1226 889 1226 900 1207 c 2,2,-1
 921 1171 l 2,3,4
 927 1161 927 1161 927 1150 c 0,5,6
 927 1135 927 1135 908 1124 c 2,7,-1
 325 794 l 1,8,-1
 894 485 l 2,9,10
 922 470 922 470 922 447 c 0,11,12
 922 435 922 435 912 417 c 2,13,-1
 877 355 l 2,14,15
 862 328 862 328 838 328 c 0,16,17
 826 328 826 328 809 337 c 2,18,-1
 200 669 l 2,19,20
 150 696 150 696 150 739 c 2,21,-1
 150 780 l 2,22,23
 150 822 150 822 200 850 c 2,24,-1
 853 1220 l 2,25,26
 864 1226 864 1226 874 1226 c 0,0,1
EndSplineSet
Validated: 1
EndChar

StartChar: equal
Encoding: 61 61 32
Width: 1133
GlyphClass: 2
Flags: MW
LayerCount: 2
Fore
SplineSet
200 640 m 2,0,-1
 933 640 l 2,1,2
 983 640 983 640 983 590 c 2,3,4
 983 540 l 2,5,6
 983 490 983 490 933 490 c 2,7,-1
 200 490 l 2,8,9
 150 490 150 490 150 540 c 2,10,-1
 150 590 l 2,11,12
 150 640 150 640 200 640 c 2,0,-1
200 1020 m 2,13,-1
 933 1020 l 2,14,15
 983 1020 983 1020 983 970 c 2,16,-1
 983 920 l 2,17,18
 983 870 983 870 933 870 c 2,19,-1
 200 870 l 2,20,21
 150 870 150 870 150 920 c 2,22,-1
 150 970 l 2,23,24
 150 1020 150 1020 200 1020 c 2,13,-1
EndSplineSet
Validated: 1
EndChar

StartChar: greater
Encoding: 62 62 33
Width: 1127
GlyphClass: 2
Flags: MW
LayerCount: 2
Fore
SplineSet
289 1226 m 0,0,1
 301 1226 301 1226 318 1217 c 2,2,-1
 927 885 l 2,3,4
 977 858 977 858 977 815 c 2,5,-1
 977 774 l 2,6,7
 977 732 977 732 927 704 c 2,8,-1
 274 334 l 2,9,10
 263 328 263 328 253 328 c 0,11,12
 238 328 238 328 227 347 c 2,13,-1
 206 383 l 2,14,15
 200 393 200 393 200 404 c 0,16,17
 200 419 200 419 219 430 c 2,18,-1
 802 760 l 1,19,-1
 233 1069 l 2,20,21
 205 1084 205 1084 205 1107 c 0,22,23
 205 1119 205 1119 215 1137 c 2,24,-1
 250 1199 l 2,25,26
 265 1226 265 1226 289 1226 c 0,0,1
EndSplineSet
Validated: 1
EndChar

StartChar: question
Encoding: 63 63 34
Width: 1256
GlyphClass: 2
Flags: MW
LayerCount: 2
Fore
SplineSet
649 1530 m 0,0,1
 861 1530 861 1530 986 1405 c 0,2,3
 1106 1285 1106 1285 1106 1120 c 0,4,5
 1106 895 1106 895 907 735 c 2,6,-1
 715 581 l 2,7,8
 611 498 611 498 611 350 c 24,9,10
 611 320 611 320 581 320 c 2,11,-1
 539 320 l 2,12,13
 509 320 509 320 509 350 c 24,14,15
 509 527 509 527 631 664 c 2,16,-1
 727 772 l 2,17,18
 882 946 882 946 882 1102 c 0,19,20
 882 1237 882 1237 810 1326 c 0,21,22
 722 1434 722 1434 571 1434 c 0,23,24
 429 1434 429 1434 334 1346 c 0,25,26
 241 1259 241 1259 219 1134 c 1,27,28
 251 1162 251 1162 291 1162 c 0,29,30
 341 1162 341 1162 378 1130 c 0,31,32
 416 1098 416 1098 416 1040 c 0,33,34
 416 987 416 987 378 950 c 0,35,36
 338 911 338 911 286 911 c 0,37,38
 231 911 231 911 191 949 c 0,39,40
 150 988 150 988 150 1064 c 0,41,42
 150 1247 150 1247 285 1386 c 0,43,44
 425 1530 425 1530 649 1530 c 0,0,1
567 -20 m 128,-1,46
 513 -20 513 -20 475 18.5 c 128,-1,47
 437 57 437 57 437 112 c 128,-1,48
 437 167 437 167 475 205.5 c 128,-1,49
 513 244 513 244 567 244 c 128,-1,50
 621 244 621 244 658.5 205.5 c 128,-1,51
 696 167 696 167 696 112 c 128,-1,52
 696 57 696 57 658.5 18.5 c 128,-1,45
 621 -20 621 -20 567 -20 c 128,-1,46
EndSplineSet
Validated: 1
EndChar

StartChar: at
Encoding: 64 64 35
Width: 1474
GlyphClass: 2
Flags: MW
LayerCount: 2
Fore
SplineSet
888 -20 m 0,0,1
 746 -20 746 -20 653 63 c 0,2,3
 537 164 537 164 537 306 c 0,4,5
 537 463 537 463 676 560 c 0,6,7
 807 652 807 652 1044 652 c 1,8,-1
 1044 786 l 2,9,10
 1044 929 1044 929 976 992 c 0,11,12
 913 1050 913 1050 812 1050 c 0,13,14
 625 1050 625 1050 510 910 c 0,15,16
 346 708 346 708 346 345 c 0,17,18
 346 3 346 3 507 -193 c 0,19,20
 644 -360 644 -360 859 -360 c 0,21,22
 1051 -360 1051 -360 1198 -230 c 1,23,-1
 1240 -276 l 1,24,25
 1071 -430 1071 -430 815 -430 c 128,-1,26
 559 -430 559 -430 390 -276 c 0,27,28
 150 -57 150 -57 150 345 c 128,-1,29
 150 747 150 747 390 966 c 0,30,31
 559 1120 559 1120 840 1120 c 0,32,33
 993 1120 993 1120 1093 1048 c 0,34,35
 1224 954 1224 954 1224 785 c 2,36,-1
 1224 200 l 2,37,38
 1224 87 1224 87 1308 87 c 0,39,40
 1390 87 1390 87 1419 200 c 1,41,-1
 1434 200 l 1,42,43
 1434 128 1434 128 1398 71 c 0,44,45
 1341 -20 1341 -20 1234 -20 c 0,46,47
 1122 -20 1122 -20 1074 72 c 1,48,49
 1025 -20 1025 -20 888 -20 c 0,0,1
1044 606 m 1,50,51
 903 594 903 594 809 506 c 0,52,53
 725 427 725 427 725 282 c 0,54,55
 725 179 725 179 774 114 c 0,56,57
 826 46 826 46 920 45 c 0,58,59
 1044 45 1044 45 1044 229 c 2,60,-1
 1044 606 l 1,50,51
EndSplineSet
Validated: 1
EndChar

StartChar: A
Encoding: 65 65 36
Width: 1624
GlyphClass: 2
Flags: MW
LayerCount: 2
Fore
SplineSet
167 -20 m 0,0,1
 78 -20 78 -20 36 60 c 0,2,3
 10 109 10 109 10 200 c 1,4,-1
 26 200 l 1,5,6
 56 73 56 73 136 73 c 0,7,8
 207 73 207 73 247 171 c 2,9,-1
 715 1304 l 1,10,-1
 701 1339 l 2,11,12
 667 1423 667 1423 603 1423 c 0,13,14
 532 1423 532 1423 502 1310 c 1,15,-1
 488 1310 l 1,16,17
 488 1380 488 1380 524 1439 c 0,18,19
 580 1530 580 1530 694 1530 c 0,20,21
 839 1530 839 1530 898 1387 c 2,22,-1
 1401 171 l 2,23,24
 1436 87 1436 87 1499 87 c 0,25,26
 1570 87 1570 87 1600 200 c 1,27,-1
 1614 200 l 1,28,29
 1614 130 1614 130 1578 71 c 0,30,31
 1522 -20 1522 -20 1410 -20 c 0,32,33
 1263 -20 1263 -20 1204 123 c 2,34,-1
 1048 500 l 1,35,-1
 491 500 l 1,36,-1
 335 123 l 2,37,38
 276 -20 276 -20 167 -20 c 0,0,1
1011 590 m 1,39,-1
 769 1174 l 1,40,-1
 528 590 l 1,41,-1
 1011 590 l 1,39,-1
EndSplineSet
Validated: 1
EndChar

StartChar: C
Encoding: 67 67 37
Width: 1280
GlyphClass: 2
Flags: MW
LayerCount: 2
Fore
SplineSet
756 -20 m 0,0,1
 502 -20 502 -20 348 134 c 0,2,3
 130 353 130 353 130 755 c 0,4,5
 130 1176 130 1176 348 1376 c 0,6,7
 517 1530 517 1530 747 1530 c 0,8,9
 941 1530 941 1530 1070 1401 c 0,10,11
 1180 1291 1180 1291 1180 1162 c 0,12,13
 1180 1093 1180 1093 1141.5 1055.5 c 128,-1,14
 1103 1018 1103 1018 1049 1018 c 128,-1,15
 995 1018 995 1018 957 1056 c 128,-1,16
 919 1094 919 1094 919 1147 c 0,17,18
 919 1202 919 1202 959 1242 c 0,19,20
 997 1280 997 1280 1066 1280 c 1,21,22
 967 1455 967 1455 770 1455 c 0,23,24
 597 1455 597 1455 486 1320 c 0,25,26
 360 1167 360 1167 360 755 c 0,27,28
 360 341 360 341 485 192 c 0,29,30
 600 55 600 55 781 55 c 0,31,32
 949 55 949 55 1059 180 c 0,33,34
 1120 249 1120 249 1162 336 c 1,35,-1
 1177 336 l 1,36,-1
 1177 178 l 1,37,38
 1019 -20 1019 -20 756 -20 c 0,0,1
EndSplineSet
Validated: 1
EndChar

StartChar: D
Encoding: 68 68 38
Width: 1504
GlyphClass: 2
Flags: MW
LayerCount: 2
Fore
SplineSet
280 -20 m 0,0,1
 173 -20 173 -20 116 71 c 0,2,3
 80 128 80 128 80 200 c 1,4,-1
 95 200 l 1,5,6
 124 87 124 87 206 87 c 0,7,8
 290 87 290 87 290 200 c 2,9,-1
 290 1150 l 2,10,11
 290 1200 290 1200 340 1200 c 2,12,-1
 440 1200 l 2,13,14
 490 1200 490 1200 490 1150 c 2,15,-1
 490 239 l 2,16,17
 490 162 490 162 523 121 c 0,18,19
 573 60 573 60 698 60 c 0,20,21
 945 60 945 60 1058 317 c 0,22,23
 1140 506 1140 506 1140 755 c 0,24,25
 1140 997 1140 997 1042 1191 c 0,26,27
 917 1440 917 1440 657 1440 c 0,28,29
 262 1440 262 1440 33 1045 c 1,30,-1
 20 1053 l 1,31,32
 220 1530 220 1530 687 1530 c 0,33,34
 1028 1530 1028 1530 1220 1266 c 0,35,36
 1374 1053 1374 1053 1374 754 c 0,37,38
 1374 456 1374 456 1215 235 c 0,39,40
 1031 -20 1031 -20 729 -20 c 0,41,42
 533 -20 533 -20 444 64 c 1,43,44
 384 -20 384 -20 280 -20 c 0,0,1
EndSplineSet
Validated: 1
EndChar

StartChar: E
Encoding: 69 69 39
Width: 1186
GlyphClass: 2
Flags: MW
LayerCount: 2
Fore
SplineSet
677 -20 m 0,0,1
 436 -20 436 -20 290 104 c 0,2,3
 120 248 120 248 120 470 c 0,4,5
 120 643 120 643 222 755 c 0,6,7
 330 873 330 873 502 886 c 1,8,9
 413 913 413 913 353 969 c 0,10,11
 252 1063 252 1063 252 1195 c 0,12,13
 252 1350 252 1350 376 1447 c 0,14,15
 483 1530 483 1530 644 1530 c 0,16,17
 812 1530 812 1530 903 1423 c 0,18,19
 983 1328 983 1328 983 1238 c 0,20,21
 983 1177 983 1177 949 1142 c 0,22,23
 908 1100 908 1100 854 1100 c 128,-1,24
 800 1100 800 1100 762 1138.5 c 128,-1,25
 724 1177 724 1177 724 1232 c 128,-1,26
 724 1287 724 1287 762 1325.5 c 128,-1,27
 800 1364 800 1364 854 1364 c 2,28,-1
 863 1364 l 1,29,30
 800 1465 800 1465 667 1465 c 0,31,32
 548 1465 548 1465 491 1376 c 0,33,34
 446 1306 446 1306 446 1204 c 0,35,36
 446 1068 446 1068 510 995 c 0,37,38
 582 913 582 913 717 871 c 1,39,-1
 717 856 l 1,40,41
 561 836 561 836 461 755 c 0,42,43
 340 657 340 657 340 470 c 0,44,45
 340 282 340 282 423 182 c 0,46,47
 528 55 528 55 684 55 c 0,48,49
 846 55 846 55 946 168 c 0,50,51
 1023 253 1023 253 1071 397 c 1,52,-1
 1086 397 l 1,53,-1
 1086 211 l 1,54,55
 1051 159 1051 159 1010 117 c 0,56,57
 876 -20 876 -20 677 -20 c 0,0,1
EndSplineSet
Validated: 1
EndChar

StartChar: F
Encoding: 70 70 40
Width: 1128
GlyphClass: 2
Flags: MW
LayerCount: 2
Fore
SplineSet
230.5 -20 m 128,-1,1
 123 -20 123 -20 66 71 c 0,2,3
 30 128 30 128 30 200 c 1,4,-1
 45 200 l 1,5,6
 74 87 74 87 156 87 c 0,7,8
 240 87 240 87 240 200 c 2,9,-1
 240 600 l 1,10,-1
 89 600 l 2,11,12
 59 600 59 600 59 630 c 2,13,-1
 59 660 l 2,14,15
 59 690 59 690 89 690 c 2,16,-1
 240 690 l 1,17,-1
 240 960 l 2,18,19
 240 1246 240 1246 400 1394 c 0,20,21
 546 1530 546 1530 744 1530 c 0,22,23
 974 1530 974 1530 1077 1325 c 0,24,25
 1098 1283 1098 1283 1098 1228 c 128,-1,26
 1098 1173 1098 1173 1060.5 1134.5 c 128,-1,27
 1023 1096 1023 1096 969 1096 c 128,-1,28
 915 1096 915 1096 877 1134.5 c 128,-1,29
 839 1173 839 1173 839 1228 c 128,-1,30
 839 1283 839 1283 877 1321.5 c 128,-1,31
 915 1360 915 1360 969 1360 c 2,32,-1
 978 1360 l 1,33,34
 880 1455 880 1455 770 1455 c 0,35,36
 597 1455 597 1455 512 1309 c 0,37,38
 440 1184 440 1184 440 960 c 2,39,-1
 440 690 l 1,40,-1
 839 690 l 2,41,42
 869 690 869 690 869 660 c 2,43,-1
 869 630 l 2,44,45
 869 600 869 600 839 600 c 2,46,-1
 440 600 l 1,47,-1
 440 239 l 2,48,49
 440 131 440 131 400 72 c 0,50,0
 338 -20 338 -20 230.5 -20 c 128,-1,1
EndSplineSet
Validated: 1
EndChar

StartChar: G
Encoding: 71 71 41
Width: 1346
GlyphClass: 2
Flags: MW
LayerCount: 2
Fore
SplineSet
760 -20 m 0,0,1
 503 -20 503 -20 329 162 c 0,2,3
 130 374 130 374 130 755 c 0,4,5
 130 1176 130 1176 348 1376 c 0,6,7
 517 1530 517 1530 747 1530 c 0,8,9
 941 1530 941 1530 1070 1401 c 0,10,11
 1180 1291 1180 1291 1180 1162 c 0,12,13
 1180 1093 1180 1093 1141.5 1055.5 c 128,-1,14
 1103 1018 1103 1018 1049 1018 c 128,-1,15
 995 1018 995 1018 957 1056 c 128,-1,16
 919 1094 919 1094 919 1147 c 0,17,18
 919 1202 919 1202 959 1242 c 0,19,20
 997 1280 997 1280 1066 1280 c 1,21,22
 967 1455 967 1455 770 1455 c 0,23,24
 597 1455 597 1455 486 1320 c 0,25,26
 360 1167 360 1167 360 755 c 0,27,28
 360 365 360 365 485 192 c 0,29,30
 584 55 584 55 747 55 c 0,31,32
 914 55 914 55 1000 182 c 0,33,34
 1058 269 1058 269 1058 379 c 0,35,36
 1058 600 1058 600 821 600 c 2,37,-1
 812 600 l 2,38,39
 782 600 782 600 782 630 c 2,40,-1
 782 660 l 2,41,42
 782 690 782 690 812 690 c 2,43,-1
 1007 690 l 2,44,45
 1246 690 1246 690 1246 472 c 0,46,47
 1246 304 1246 304 1126 160 c 0,48,49
 976 -20 976 -20 760 -20 c 0,0,1
EndSplineSet
Validated: 1
EndChar

StartChar: H
Encoding: 72 72 42
Width: 1417
GlyphClass: 2
Flags: MW
LayerCount: 2
Fore
SplineSet
230.5 -20 m 128,-1,1
 123 -20 123 -20 66 71 c 0,2,3
 30 128 30 128 30 200 c 1,4,-1
 45 200 l 1,5,6
 74 87 74 87 156 87 c 0,7,8
 240 87 240 87 240 200 c 2,9,-1
 240 1310 l 2,10,11
 240 1423 240 1423 156 1423 c 0,12,13
 74 1423 74 1423 45 1310 c 1,14,-1
 30 1310 l 1,15,16
 30 1382 30 1382 66 1439 c 0,17,18
 123 1530 123 1530 230.5 1530 c 128,-1,19
 338 1530 338 1530 400 1438 c 0,20,21
 440 1379 440 1379 440 1271 c 2,22,-1
 440 690 l 1,23,-1
 977 690 l 1,24,-1
 977 1271 l 2,25,26
 977 1379 977 1379 1017 1438 c 0,27,28
 1079 1530 1079 1530 1186.5 1530 c 128,-1,29
 1294 1530 1294 1530 1351 1439 c 0,30,31
 1387 1382 1387 1382 1387 1310 c 1,32,-1
 1372 1310 l 1,33,34
 1343 1423 1343 1423 1261 1423 c 0,35,36
 1177 1423 1177 1423 1177 1310 c 2,37,-1
 1177 200 l 2,38,39
 1177 87 1177 87 1261 87 c 0,40,41
 1343 87 1343 87 1372 200 c 1,42,-1
 1387 200 l 1,43,44
 1387 128 1387 128 1351 71 c 0,45,46
 1294 -20 1294 -20 1186.5 -20 c 128,-1,47
 1079 -20 1079 -20 1017 72 c 0,48,49
 977 131 977 131 977 239 c 2,50,-1
 977 600 l 1,51,-1
 440 600 l 1,52,-1
 440 239 l 2,53,54
 440 131 440 131 400 72 c 0,55,0
 338 -20 338 -20 230.5 -20 c 128,-1,1
EndSplineSet
Validated: 1
EndChar

StartChar: I
Encoding: 73 73 43
Width: 680
GlyphClass: 2
Flags: MW
LayerCount: 2
Fore
SplineSet
230.5 -20 m 128,-1,1
 123 -20 123 -20 66 71 c 0,2,3
 30 128 30 128 30 200 c 1,4,-1
 45 200 l 1,5,6
 74 87 74 87 156 87 c 0,7,8
 240 87 240 87 240 200 c 10,9,-1
 240 1460 l 2,10,11
 240 1510 240 1510 290 1510 c 2,12,-1
 390 1510 l 2,13,14
 440 1510 440 1510 440 1460 c 2,15,-1
 440 239 l 2,16,17
 440 131 440 131 400 72 c 0,18,0
 338 -20 338 -20 230.5 -20 c 128,-1,1
EndSplineSet
Validated: 1
EndChar

StartChar: J
Encoding: 74 74 44
Width: 1128
GlyphClass: 2
Flags: MW
LayerCount: 2
Fore
SplineSet
384 -20 m 0,0,1
 154 -20 154 -20 51 185 c 0,2,3
 30 227 30 227 30 282 c 128,-1,4
 30 337 30 337 67.5 375.5 c 128,-1,5
 105 414 105 414 159 414 c 128,-1,6
 213 414 213 414 251 375.5 c 128,-1,7
 289 337 289 337 289 282 c 128,-1,8
 289 227 289 227 251 188.5 c 128,-1,9
 213 150 213 150 159 150 c 2,10,-1
 150 150 l 1,11,12
 248 55 248 55 358 55 c 0,13,14
 531 55 531 55 616 201 c 0,15,16
 688 326 688 326 688 550 c 2,17,-1
 688 1310 l 18,18,19
 688 1423 688 1423 604 1423 c 0,20,21
 522 1423 522 1423 493 1310 c 1,22,-1
 478 1310 l 1,23,24
 478 1382 478 1382 514 1439 c 0,25,26
 571 1530 571 1530 678.5 1530 c 128,-1,27
 786 1530 786 1530 848 1438 c 0,28,29
 888 1379 888 1379 888 1271 c 10,30,-1
 888 550 l 2,31,32
 888 264 888 264 728 116 c 0,33,34
 582 -20 582 -20 384 -20 c 0,0,1
EndSplineSet
Validated: 1
EndChar

StartChar: K
Encoding: 75 75 45
Width: 1440
GlyphClass: 2
Flags: MW
LayerCount: 2
Fore
SplineSet
230.5 -20 m 128,-1,1
 123 -20 123 -20 66 71 c 0,2,3
 30 128 30 128 30 200 c 1,4,-1
 45 200 l 1,5,6
 74 87 74 87 156 87 c 0,7,8
 240 87 240 87 240 200 c 2,9,-1
 240 1310 l 2,10,11
 240 1423 240 1423 156 1423 c 0,12,13
 74 1423 74 1423 45 1310 c 1,14,-1
 30 1310 l 1,15,16
 30 1382 30 1382 66 1439 c 0,17,18
 123 1530 123 1530 230.5 1530 c 128,-1,19
 338 1530 338 1530 400 1438 c 0,20,21
 440 1379 440 1379 440 1271 c 2,22,-1
 440 583 l 1,23,24
 919 846 919 846 1042 1266 c 1,25,26
 973 1266 973 1266 930 1308 c 0,27,28
 891 1346 891 1346 891 1401 c 0,29,30
 891 1453 891 1453 930 1492 c 0,31,32
 968 1530 968 1530 1024 1530 c 0,33,34
 1078 1530 1078 1530 1117 1491 c 0,35,36
 1161 1447 1161 1447 1161 1375 c 0,37,38
 1161 1317 1161 1317 1135 1242 c 0,39,40
 1000 853 1000 853 724 661 c 1,41,42
 945 661 945 661 1044 414 c 2,43,-1
 1225 -38 l 2,44,45
 1270 -150 1270 -150 1356 -150 c 0,46,47
 1413 -150 1413 -150 1447 -112 c 0,48,49
 1482 -73 1482 -73 1500 -19 c 1,50,-1
 1510 -19 l 1,51,52
 1498 -138 1498 -138 1430 -210.5 c 128,-1,53
 1362 -283 1362 -283 1268 -283 c 0,54,55
 1096 -283 1096 -283 1021 -95 c 2,56,-1
 846 341 l 2,57,58
 765 544 765 544 634 544 c 0,59,60
 440 544 440 544 440 270 c 2,61,-1
 440 239 l 2,62,63
 440 131 440 131 400 72 c 0,64,0
 338 -20 338 -20 230.5 -20 c 128,-1,1
EndSplineSet
Validated: 1
EndChar

StartChar: L
Encoding: 76 76 46
Width: 1218
GlyphClass: 2
Flags: MW
LayerCount: 2
Fore
SplineSet
230 -20 m 0,0,1
 123 -20 123 -20 66 71 c 0,2,3
 30 128 30 128 30 200 c 1,4,-1
 45 200 l 1,5,6
 74 87 74 87 156 87 c 0,7,8
 240 87 240 87 240 200 c 2,9,-1
 240 960 l 2,10,11
 240 1246 240 1246 400 1394 c 0,12,13
 546 1530 546 1530 744 1530 c 0,14,15
 974 1530 974 1530 1077 1325 c 0,16,17
 1098 1283 1098 1283 1098 1228 c 128,-1,18
 1098 1173 1098 1173 1060.5 1134.5 c 128,-1,19
 1023 1096 1023 1096 969 1096 c 128,-1,20
 915 1096 915 1096 877 1134.5 c 128,-1,21
 839 1173 839 1173 839 1228 c 128,-1,22
 839 1283 839 1283 877 1321.5 c 128,-1,23
 915 1360 915 1360 969 1360 c 2,24,-1
 978 1360 l 1,25,26
 880 1455 880 1455 770 1455 c 0,27,28
 597 1455 597 1455 512 1309 c 0,29,30
 440 1184 440 1184 440 960 c 2,31,-1
 440 239 l 2,32,33
 440 159 440 159 418 106 c 1,34,35
 469 117 469 117 532 117 c 0,36,37
 644 117 644 117 732 85 c 0,38,39
 818 54 818 54 901 54 c 0,40,41
 1008 54 1008 54 1048 104 c 1,42,43
 1002 104 1002 104 970 131 c 0,44,45
 928 168 928 168 928 221 c 0,46,47
 928 276 928 276 966 315 c 0,48,49
 1002 352 1002 352 1058 352 c 0,50,51
 1112 352 1112 352 1150 314 c 0,52,53
 1188 275 1188 275 1188 213 c 0,54,55
 1188 104 1188 104 1112 41 c 0,56,57
 1038 -20 1038 -20 909 -20 c 0,58,59
 828 -20 828 -20 682 15 c 0,60,61
 596 36 596 36 515 36 c 0,62,63
 448 36 448 36 374 8 c 128,-1,64
 300 -20 300 -20 230 -20 c 0,0,1
EndSplineSet
Validated: 1
EndChar

StartChar: M
Encoding: 77 77 47
Width: 1966
GlyphClass: 2
Flags: MW
LayerCount: 2
Fore
SplineSet
166 -20 m 0,0,1
 74 -20 74 -20 32 67 c 0,2,3
 10 113 10 113 10 200 c 1,4,-1
 25 200 l 1,5,6
 63 62 63 62 141 62 c 128,-1,7
 219 62 219 62 239 200 c 2,8,-1
 394 1261 l 1,9,-1
 360 1339 l 2,10,11
 323 1423 323 1423 262 1423 c 0,12,13
 191 1423 191 1423 161 1310 c 1,14,-1
 147 1310 l 1,15,16
 147 1382 147 1382 183 1439 c 0,17,18
 240 1530 240 1530 353 1530 c 0,19,20
 495 1530 495 1530 557 1387 c 2,21,-1
 1016 326 l 1,22,-1
 1461 1387 l 2,23,24
 1521 1530 1521 1530 1629 1530 c 0,25,26
 1718 1530 1718 1530 1760 1450 c 0,27,28
 1786 1401 1786 1401 1786 1310 c 1,29,-1
 1770 1310 l 1,30,31
 1740 1442 1740 1442 1659 1442 c 0,32,33
 1595 1442 1595 1442 1569 1370 c 1,34,-1
 1754 200 l 2,35,36
 1772 87 1772 87 1838 87 c 0,37,38
 1912 87 1912 87 1942 200 c 1,39,-1
 1956 200 l 1,40,41
 1956 128 1956 128 1920 71 c 0,42,43
 1862 -20 1862 -20 1758 -20 c 0,44,45
 1638 -20 1638 -20 1586 77 c 0,46,47
 1559 127 1559 127 1542 239 c 2,48,-1
 1418 1036 l 1,49,-1
 975 -40 l 1,50,-1
 960 -40 l 1,51,-1
 471 1083 l 1,52,-1
 339 200 l 2,53,54
 324 98 324 98 295 54 c 0,55,56
 247 -20 247 -20 166 -20 c 0,0,1
EndSplineSet
Validated: 1
EndChar

StartChar: N
Encoding: 78 78 48
Width: 1534
GlyphClass: 2
Flags: MW
LayerCount: 2
Fore
SplineSet
205 -20 m 0,0,1
 105 -20 105 -20 63 67 c 0,2,3
 41 113 41 113 41 200 c 1,4,-1
 56 200 l 1,5,6
 94 62 94 62 182 62 c 128,-1,7
 270 62 270 62 270 200 c 2,8,-1
 270 1290 l 1,9,10
 205 1407 205 1407 143 1407 c 0,11,12
 74 1407 74 1407 44 1310 c 1,13,-1
 30 1310 l 1,14,15
 30 1382 30 1382 66 1439 c 0,16,17
 123 1530 123 1530 234 1530 c 0,18,19
 342 1530 342 1530 425 1419 c 2,20,-1
 1175 411 l 1,21,-1
 1175 1310 l 2,22,23
 1175 1409 1175 1409 1200 1451 c 0,24,25
 1247 1530 1247 1530 1340 1530 c 0,26,27
 1440 1530 1440 1530 1482 1443 c 0,28,29
 1504 1397 1504 1397 1504 1310 c 1,30,-1
 1489 1310 l 1,31,32
 1451 1448 1451 1448 1363 1448 c 128,-1,33
 1275 1448 1275 1448 1275 1310 c 2,34,-1
 1275 -40 l 1,35,-1
 1260 -40 l 1,36,-1
 370 1160 l 1,37,-1
 370 200 l 2,38,39
 370 101 370 101 345 59 c 0,40,41
 298 -20 298 -20 205 -20 c 0,0,1
EndSplineSet
Validated: 1
EndChar

StartChar: P
Encoding: 80 80 49
Width: 1416
GlyphClass: 2
Flags: MW
LayerCount: 2
Fore
SplineSet
280.5 -20 m 128,-1,1
 173 -20 173 -20 116 71 c 0,2,3
 80 128 80 128 80 200 c 1,4,-1
 95 200 l 1,5,6
 124 87 124 87 206 87 c 0,7,8
 290 87 290 87 290 200 c 2,9,-1
 290 1150 l 2,10,11
 290 1200 290 1200 340 1200 c 2,12,-1
 440 1200 l 2,13,14
 490 1200 490 1200 490 1150 c 2,15,-1
 490 657 l 1,16,17
 568 528 568 528 727 528 c 0,18,19
 884 528 884 528 970 642 c 0,20,21
 1061 763 1061 763 1061 994 c 0,22,23
 1061 1182 1061 1182 972 1302 c 0,24,25
 869 1440 869 1440 647 1440 c 0,26,27
 290 1440 290 1440 35 1047 c 1,28,-1
 20 1053 l 1,29,30
 214 1530 214 1530 701 1530 c 0,31,32
 967 1530 967 1530 1128 1377 c 0,33,34
 1286 1227 1286 1227 1286 996 c 0,35,36
 1286 792 1286 792 1174 652 c 0,37,38
 1018 458 1018 458 778 458 c 0,39,40
 590 458 590 458 490 550 c 1,41,-1
 490 239 l 2,42,43
 490 131 490 131 450 72 c 0,44,0
 388 -20 388 -20 280.5 -20 c 128,-1,1
EndSplineSet
Validated: 1
EndChar

StartChar: R
Encoding: 82 82 50
Width: 1479
GlyphClass: 2
Flags: MW
LayerCount: 2
Fore
SplineSet
280.5 -20 m 128,-1,1
 173 -20 173 -20 116 71 c 0,2,3
 80 128 80 128 80 200 c 1,4,-1
 95 200 l 1,5,6
 124 87 124 87 206 87 c 0,7,8
 290 87 290 87 290 200 c 2,9,-1
 290 1150 l 2,10,11
 290 1200 290 1200 340 1200 c 2,12,-1
 440 1200 l 2,13,14
 490 1200 490 1200 490 1150 c 2,15,-1
 490 657 l 1,16,17
 568 528 568 528 727 528 c 0,18,19
 884 528 884 528 970 642 c 0,20,21
 1061 763 1061 763 1061 994 c 0,22,23
 1061 1182 1061 1182 972 1302 c 0,24,25
 869 1440 869 1440 647 1440 c 0,26,27
 290 1440 290 1440 35 1047 c 1,28,29
 20 1053 l 1,30,31
 214 1530 214 1530 701 1530 c 0,32,33
 967 1530 967 1530 1128 1377 c 0,34,35
 1286 1227 1286 1227 1286 996 c 0,36,37
 1286 791 1286 791 1174 652 c 0,38,39
 1055 504 1055 504 887 469 c 1,40,41
 1055 439 1055 439 1124 281 c 2,42,-1
 1264 -38 l 2,43,44
 1313 -150 1313 -150 1395 -150 c 0,45,46
 1450 -150 1450 -150 1485.5 -111.5 c 128,-1,47
 1521 -73 1521 -73 1539 -19 c 1,48,-1
 1549 -19 l 1,49,50
 1537 -138 1537 -138 1469 -210.5 c 128,-1,51
 1401 -283 1401 -283 1307 -283 c 0,52,53
 1142 -283 1142 -283 1060 -95 c 2,54,-1
 907 255 l 2,55,56
 824 445 824 445 695 463 c 144,-1,57
 566 481 566 481 490 550 c 1,58,-1
 490 239 l 2,59,60
 490 131 490 131 450 72 c 0,61,0
 388 -20 388 -20 280.5 -20 c 128,-1,1
EndSplineSet
Validated: 1
EndChar

StartChar: S
Encoding: 83 83 51
Width: 1261
GlyphClass: 2
Flags: MW
LayerCount: 2
Fore
SplineSet
585 -20 m 0,0,1
 359 -20 359 -20 230 109 c 0,2,3
 120 219 120 219 120 348 c 0,4,5
 120 417 120 417 158.5 454.5 c 128,-1,6
 197 492 197 492 251 492 c 128,-1,7
 305 492 305 492 343 454 c 128,-1,8
 381 416 381 416 381 363 c 0,9,10
 381 308 381 308 341 268 c 0,11,12
 303 230 303 230 234 230 c 1,13,14
 333 55 333 55 563 55 c 0,15,16
 769 55 769 55 865 187 c 0,17,18
 937 286 937 286 937 418 c 0,19,20
 937 624 937 624 701 727 c 2,21,-1
 523 805 l 2,22,23
 222 937 222 937 222 1189 c 0,24,25
 222 1327 222 1327 345 1438 c 0,26,27
 447 1530 447 1530 631 1530 c 0,28,29
 892 1530 892 1530 995 1325 c 0,30,31
 1016 1283 1016 1283 1016 1228 c 128,-1,32
 1016 1173 1016 1173 978.5 1134.5 c 128,-1,33
 941 1096 941 1096 887 1096 c 128,-1,34
 833 1096 833 1096 795 1134.5 c 128,-1,35
 757 1173 757 1173 757 1228 c 128,-1,36
 757 1283 757 1283 795 1321.5 c 128,-1,37
 833 1360 833 1360 887 1360 c 2,38,-1
 896 1360 l 1,39,40
 802 1455 802 1455 670 1455 c 0,41,42
 545 1455 545 1455 478 1390 c 0,43,44
 410 1324 410 1324 410 1223 c 0,45,46
 410 1074 410 1074 605 990 c 2,47,-1
 806 903 l 2,48,49
 1141 758 1141 758 1141 463 c 0,50,51
 1141 260 1141 260 978 113 c 0,52,53
 832 -20 832 -20 585 -20 c 0,0,1
EndSplineSet
Validated: 1
EndChar

StartChar: T
Encoding: 84 84 52
Width: 1296
GlyphClass: 2
Flags: MW
LayerCount: 2
Fore
SplineSet
560 -20 m 0,0,1
 453 -20 453 -20 396 71 c 0,2,3
 360 128 360 128 360 200 c 1,4,-1
 374 200 l 1,5,6
 404 87 404 87 486 87 c 0,7,8
 570 87 570 87 570 200 c 2,9,-1
 570 1150 l 2,10,11
 570 1200 570 1200 620 1200 c 2,12,-1
 720 1200 l 2,13,14
 770 1200 770 1200 770 1150 c 2,15,-1
 770 239 l 2,16,17
 769 131 769 131 730 72 c 0,18,19
 668 -20 668 -20 560 -20 c 0,0,1
639 1510 m 2,20,-1
 938 1510 l 2,21,22
 1082 1510 1082 1510 1174 1449 c 128,-1,23
 1266 1388 1266 1388 1266 1292 c 0,24,25
 1266 1237 1266 1237 1228 1198 c 0,26,27
 1191 1159 1191 1159 1136 1159 c 0,28,29
 1084 1159 1084 1159 1044 1197 c 0,30,31
 1006 1234 1006 1234 1006 1284 c 0,32,33
 1006 1394 1006 1394 1129 1403 c 1,34,35
 1095 1420 1095 1420 940 1420 c 2,36,-1
 631 1420 l 2,37,38
 258 1420 258 1420 24 1025 c 1,39,-1
 10 1033 l 1,40,41
 185 1510 185 1510 639 1510 c 2,20,-1
EndSplineSet
Validated: 1
EndChar

StartChar: U
Encoding: 85 85 53
Width: 1480
GlyphClass: 2
Flags: MW
LayerCount: 2
Fore
SplineSet
680 -20 m 0,0,1
 444 -20 444 -20 317 166 c 0,2,3
 240 279 240 279 240 510 c 2,4,-1
 240 1310 l 2,5,6
 240 1423 240 1423 156 1423 c 0,7,8
 74 1423 74 1423 45 1310 c 1,9,-1
 30 1310 l 1,10,11
 30 1382 30 1382 66 1439 c 0,12,13
 123 1530 123 1530 230.5 1530 c 128,-1,14
 338 1530 338 1530 400 1438 c 0,15,16
 440 1379 440 1379 440 1271 c 2,17,-1
 440 508 l 2,18,19
 440 341 440 341 481 251 c 0,20,21
 550 99 550 99 738 99 c 0,22,23
 921 99 921 99 997 266 c 0,24,25
 1040 360 1040 360 1040 510 c 2,26,-1
 1040 1460 l 2,27,28
 1040 1510 1040 1510 1090 1510 c 2,29,-1
 1190 1510 l 2,30,31
 1240 1510 1240 1510 1240 1460 c 2,32,-1
 1240 200 l 2,33,34
 1240 87 1240 87 1324 87 c 0,35,36
 1406 87 1406 87 1435 200 c 1,37,-1
 1450 200 l 1,38,39
 1450 127 1450 127 1414 71 c 0,40,41
 1356 -20 1356 -20 1250 -20 c 0,42,43
 1142 -20 1142 -20 1080 72 c 0,44,45
 1043 127 1043 127 1043 216 c 1,46,47
 1027 168 1027 168 984 116 c 0,48,49
 871 -20 871 -20 680 -20 c 0,0,1
EndSplineSet
Validated: 1
EndChar

StartChar: V
Encoding: 86 86 54
Width: 1445
GlyphClass: 2
Flags: MW
LayerCount: 2
Fore
SplineSet
703 -20 m 0,0,1
 442 -20 442 -20 317 166 c 0,2,3
 240 281 240 281 240 510 c 2,4,-1
 240 1260 l 2,5,6
 240 1383 240 1383 156 1383 c 0,7,8
 80 1383 80 1383 45 1260 c 1,9,-1
 30 1260 l 1,10,11
 30 1364 30 1364 71 1436 c 0,12,13
 125 1530 125 1530 241 1530 c 0,14,15
 352 1530 352 1530 407 1433 c 0,16,17
 440 1374 440 1374 440 1261 c 2,18,-1
 440 508 l 2,19,20
 440 329 440 329 481 251 c 0,21,22
 560 99 560 99 751 99 c 0,23,24
 968 99 968 99 1098 325 c 0,25,26
 1185 479 1185 479 1185 736 c 0,27,28
 1185 935 1185 935 1094 1088 c 0,29,30
 1029 1197 1029 1197 911 1294 c 0,31,32
 858 1337 858 1337 858 1400 c 0,33,34
 858 1455 858 1455 895 1492 c 0,35,36
 933 1530 933 1530 986 1530 c 0,37,38
 1076 1530 1076 1530 1139 1438 c 0,39,40
 1315 1183 1315 1183 1315 826 c 0,41,42
 1315 525 1315 525 1203 318 c 0,43,44
 1020 -20 1020 -20 703 -20 c 0,0,1
EndSplineSet
Validated: 1
EndChar

StartChar: W
Encoding: 87 87 55
Width: 2245
GlyphClass: 2
Flags: MW
LayerCount: 2
Fore
SplineSet
680 -20 m 0,0,1
 444 -20 444 -20 317 166 c 0,2,3
 240 279 240 279 240 510 c 2,4,-1
 240 1310 l 2,5,6
 240 1423 240 1423 156 1423 c 0,7,8
 74 1423 74 1423 45 1310 c 1,9,-1
 30 1310 l 1,10,11
 30 1382 30 1382 66 1439 c 0,12,13
 123 1530 123 1530 230.5 1530 c 128,-1,14
 338 1530 338 1530 400 1438 c 0,15,16
 440 1379 440 1379 440 1271 c 2,17,-1
 440 508 l 2,18,19
 440 341 440 341 481 251 c 0,20,21
 550 99 550 99 738 99 c 0,22,23
 921 99 921 99 997 266 c 0,24,25
 1040 360 1040 360 1040 510 c 2,26,-1
 1040 1460 l 2,27,28
 1040 1510 1040 1510 1090 1510 c 2,29,-1
 1190 1510 l 2,30,31
 1240 1510 1240 1510 1240 1460 c 2,32,-1
 1240 508 l 2,33,34
 1240 330 1240 330 1281 251 c 0,35,36
 1360 99 1360 99 1551 99 c 0,37,38
 1768 99 1768 99 1898 325 c 0,39,40
 1985 476 1985 476 1985 736 c 0,41,42
 1985 935 1985 935 1894 1088 c 0,43,44
 1829 1197 1829 1197 1711 1294 c 0,45,46
 1658 1337 1658 1337 1658 1400 c 0,47,48
 1658 1455 1658 1455 1695 1492 c 0,49,50
 1733 1530 1733 1530 1786 1530 c 0,51,52
 1876 1530 1876 1530 1939 1438 c 0,53,54
 2115 1183 2115 1183 2115 826 c 0,55,56
 2115 525 2115 525 2003 318 c 0,57,58
 1820 -20 1820 -20 1503 -20 c 0,59,60
 1240 -20 1240 -20 1119 165 c 0,61,62
 1094 203 1094 203 1074 258 c 1,63,64
 1048 182 1048 182 996 119 c 0,65,66
 881 -20 881 -20 680 -20 c 0,0,1
EndSplineSet
Validated: 1
EndChar

StartChar: X
Encoding: 88 88 56
Width: 1289
GlyphClass: 2
Flags: MW
LayerCount: 2
Fore
SplineSet
177 -20 m 0,0,1
 97 -20 97 -20 55 74 c 0,2,3
 30 130 30 130 30 200 c 1,4,-1
 45 200 l 1,5,6
 81 71 81 71 171 71 c 0,7,8
 219 71 219 71 279 109 c 0,9,10
 480 236 480 236 677 452 c 1,11,-1
 243 1339 l 2,12,13
 202 1423 202 1423 145 1423 c 0,14,15
 74 1423 74 1423 44 1310 c 1,16,-1
 30 1310 l 1,17,18
 30 1382 30 1382 66 1439 c 0,19,20
 123 1530 123 1530 234 1530 c 0,21,22
 370 1530 370 1530 440 1387 c 2,23,-1
 814 618 l 1,24,25
 1035 908 1035 908 1105 1262 c 1,26,27
 1027 1262 1027 1262 980 1308 c 0,28,29
 941 1346 941 1346 941 1401 c 0,30,31
 941 1454 941 1454 980 1492 c 0,32,33
 1018 1530 1018 1530 1072 1530 c 0,34,35
 1130 1530 1130 1530 1169 1492 c 0,36,37
 1213 1449 1213 1449 1213 1388 c 0,38,39
 1213 1331 1213 1331 1201 1264 c 0,40,41
 1130 861 1130 861 861 527 c 1,42,-1
 1046 171 l 2,43,44
 1090 87 1090 87 1144 87 c 0,45,46
 1215 87 1215 87 1245 200 c 1,47,-1
 1259 200 l 1,48,49
 1259 128 1259 128 1223 71 c 0,50,51
 1166 -20 1166 -20 1055 -20 c 0,52,53
 923 -20 923 -20 849 123 c 2,54,-1
 726 362 l 1,55,56
 526 151 526 151 309 18 c 0,57,58
 247 -20 247 -20 177 -20 c 0,0,1
EndSplineSet
Validated: 1
EndChar

StartChar: Y
Encoding: 89 89 57
Width: 1420
GlyphClass: 2
Flags: MW
LayerCount: 2
Fore
SplineSet
661 -20 m 0,0,1
 416 -20 416 -20 313 185 c 0,2,3
 292 227 292 227 292 282 c 128,-1,4
 292 337 292 337 329.5 375.5 c 128,-1,5
 367 414 367 414 421 414 c 128,-1,6
 475 414 475 414 513 375.5 c 128,-1,7
 551 337 551 337 551 282 c 128,-1,8
 551 227 551 227 513 188.5 c 128,-1,9
 475 150 475 150 421 150 c 2,10,-1
 412 150 l 1,11,12
 510 55 510 55 635 55 c 0,13,14
 817 55 817 55 908 201 c 0,15,16
 980 319 980 319 980 550 c 2,17,-1
 980 694 l 1,18,19
 951 644 951 644 897 597 c 0,20,21
 795 510 795 510 635 510 c 0,22,23
 442 510 442 510 328 641 c 0,24,25
 240 745 240 745 240 920 c 2,26,-1
 240 1310 l 2,27,28
 240 1423 240 1423 156 1423 c 0,29,30
 74 1423 74 1423 45 1310 c 1,31,-1
 30 1310 l 1,32,33
 30 1382 30 1382 66 1439 c 0,34,35
 123 1530 123 1530 230.5 1530 c 128,-1,36
 338 1530 338 1530 400 1438 c 0,37,38
 440 1379 440 1379 440 1271 c 2,39,-1
 440 920 l 2,40,41
 440 805 440 805 480 739 c 0,42,43
 552 621 552 621 711 621 c 0,44,45
 868 621 868 621 943 740 c 0,46,47
 980 798 980 798 980 920 c 2,48,-1
 980 1460 l 2,49,50
 980 1510 980 1510 1030 1510 c 2,51,-1
 1130 1510 l 2,52,53
 1180 1510 1180 1510 1180 1460 c 2,54,-1
 1180 550 l 2,55,56
 1180 264 1180 264 1020 116 c 0,57,58
 874 -20 874 -20 661 -20 c 0,0,1
EndSplineSet
Validated: 1
EndChar

StartChar: Z
Encoding: 90 90 58
Width: 1387
GlyphClass: 2
Flags: MW
LayerCount: 2
Fore
SplineSet
110 -20 m 1,0,-1
 100 -6 l 1,1,-1
 926 1380 l 1,2,3
 825 1380 825 1380 683 1416 c 0,4,5
 561 1447 561 1447 503 1447 c 0,6,7
 421 1446 421 1446 360 1404 c 1,8,9
 419 1356 419 1356 419 1295 c 128,-1,10
 419 1234 419 1234 381 1195 c 0,11,12
 345 1158 345 1158 290 1158 c 0,13,14
 233 1158 233 1158 197 1196 c 0,15,16
 159 1236 159 1236 159 1288 c 0,17,18
 159 1389 159 1389 271 1458 c 0,19,20
 388 1530 388 1530 511 1530 c 0,21,22
 578 1530 578 1530 739 1495 c 0,23,24
 840 1473 840 1473 956 1473 c 0,25,26
 1088 1473 1088 1473 1226 1530 c 1,27,-1
 1236 1516 l 1,28,-1
 413 129 l 1,29,30
 545 129 545 129 683 94 c 0,31,32
 805 63 805 63 913 63 c 0,33,34
 1012 63 1012 63 1055 106 c 1,35,36
 997 150 997 150 997 219 c 0,37,38
 997 276 997 276 1035 315 c 0,39,40
 1071 352 1071 352 1126 352 c 0,41,42
 1183 352 1183 352 1219 314 c 0,43,44
 1257 274 1257 274 1257 222 c 0,45,46
 1257 121 1257 121 1145 52 c 0,47,48
 1028 -20 1028 -20 905 -20 c 0,49,50
 788 -20 788 -20 627 15 c 0,51,52
 526 37 526 37 409 37 c 0,53,54
 248 37 248 37 110 -20 c 1,0,-1
EndSplineSet
Validated: 1
EndChar

StartChar: bracketleft
Encoding: 91 91 59
Width: 765
GlyphClass: 2
Flags: MW
LayerCount: 2
Fore
SplineSet
300 1710 m 2,0,1
 690 1710 l 2,2,3
 715 1710 715 1710 715 1685 c 2,4,-1
 715 1635 l 2,5,6
 715 1610 715 1610 690 1610 c 2,7,-1
 430 1610 l 1,8,-1
 430 -105 l 1,9,-1
 690 -105 l 2,10,11
 715 -105 715 -105 715 -130 c 2,12,-1
 715 -180 l 2,13,14
 715 -205 715 -205 690 -205 c 2,15,-1
 300 -205 l 2,16,17
 250 -205 250 -205 250 -155 c 2,18,-1
 250 1660 l 2,19,20
 250 1710 250 1710 300 1710 c 2,0,1
EndSplineSet
Validated: 1
EndChar

StartChar: backslash
Encoding: 92 92 60
Width: 1141
GlyphClass: 2
Flags: MW
LayerCount: 2
Fore
SplineSet
114 1662 m 0,0,1
 137 1662 137 1662 153 1634 c 2,2,-1
 1122 -45 l 2,3,4
 1131 -61 1131 -61 1131 -74 c 0,5,6
 1131 -97 1131 -97 1104 -113 c 2,7,-1
 1056 -141 l 2,8,9
 1041 -150 1041 -150 1028 -150 c 0,10,11
 1004 -150 1004 -150 988 -122 c 2,12,-1
 19 1557 l 2,13,14
 10 1573 10 1573 10 1586 c 0,15,16
 10 1609 10 1609 37 1625 c 2,17,-1
 85 1653 l 2,18,19
 100 1662 100 1662 114 1662 c 0,0,1
EndSplineSet
Validated: 1
EndChar

StartChar: bracketright
Encoding: 93 93 61
Width: 765
GlyphClass: 2
Flags: MW
LayerCount: 2
Fore
SplineSet
465 1710 m 2,0,1
 515 1710 515 1710 515 1660 c 2,2,-1
 515 -155 l 2,3,4
 515 -205 515 -205 465 -205 c 2,5,-1
 75 -205 l 2,6,7
 50 -205 50 -205 50 -180 c 2,8,-1
 50 -130 l 2,9,10
 50 -105 50 -105 75 -105 c 2,11,-1
 335 -105 l 1,12,-1
 335 1610 l 1,13,-1
 75 1610 l 2,14,15
 50 1610 50 1610 50 1635 c 2,16,-1
 50 1685 l 2,17,18
 50 1710 50 1710 75 1710 c 2,19,-1
 465 1710 l 2,0,1
EndSplineSet
Validated: 1
EndChar

StartChar: asciicircum
Encoding: 94 94 62
Width: 685
GlyphClass: 2
Flags: MW
LayerCount: 2
Fore
SplineSet
335 1530 m 2,0,1
 376 1530 l 2,2,3
 418 1530 418 1530 446 1480 c 2,4,-1
 626 1153 l 2,5,6
 635 1137 635 1137 635 1124 c 0,7,8
 635 1100 635 1100 608 1085 c 2,9,-1
 546 1050 l 2,10,11
 528 1040 528 1040 516 1040 c 0,12,13
 493 1040 493 1040 478 1068 c 2,14,15
 321 1355 l 1,16,-1
 152 1059 l 2,17,18
 141 1040 141 1040 126 1040 c 0,19,20
 115 1040 115 1040 105 1046 c 2,21,-1
 69 1067 l 2,22,23
 50 1078 50 1078 50 1093 c 0,24,25
 50 1103 50 1103 56 1114 c 2,26,-1
 265 1480 l 2,27,28
 294 1530 294 1530 335 1530 c 2,0,1
EndSplineSet
Validated: 1
EndChar

StartChar: underscore
Encoding: 95 95 63
Width: 1233
GlyphClass: 2
Flags: MW
LayerCount: 2
Fore
SplineSet
190 -87 m 2,0,-1
 1043 -87 l 2,1,2
 1083 -87 1083 -87 1083 -127 c 2,3,4
 1083 -160 l 2,5,6
 1083 -200 1083 -200 1043 -200 c 2,7,-1
 190 -200 l 2,8,9
 150 -200 150 -200 150 -160 c 2,10,-1
 150 -127 l 2,11,12
 150 -87 150 -87 190 -87 c 2,0,-1
EndSplineSet
Validated: 1
EndChar

StartChar: grave
Encoding: 96 96 64
Width: 436
GlyphClass: 2
Flags: MW
LayerCount: 2
Fore
SplineSet
143 1484 m 0,0,1
 196 1484 196 1484 224 1439 c 2,2,-1
 386 1178 l 1,3,-1
 370 1160 l 1,4,-1
 93 1316 l 2,5,6
 50 1340 50 1340 50 1391 c 0,7,8
 50 1428 50 1428 75 1456 c 128,-1,9
 100 1484 100 1484 143 1484 c 0,0,1
EndSplineSet
Validated: 1
EndChar

StartChar: a
Encoding: 97 97 65
Width: 1199
GlyphClass: 2
Flags: MW
LayerCount: 2
Fore
SplineSet
597 55 m 0,0,1
 683 55 683 55 735 114 c 0,2,3
 799 186 799 186 799 319 c 2,4,-1
 799 781 l 2,5,6
 799 914 799 914 735 986 c 0,7,8
 683 1045 683 1045 597 1045 c 0,9,10
 455 1045 455 1045 372 892 c 0,11,12
 310 777 310 777 310 550 c 128,-1,13
 310 323 310 323 372 208 c 0,14,15
 455 55 455 55 597 55 c 0,0,1
565 -20 m 0,16,17
 384 -20 384 -20 239 144 c 0,18,19
 110 290 110 290 110 549 c 0,20,21
 110 794 110 794 239 956 c 0,22,23
 370 1120 370 1120 565 1120 c 0,24,25
 728 1120 728 1120 799 1006 c 1,26,-1
 799 1050 l 2,27,28
 799 1100 799 1100 849 1100 c 2,29,-1
 929 1100 l 2,30,31
 979 1100 979 1100 979 1050 c 2,32,-1
 979 200 l 2,33,34
 979 87 979 87 1063 87 c 0,35,36
 1145 87 1145 87 1174 200 c 1,37,-1
 1189 200 l 1,38,39
 1189 128 1189 128 1153 71 c 0,40,41
 1096 -20 1096 -20 989 -20 c 0,42,43
 877 -20 877 -20 829 72 c 0,44,45
 818 93 818 93 812 116 c 1,46,47
 743 -20 743 -20 565 -20 c 0,16,17
EndSplineSet
Validated: 1
EndChar

StartChar: c
Encoding: 99 99 66
Width: 1078
GlyphClass: 2
Flags: MW
LayerCount: 2
Fore
SplineSet
604 -20 m 0,0,1
 404 -20 404 -20 270 116 c 0,2,3
 110 279 110 279 110 550 c 0,4,5
 110 836 110 836 270 984 c 0,6,7
 416 1120 416 1120 614 1120 c 0,8,9
 844 1120 844 1120 947 915 c 0,10,11
 968 873 968 873 968 818 c 128,-1,12
 968 763 968 763 930.5 724.5 c 128,-1,13
 893 686 893 686 839 686 c 128,-1,14
 785 686 785 686 747 724.5 c 128,-1,15
 709 763 709 763 709 818 c 128,-1,16
 709 873 709 873 747 911.5 c 128,-1,17
 785 950 785 950 839 950 c 2,18,-1
 848 950 l 1,19,20
 750 1045 750 1045 640 1045 c 0,21,22
 467 1045 467 1045 382 899 c 0,23,24
 315 784 315 784 315 550 c 0,25,26
 315 313 315 313 382 201 c 0,27,28
 468 55 468 55 650 55 c 0,29,30
 795 55 795 55 887 168 c 0,31,32
 910 196 910 196 931 229 c 1,33,-1
 946 229 l 1,34,35
 946 116 l 1,36,37
 816 -20 816 -20 604 -20 c 0,0,1
EndSplineSet
Validated: 1
EndChar

StartChar: d
Encoding: 100 100 67
Width: 1199
GlyphClass: 2
Flags: MW
LayerCount: 2
Fore
SplineSet
597 55 m 0,0,1
 683 55 683 55 735 114 c 0,2,3
 799 186 799 186 799 319 c 2,4,-1
 799 781 l 2,5,6
 799 914 799 914 735 986 c 0,7,8
 683 1045 683 1045 597 1045 c 0,9,10
 455 1045 455 1045 372 892 c 0,11,12
 310 777 310 777 310 550 c 128,-1,13
 310 323 310 323 372 208 c 0,14,15
 455 55 455 55 597 55 c 0,0,1
565 -20 m 0,16,17
 383 -20 383 -20 239 144 c 0,18,19
 110 291 110 291 110 549 c 0,20,21
 110 797 110 797 239 956 c 0,22,23
 372 1120 372 1120 565 1120 c 0,24,25
 728 1120 728 1120 799 1006 c 1,26,-1
 799 1310 l 2,27,28
 799 1423 799 1423 715 1423 c 0,29,30
 633 1423 633 1423 604 1310 c 1,31,-1
 589 1310 l 1,32,33
 589 1382 589 1382 625 1439 c 0,34,35
 682 1530 682 1530 789 1530 c 128,-1,36
 896 1530 896 1530 949 1438 c 0,37,38
 979 1383 979 1383 979 1271 c 2,39,-1
 979 200 l 2,40,41
 979 87 979 87 1063 87 c 0,42,43
 1145 87 1145 87 1174 200 c 1,44,-1
 1189 200 l 1,45,46
 1189 128 1189 128 1153 71 c 0,47,48
 1096 -20 1096 -20 989 -20 c 0,49,50
 877 -20 877 -20 829 72 c 0,51,52
 818 93 818 93 812 116 c 1,53,54
 743 -20 743 -20 565 -20 c 0,16,17
EndSplineSet
Validated: 1
EndChar

StartChar: e
Encoding: 101 101 68
Width: 1138
GlyphClass: 2
Flags: MW
LayerCount: 2
Fore
SplineSet
604 -20 m 0,0,1
 404 -20 404 -20 270 116 c 0,2,3
 110 279 110 279 110 550 c 0,4,5
 110 817 110 817 270 984 c 0,6,7
 400 1120 400 1120 590 1120 c 0,8,9
 784 1120 784 1120 911 990 c 0,10,11
 1028 871 1028 871 1028 714 c 0,12,13
 1028 556 1028 556 868 504 c 2,14,-1
 332 329 l 1,15,16
 349 252 349 252 379 201 c 0,17,18
 465 55 465 55 650 55 c 0,19,20
 795 55 795 55 887 168 c 0,21,22
 910 196 910 196 931 229 c 1,23,-1
 946 229 l 1,24,-1
 946 116 l 1,25,26
 816 -20 816 -20 604 -20 c 0,0,1
318 419 m 1,27,-1
 713 550 l 2,28,29
 835 590 835 590 835 701 c 0,30,31
 835 814 835 814 793 903 c 0,32,33
 721 1055 721 1055 586 1055 c 0,34,35
 446 1055 446 1055 374 902 c 0,36,37
 312 771 312 771 312 550 c 0,38,39
 312 471 312 471 318 419 c 1,27,-1
EndSplineSet
Validated: 1
EndChar

StartChar: f
Encoding: 102 102 69
Width: 979
GlyphClass: 2
Flags: MW
LayerCount: 2
Fore
SplineSet
210 -430 m 128,-1,1
 103 -430 103 -430 46 -339 c 0,2,3
 10 -282 10 -282 10 -210 c 1,4,-1
 25 -210 l 1,5,6
 54 -323 54 -323 136 -323 c 0,7,8
 220 -323 220 -323 220 -210 c 2,9,-1
 220 600 l 1,10,-1
 89 600 l 2,11,12
 59 600 59 600 59 630 c 2,13,-1
 59 660 l 2,14,15
 59 690 59 690 89 690 c 2,16,-1
 220 690 l 1,17,-1
 220 1132 l 2,18,19
 220 1307 220 1307 338 1426 c 0,20,21
 441 1530 441 1530 619 1530 c 0,22,23
 778 1530 778 1530 869 1423 c 0,24,25
 949 1328 949 1328 949 1238 c 0,26,27
 949 1177 949 1177 915 1142 c 0,28,29
 874 1100 874 1100 820 1100 c 128,-1,30
 766 1100 766 1100 728 1138.5 c 128,-1,31
 690 1177 690 1177 690 1232 c 128,-1,32
 690 1287 690 1287 728 1325.5 c 128,-1,33
 766 1364 766 1364 820 1364 c 2,34,-1
 829 1364 l 1,35,36
 771 1460 771 1460 649 1460 c 0,37,38
 532 1460 532 1460 464 1380 c 0,39,40
 400 1305 400 1305 400 1132 c 2,41,-1
 400 690 l 1,42,-1
 689 690 l 2,43,44
 719 690 719 690 719 660 c 2,45,-1
 719 630 l 2,46,47
 719 600 719 600 689 600 c 2,48,-1
 400 600 l 1,49,-1
 400 -171 l 2,50,51
 400 -286 400 -286 370 -338 c 0,52,0
 317 -430 317 -430 210 -430 c 128,-1,1
EndSplineSet
Validated: 1
EndChar

StartChar: h
Encoding: 104 104 70
Width: 1270
GlyphClass: 2
Flags: MW
LayerCount: 2
Fore
SplineSet
270 0 m 2,0,1
 220 0 220 0 220 50 c 2,2,-1
 220 1310 l 2,3,4
 220 1423 220 1423 136 1423 c 0,5,6
 54 1423 54 1423 25 1310 c 1,7,-1
 10 1310 l 1,8,9
 10 1382 10 1382 46 1439 c 0,10,11
 103 1530 103 1530 210 1530 c 128,-1,12
 317 1530 317 1530 370 1438 c 0,13,14
 400 1383 400 1383 400 1271 c 2,15,-1
 400 908 l 1,16,17
 428 981 428 981 483 1034 c 0,18,19
 572 1120 572 1120 710 1120 c 0,20,21
 876 1120 876 1120 975 986 c 0,22,23
 1050 885 1050 885 1050 710 c 2,24,-1
 1050 200 l 2,25,26
 1050 87 1050 87 1134 87 c 0,27,28
 1216 87 1216 87 1245 200 c 1,29,-1
 1260 200 l 1,30,31
 1260 128 1260 128 1224 71 c 0,32,33
 1167 -20 1167 -20 1060 -20 c 128,-1,34
 953 -20 953 -20 900 72 c 0,35,36
 870 127 870 127 870 239 c 2,37,-1
 870 710 l 2,38,39
 870 821 870 821 833 890 c 0,40,41
 769 1009 769 1009 635 1009 c 128,-1,42
 501 1009 501 1009 437 890 c 0,43,44
 400 821 400 821 400 710 c 2,45,-1
 400 50 l 2,46,47
 400 0 400 0 350 0 c 2,48,-1
 270 0 l 2,0,1
EndSplineSet
Validated: 1
EndChar

StartChar: i
Encoding: 105 105 71
Width: 620
GlyphClass: 2
Flags: MW
LayerCount: 2
Fore
SplineSet
410 -20 m 128,-1,1
 303 -20 303 -20 250 72 c 0,2,3
 220 127 220 127 220 239 c 2,4,-1
 220 900 l 2,5,6
 220 1013 220 1013 136 1013 c 0,7,8
 54 1013 54 1013 25 900 c 1,9,-1
 10 900 l 1,10,11
 10 972 10 972 46 1029 c 0,12,13
 103 1120 103 1120 210 1120 c 0,14,15
 318 1120 318 1120 370 1028 c 0,16,17
 400 973 400 973 400 861 c 2,18,-1
 400 200 l 2,19,20
 400 87 400 87 484 87 c 0,21,22
 566 87 566 87 595 200 c 1,23,-1
 610 200 l 1,24,25
 610 128 610 128 574 71 c 0,26,27
 517 -20 517 -20 410 -20 c 128,-1,1
140 1312.5 m 128,-1,29
 140 1368 140 1368 178 1406 c 128,-1,30
 216 1444 216 1444 270 1444 c 128,-1,31
 324 1444 324 1444 362 1406 c 128,-1,32
 400 1368 400 1368 400 1312.5 c 128,-1,33
 400 1257 400 1257 362 1218.5 c 128,-1,34
 324 1180 324 1180 270 1180 c 128,-1,35
 216 1180 216 1180 178 1218.5 c 128,-1,28
 140 1257 140 1257 140 1312.5 c 128,-1,29
EndSplineSet
Validated: 1
EndChar

StartChar: j
Encoding: 106 106 72
Width: 620
GlyphClass: 2
Flags: MW
LayerCount: 2
Fore
SplineSet
140 1312.5 m 128,-1,1
 140 1368 140 1368 178 1406 c 128,-1,2
 216 1444 216 1444 270 1444 c 128,-1,3
 324 1444 324 1444 362 1406 c 128,-1,4
 400 1368 400 1368 400 1312.5 c 128,-1,5
 400 1257 400 1257 362 1218.5 c 128,-1,6
 324 1180 324 1180 270 1180 c 128,-1,7
 216 1180 216 1180 178 1218.5 c 128,-1,0
 140 1257 140 1257 140 1312.5 c 128,-1,1
30 -430 m 1,8,-1
 30 -415 l 1,9,10
 220 -300 220 -300 220 0 c 2,11,-1
 220 900 l 2,12,13
 220 1013 220 1013 136 1013 c 0,14,15
 54 1013 54 1013 25 900 c 1,16,-1
 10 900 l 1,17,18
 10 972 10 972 46 1029 c 0,19,20
 103 1120 103 1120 210 1120 c 128,-1,21
 317 1120 317 1120 370 1028 c 0,22,23
 400 973 400 973 400 861 c 2,24,-1
 400 0 l 2,25,26
 400 -347 400 -347 30 -430 c 1,8,-1
EndSplineSet
Validated: 1
EndChar

StartChar: l
Encoding: 108 108 73
Width: 620
GlyphClass: 2
Flags: MW
LayerCount: 2
Fore
SplineSet
410 -20 m 128,-1,1
 303 -20 303 -20 250 72 c 0,2,3
 220 127 220 127 220 239 c 2,4,-1
 220 1310 l 2,5,6
 220 1423 220 1423 136 1423 c 0,7,8
 54 1423 54 1423 25 1310 c 1,9,-1
 10 1310 l 1,10,11
 10 1382 10 1382 46 1439 c 0,12,13
 103 1530 103 1530 210 1530 c 128,-1,14
 317 1530 317 1530 370 1438 c 0,15,16
 400 1383 400 1383 400 1271 c 2,17,-1
 400 200 l 2,18,19
 400 87 400 87 484 87 c 0,20,21
 566 87 566 87 595 200 c 1,22,-1
 610 200 l 1,23,24
 610 128 610 128 574 71 c 0,25,0
 517 -20 517 -20 410 -20 c 128,-1,1
EndSplineSet
Validated: 1
EndChar

StartChar: m
Encoding: 109 109 74
Width: 1920
GlyphClass: 2
Flags: MW
LayerCount: 2
Fore
SplineSet
270 0 m 2,0,1
 220 0 220 0 220 50 c 2,2,-1
 220 900 l 2,3,4
 220 1013 220 1013 136 1013 c 0,5,6
 54 1013 54 1013 25 900 c 1,7,-1
 10 900 l 1,8,9
 10 972 10 972 46 1029 c 0,10,11
 103 1120 103 1120 210 1120 c 128,-1,12
 317 1120 317 1120 370 1028 c 0,13,14
 395 984 395 984 400 908 c 1,15,16
 428 981 428 981 483 1034 c 0,17,18
 572 1120 572 1120 710 1120 c 0,19,20
 874 1120 874 1120 975 986 c 0,21,22
 1008 942 1008 942 1028 881 c 1,23,24
 1057 967 1057 967 1129 1034 c 0,25,26
 1223 1120 1223 1120 1360 1120 c 0,27,28
 1526 1120 1526 1120 1625 986 c 0,29,30
 1700 885 1700 885 1700 710 c 2,31,-1
 1700 200 l 2,32,33
 1700 87 1700 87 1784 87 c 0,34,35
 1866 87 1866 87 1895 200 c 1,36,-1
 1910 200 l 1,37,38
 1910 128 1910 128 1874 71 c 0,39,40
 1817 -20 1817 -20 1710 -20 c 128,-1,41
 1603 -20 1603 -20 1550 72 c 0,42,43
 1520 127 1520 127 1520 239 c 2,44,-1
 1520 710 l 2,45,46
 1520 821 1520 821 1483 890 c 0,47,48
 1419 1009 1419 1009 1285 1009 c 128,-1,49
 1151 1009 1151 1009 1087 890 c 0,50,51
 1050 821 1050 821 1050 710 c 2,52,-1
 1050 50 l 2,53,54
 1050 0 1050 0 1000 0 c 2,55,-1
 920 0 l 2,56,57
 870 0 870 0 870 50 c 2,58,-1
 870 710 l 2,59,60
 870 823 870 823 833 890 c 0,61,62
 769 1009 769 1009 635 1009 c 128,-1,63
 501 1009 501 1009 437 890 c 0,64,65
 400 821 400 821 400 710 c 2,66,-1
 400 50 l 2,67,68
 400 0 400 0 350 0 c 2,69,-1
 270 0 l 2,0,1
EndSplineSet
Validated: 1
EndChar

StartChar: n
Encoding: 110 110 75
Width: 1270
GlyphClass: 2
Flags: MW
LayerCount: 2
Fore
SplineSet
270 0 m 2,0,1
 220 0 220 0 220 50 c 2,2,-1
 220 900 l 2,3,4
 220 1013 220 1013 136 1013 c 0,5,6
 54 1013 54 1013 25 900 c 1,7,-1
 10 900 l 1,8,9
 10 972 10 972 46 1029 c 0,10,11
 103 1120 103 1120 210 1120 c 0,12,13
 319 1120 319 1120 370 1028 c 0,14,15
 395 981 395 981 400 908 c 1,16,17
 428 981 428 981 483 1034 c 0,18,19
 572 1120 572 1120 710 1120 c 0,20,21
 876 1120 876 1120 975 986 c 0,22,23
 1050 885 1050 885 1050 710 c 2,24,-1
 1050 200 l 2,25,26
 1050 87 1050 87 1134 87 c 0,27,28
 1216 87 1216 87 1245 200 c 1,29,-1
 1260 200 l 1,30,31
 1260 128 1260 128 1224 71 c 0,32,33
 1167 -20 1167 -20 1060 -20 c 0,34,35
 948 -20 948 -20 900 72 c 0,36,37
 870 129 870 129 870 239 c 2,38,-1
 870 710 l 2,39,40
 870 821 870 821 833 890 c 0,41,42
 769 1009 769 1009 635 1009 c 128,-1,43
 501 1009 501 1009 437 890 c 0,44,45
 400 821 400 821 400 710 c 2,46,-1
 400 50 l 2,47,48
 400 0 400 0 350 0 c 2,49,-1
 270 0 l 2,0,1
EndSplineSet
Validated: 1
EndChar

StartChar: o
Encoding: 111 111 76
Width: 1168
GlyphClass: 2
Flags: MW
LayerCount: 2
Fore
SplineSet
584 45 m 0,0,1
 726 45 726 45 798 198 c 0,2,3
 858 325 858 325 858 550 c 128,-1,4
 858 775 858 775 798 902 c 0,5,6
 726 1055 726 1055 584 1055 c 0,7,8
 444 1055 444 1055 372 902 c 0,9,10
 310 771 310 771 310 550 c 128,-1,11
 310 329 310 329 372 198 c 0,12,13
 444 45 444 45 584 45 c 0,0,1
584 -20 m 0,14,15
 398 -20 398 -20 270 116 c 0,16,17
 110 286 110 286 110 550 c 0,18,19
 110 817 110 817 270 984 c 0,20,21
 400 1120 400 1120 589 1120 c 0,22,23
 768 1120 768 1120 898 984 c 0,24,25
 1058 816 1058 816 1058 550 c 0,26,27
 1058 283 1058 283 898 116 c 0,28,29
 768 -20 768 -20 584 -20 c 0,14,15
EndSplineSet
Validated: 1
EndChar

StartChar: p
Encoding: 112 112 77
Width: 1199
GlyphClass: 2
Flags: MW
LayerCount: 2
Fore
SplineSet
602 55 m 0,0,1
 744 55 744 55 827 208 c 0,2,3
 889 323 889 323 889 550 c 128,-1,4
 889 777 889 777 827 892 c 0,5,6
 744 1045 744 1045 602 1045 c 0,7,8
 516 1045 516 1045 464 986 c 0,9,10
 400 914 400 914 400 781 c 2,11,-1
 400 319 l 2,12,13
 400 186 400 186 464 114 c 0,14,15
 516 55 516 55 602 55 c 0,0,1
634 -20 m 0,16,17
 471 -20 471 -20 400 94 c 1,18,-1
 400 -360 l 2,19,20
 400 -410 400 -410 350 -410 c 2,21,-1
 270 -410 l 2,22,23
 220 -410 220 -410 220 -360 c 2,24,-1
 220 900 l 2,25,26
 220 1013 220 1013 136 1013 c 0,27,28
 54 1013 54 1013 25 900 c 1,29,-1
 10 900 l 1,30,31
 10 972 10 972 46 1029 c 0,32,33
 103 1120 103 1120 210 1120 c 0,34,35
 322 1120 322 1120 370 1028 c 0,36,37
 381 1007 381 1007 387 984 c 1,38,39
 456 1120 456 1120 634 1120 c 0,40,41
 815 1120 815 1120 960 956 c 0,42,43
 1089 810 1089 810 1089 551 c 0,44,45
 1089 306 1089 306 960 144 c 0,46,47
 829 -20 829 -20 634 -20 c 0,16,17
EndSplineSet
Validated: 1
EndChar

StartChar: q
Encoding: 113 113 78
Width: 1199
GlyphClass: 2
Flags: MW
LayerCount: 2
Fore
SplineSet
565 -20 m 0,0,1
 384 -20 384 -20 239 144 c 0,2,3
 110 290 110 290 110 549 c 0,4,5
 110 794 110 794 239 956 c 0,6,7
 370 1120 370 1120 565 1120 c 0,8,9
 728 1120 728 1120 799 1006 c 1,10,-1
 799 1050 l 2,11,12
 799 1100 799 1100 849 1100 c 2,13,-1
 929 1100 l 2,14,15
 979 1100 979 1100 979 1050 c 2,16,-1
 979 -210 l 2,17,18
 979 -323 979 -323 1063 -323 c 0,19,20
 1145 -323 1145 -323 1174 -210 c 1,21,-1
 1189 -210 l 1,22,23
 1189 -282 1189 -282 1153 -339 c 0,24,25
 1096 -430 1096 -430 989 -430 c 0,26,27
 879 -430 879 -430 829 -338 c 0,28,29
 799 -283 799 -283 799 -171 c 2,30,-1
 799 94 l 1,31,32
 733 -20 733 -20 565 -20 c 0,0,1
597 55 m 0,33,34
 683 55 683 55 735 114 c 0,35,36
 799 186 799 186 799 319 c 2,37,-1
 799 781 l 2,38,39
 799 914 799 914 735 986 c 0,40,41
 683 1045 683 1045 597 1045 c 0,42,43
 455 1045 455 1045 372 892 c 0,44,45
 310 777 310 777 310 550 c 128,-1,46
 310 323 310 323 372 208 c 0,47,48
 455 55 455 55 597 55 c 0,33,34
EndSplineSet
Validated: 1
EndChar

StartChar: r
Encoding: 114 114 79
Width: 979
GlyphClass: 2
Flags: MW
LayerCount: 2
Fore
SplineSet
270 0 m 2,0,1
 220 0 220 0 220 50 c 2,2,-1
 220 900 l 2,3,4
 220 1013 220 1013 136 1013 c 0,5,6
 54 1013 54 1013 25 900 c 1,7,-1
 10 900 l 1,8,9
 10 972 10 972 46 1029 c 0,10,11
 103 1120 103 1120 210 1120 c 0,12,13
 311 1120 311 1120 363 1039 c 1,14,15
 462 1120 462 1120 619 1120 c 0,16,17
 778 1120 778 1120 869 1013 c 0,18,19
 949 918 949 918 949 828 c 0,20,21
 949 767 949 767 915 732 c 0,22,23
 874 690 874 690 820 690 c 128,-1,24
 766 690 766 690 728 728.5 c 128,-1,25
 690 767 690 767 690 822 c 128,-1,26
 690 877 690 877 728 915.5 c 128,-1,27
 766 954 766 954 820 954 c 2,28,-1
 829 954 l 1,29,30
 771 1050 771 1050 649 1050 c 0,31,32
 532 1050 532 1050 464 970 c 0,33,34
 400 895 400 895 400 722 c 2,35,-1
 400 50 l 2,36,37
 400 0 400 0 350 0 c 2,38,-1
 270 0 l 2,0,1
EndSplineSet
Validated: 1
EndChar

StartChar: s
Encoding: 115 115 80
Width: 1020
GlyphClass: 2
Flags: MW
LayerCount: 2
Fore
SplineSet
496 -20 m 0,0,1
 290 -20 290 -20 178 117 c 0,2,3
 110 199 110 199 110 280 c 0,4,5
 110 350 110 350 154 392 c 0,6,7
 193 430 193 430 250 430 c 0,8,9
 302 430 302 430 340 399 c 0,10,11
 383 364 383 364 383 307 c 0,12,13
 383 254 383 254 348 218 c 0,14,15
 304 174 304 174 222 174 c 1,16,17
 311 63 311 63 482 63 c 0,18,19
 594 63 594 63 666 124 c 0,20,21
 740 187 740 187 740 287 c 0,22,23
 740 411 740 411 595 479 c 2,24,-1
 425 559 l 2,25,26
 207 662 207 662 207 835 c 0,27,28
 207 967 207 967 319 1056 c 0,29,30
 400 1120 400 1120 537 1120 c 0,31,32
 694 1120 694 1120 778 1021 c 0,33,34
 827 963 827 963 827 895 c 0,35,36
 827 826 827 826 783 784 c 0,37,38
 744 746 744 746 687 746 c 0,39,40
 635 746 635 746 597 777 c 0,41,42
 554 812 554 812 554 869 c 0,43,44
 554 924 554 924 589 958 c 0,45,46
 634 1003 634 1003 707 1003 c 1,47,48
 649 1047 649 1047 566 1047 c 0,49,50
 479 1047 479 1047 425 1001 c 0,51,52
 365 950 365 950 365 872 c 0,53,54
 365 770 365 770 508 704 c 2,55,-1
 663 633 l 2,56,57
 910 520 910 520 910 326 c 0,58,59
 910 167 910 167 784 72 c 0,60,61
 663 -20 663 -20 496 -20 c 0,0,1
EndSplineSet
Validated: 1
EndChar

StartChar: t
Encoding: 116 116 81
Width: 700
GlyphClass: 2
Flags: MW
LayerCount: 2
Fore
SplineSet
450 -20 m 128,-1,1
 343 -20 343 -20 290 72 c 0,2,3
 260 127 260 127 260 239 c 2,4,-1
 260 1010 l 1,5,-1
 50 1010 l 2,6,7
 20 1010 20 1010 20 1040 c 2,8,-1
 20 1070 l 2,9,10
 20 1100 20 1100 50 1100 c 2,11,-1
 260 1100 l 1,12,-1
 260 1310 l 2,13,14
 260 1423 260 1423 176 1423 c 0,15,16
 94 1423 94 1423 65 1310 c 1,17,-1
 50 1310 l 1,18,19
 50 1382 50 1382 86 1439 c 0,20,21
 143 1530 143 1530 250 1530 c 128,-1,22
 357 1530 357 1530 410 1438 c 0,23,24
 440 1383 440 1383 440 1271 c 2,25,-1
 440 1100 l 1,26,-1
 650 1100 l 2,27,28
 680 1100 680 1100 680 1070 c 2,29,-1
 680 1040 l 2,30,31
 680 1010 680 1010 650 1010 c 2,32,-1
 440 1010 l 1,33,-1
 440 200 l 2,34,35
 440 87 440 87 524 87 c 0,36,37
 606 87 606 87 635 200 c 1,38,-1
 650 200 l 1,39,40
 650 128 650 128 614 71 c 0,41,0
 557 -20 557 -20 450 -20 c 128,-1,1
EndSplineSet
Validated: 1
EndChar

StartChar: u
Encoding: 117 117 82
Width: 1270
GlyphClass: 2
Flags: MW
LayerCount: 2
Fore
SplineSet
560 -20 m 0,0,1
 394 -20 394 -20 295 114 c 0,2,3
 220 215 220 215 220 390 c 2,4,-1
 220 900 l 2,5,6
 220 1013 220 1013 136 1013 c 0,7,8
 54 1013 54 1013 25 900 c 1,9,-1
 10 900 l 1,10,11
 10 972 10 972 46 1029 c 0,12,13
 103 1120 103 1120 210 1120 c 0,14,15
 318 1120 318 1120 370 1028 c 0,16,17
 400 973 400 973 400 861 c 2,18,-1
 400 390 l 2,19,20
 400 279 400 279 437 210 c 0,21,22
 501 91 501 91 635 91 c 128,-1,23
 769 91 769 91 833 210 c 0,24,25
 870 279 870 279 870 390 c 2,26,-1
 870 1050 l 2,27,28
 870 1100 870 1100 920 1100 c 2,29,-1
 1000 1100 l 2,30,31
 1050 1100 1050 1100 1050 1050 c 2,32,-1
 1050 200 l 2,33,34
 1050 87 1050 87 1134 87 c 0,35,36
 1216 87 1216 87 1245 200 c 1,37,-1
 1260 200 l 1,38,39
 1260 128 1260 128 1224 71 c 0,40,41
 1167 -20 1167 -20 1060 -20 c 0,42,43
 951 -20 951 -20 900 72 c 0,44,45
 875 119 875 119 870 192 c 1,46,47
 842 119 842 119 787 66 c 0,48,49
 698 -20 698 -20 560 -20 c 0,0,1
EndSplineSet
Validated: 1
EndChar

StartChar: braceleft
Encoding: 123 123 83
Width: 733
GlyphClass: 2
Flags: MW
LayerCount: 2
Fore
SplineSet
658 -200 m 16,0,1
 478 -200 478 -200 374 -99 c 0,2,3
 250 22 250 22 250 214 c 2,4,-1
 250 482 l 2,5,6
 250 693 250 693 50 755 c 1,7,8
 250 815 250 815 250 1028 c 2,9,-1
 250 1296 l 2,10,11
 250 1485 250 1485 374 1609 c 0,12,13
 475 1710 475 1710 658 1710 c 8,14,15
 683 1710 683 1710 683 1685 c 2,16,-1
 683 1653 l 2,17,18
 683 1628 683 1628 658 1628 c 16,19,20
 565 1628 565 1628 504 1574 c 0,21,22
 430 1510 430 1510 430 1301 c 2,23,-1
 430 1027 l 2,24,25
 430 806 430 806 227 755 c 1,26,27
 430 697 430 697 430 483 c 2,28,-1
 430 209 l 2,29,30
 430 0 430 0 504 -64 c 0,31,32
 565 -118 565 -118 658 -118 c 8,33,34
 683 -118 683 -118 683 -143 c 2,35,-1
 683 -175 l 2,36,37
 683 -200 683 -200 658 -200 c 16,0,1
EndSplineSet
Validated: 1
EndChar

StartChar: bar
Encoding: 124 124 84
Width: 655
GlyphClass: 2
Flags: MW
LayerCount: 2
Fore
SplineSet
300 1660 m 2,0,-1
 355 1660 l 2,1,2
 405 1660 405 1660 405 1610 c 2,3,-1
 405 -100 l 2,4,5
 405 -150 405 -150 355 -150 c 2,6,-1
 300 -150 l 2,7,8
 250 -150 250 -150 250 -100 c 2,9,-1
 250 1610 l 2,10,11
 250 1660 250 1660 300 1660 c 2,0,-1
EndSplineSet
Validated: 1
EndChar

StartChar: braceright
Encoding: 125 125 85
Width: 733
GlyphClass: 2
Flags: MW
LayerCount: 2
Fore
SplineSet
75 -200 m 8,0,1
 50 -200 50 -200 50 -175 c 2,2,-1
 50 -143 l 2,3,4
 50 -118 50 -118 75 -118 c 16,5,6
 168 -118 168 -118 229 -64 c 0,7,8
 303 0 303 0 303 209 c 2,9,-1
 303 483 l 2,10,11
 303 697 303 697 506 755 c 1,12,13
 303 806 303 806 303 1027 c 2,14,-1
 303 1301 l 2,15,16
 303 1510 303 1510 229 1574 c 0,17,18
 168 1628 168 1628 75 1628 c 8,19,20
 50 1628 50 1628 50 1653 c 2,21,-1
 50 1685 l 2,22,23
 50 1710 50 1710 75 1710 c 16,24,25
 258 1710 258 1710 359 1609 c 0,26,27
 483 1485 483 1485 483 1296 c 2,28,-1
 483 1028 l 2,29,30
 483 815 483 815 683 755 c 1,31,32
 483 693 483 693 483 482 c 2,33,-1
 483 214 l 2,34,35
 483 22 483 22 359 -99 c 0,36,37
 255 -200 255 -200 75 -200 c 8,0,1
EndSplineSet
Validated: 1
EndChar

StartChar: asciitilde
Encoding: 126 126 86
Width: 1193
GlyphClass: 2
Flags: MW
LayerCount: 2
Fore
SplineSet
392 911 m 0,0,1
 449 911 449 911 522 879 c 2,2,-1
 766 772 l 2,3,4
 818 749 818 749 851 749 c 0,5,6
 966 749 966 749 1024 885 c 1,7,-1
 1043 885 l 1,8,9
 1023 598 1023 598 802 598 c 0,10,11
 745 598 745 598 672 630 c 2,12,-1
 428 737 l 2,13,14
 376 760 376 760 342 760 c 0,15,16
 228 760 228 760 170 624 c 1,17,-1
 150 624 l 1,18,19
 168 911 168 911 392 911 c 0,0,1
EndSplineSet
Validated: 1
EndChar

StartChar: exclamdown
Encoding: 161 161 88
Width: 659
GlyphClass: 2
Flags: MW
LayerCount: 2
Fore
SplineSet
329 1120 m 128,-1,1
 383 1120 383 1120 421 1081.5 c 128,-1,2
 459 1043 459 1043 459 988 c 128,-1,3
 459 933 459 933 421 894.5 c 128,-1,4
 383 856 383 856 329 856 c 128,-1,5
 275 856 275 856 237.5 894.5 c 128,-1,6
 200 933 200 933 200 988 c 128,-1,7
 200 1043 200 1043 237.5 1081.5 c 128,-1,0
 275 1120 275 1120 329 1120 c 128,-1,1
329 -430 m 128,-1,9
 275 -430 275 -430 237.5 -392 c 128,-1,10
 200 -354 200 -354 200 -298 c 0,11,-1
 201 -276 l 2,12,-1
 279 750 l 2,13,14
 279 780 279 780 309 780 c 2,15,-1
 351 780 l 2,16,17
 381 780 381 780 381 750 c 2,18,-1
 458 -276 l 2,19,20
 459 -289 459 -289 459 -298 c 0,21,22
 459 -353 459 -353 421 -391.5 c 128,-1,8
 383 -430 383 -430 329 -430 c 128,-1,9
EndSplineSet
Validated: 1
EndChar

StartChar: cent
Encoding: 162 162 89
Width: 1078
GlyphClass: 2
Flags: MW
LayerCount: 2
Fore
SplineSet
628 -20 m 1,0,-1
 628 -110 l 2,1,2
 628 -150 628 -150 588 -150 c 2,3,-1
 568 -150 l 2,4,5
 528 -150 528 -150 528 -110 c 2,6,-1
 528 -15 l 1,7,8
 378 6 378 6 270 116 c 0,9,10
 110 279 110 279 110 550 c 0,11,12
 110 834 110 834 270 984 c 0,13,14
 383 1090 383 1090 528 1113 c 1,15,-1
 528 1210 l 2,16,17
 528 1250 528 1250 568 1250 c 2,18,-1
 588 1250 l 2,19,20
 628 1250 628 1250 628 1210 c 2,21,-1
 628 1120 l 1,22,23
 847 1114 847 1114 947 915 c 0,24,25
 968 873 968 873 968 818 c 128,-1,26
 968 763 968 763 930.5 724.5 c 128,-1,27
 893 686 893 686 839 686 c 128,-1,28
 785 686 785 686 747 724.5 c 128,-1,29
 709 763 709 763 709 818 c 128,-1,30
 709 873 709 873 747 911.5 c 128,-1,31
 785 950 785 950 839 950 c 2,32,-1
 848 950 l 1,33,34
 759 1045 759 1045 628 1045 c 1,35,-1
 628 56 l 1,36,37
 639 55 639 55 650 55 c 0,38,39
 795 55 795 55 887 168 c 0,40,41
 910 196 910 196 931 229 c 1,42,-1
 946 229 l 1,43,-1
 946 116 l 1,44,45
 823 -12 823 -12 628 -20 c 1,0,-1
528 75 m 1,46,-1
 528 1027 l 1,47,48
 437 994 437 994 382 899 c 0,49,50
 315 784 315 784 315 550 c 0,51,52
 315 313 315 313 382 201 c 0,53,54
 436 109 436 109 528 75 c 1,46,-1
EndSplineSet
Validated: 1
EndChar

StartChar: sterling
Encoding: 163 163 90
Width: 1218
GlyphClass: 2
Flags: MW
LayerCount: 2
Fore
SplineSet
230 -20 m 0,0,1
 123 -20 123 -20 66 71 c 0,2,3
 30 128 30 128 30 200 c 1,4,-1
 45 200 l 1,5,6
 74 87 74 87 156 87 c 0,7,8
 240 87 240 87 240 200 c 2,9,-1
 240 600 l 1,10,-1
 89 600 l 2,11,12
 59 600 59 600 59 630 c 2,13,-1
 59 660 l 2,14,15
 59 690 59 690 89 690 c 2,16,-1
 240 690 l 1,17,-1
 240 960 l 2,18,19
 240 1246 240 1246 400 1394 c 0,20,21
 546 1530 546 1530 744 1530 c 0,22,23
 974 1530 974 1530 1077 1325 c 0,24,25
 1098 1283 1098 1283 1098 1228 c 128,-1,26
 1098 1173 1098 1173 1060.5 1134.5 c 128,-1,27
 1023 1096 1023 1096 969 1096 c 128,-1,28
 915 1096 915 1096 877 1134.5 c 128,-1,29
 839 1173 839 1173 839 1228 c 128,-1,30
 839 1283 839 1283 877 1321.5 c 128,-1,31
 915 1360 915 1360 969 1360 c 2,32,-1
 978 1360 l 1,33,34
 880 1455 880 1455 770 1455 c 0,35,36
 597 1455 597 1455 512 1309 c 0,37,38
 440 1184 440 1184 440 960 c 2,39,-1
 440 690 l 1,40,-1
 689 690 l 2,41,42
 719 690 719 690 719 660 c 2,43,-1
 719 630 l 2,44,45
 719 600 719 600 689 600 c 2,46,-1
 440 600 l 1,47,-1
 440 239 l 2,48,49
 440 159 440 159 418 106 c 1,50,51
 469 117 469 117 532 117 c 0,52,53
 644 117 644 117 732 85 c 0,54,55
 818 54 818 54 901 54 c 0,56,57
 1008 54 1008 54 1048 104 c 1,58,59
 1002 104 1002 104 970 131 c 0,60,61
 928 168 928 168 928 221 c 0,62,63
 928 276 928 276 966 315 c 0,64,65
 1002 352 1002 352 1058 352 c 0,66,67
 1112 352 1112 352 1150 314 c 0,68,69
 1188 275 1188 275 1188 213 c 0,70,71
 1188 104 1188 104 1112 41 c 0,72,73
 1038 -20 1038 -20 909 -20 c 0,74,75
 828 -20 828 -20 682 15 c 0,76,77
 596 36 596 36 515 36 c 0,78,79
 448 36 448 36 374 8 c 128,-1,80
 300 -20 300 -20 230 -20 c 0,0,1
EndSplineSet
Validated: 1
EndChar

StartChar: currency
Encoding: 164 164 91
Width: 1522
GlyphClass: 2
Flags: MW
LayerCount: 2
Fore
SplineSet
761 282 m 128,-1,1
 906 282 906 282 990 404 c 0,2,3
 1072 523 1072 523 1072 761 c 128,-1,4
 1072 999 1072 999 990 1118 c 0,5,6
 906 1240 906 1240 761 1240 c 0,7,8
 617 1240 617 1240 532 1118 c 0,9,10
 450 1000 450 1000 450 761 c 128,-1,11
 450 522 450 522 532 404 c 0,12,0
 616 282 616 282 761 282 c 128,-1,1
762 1331 m 0,13,14
 957 1331 957 1331 1110 1192 c 9,15,-1
 1216 1299 l 1,16,-1
 1322 1193 l 1,17,-1
 1205 1075 l 1,18,19
 1282 944 1282 944 1282 761 c 0,20,21
 1282 557 1282 557 1187 418 c 1,22,-1
 1322 283 l 1,23,-1
 1216 177 l 1,24,-1
 1085 308 l 1,25,26
 943 191 943 191 761 191 c 128,-1,27
 579 191 579 191 437 308 c 1,28,-1
 306 177 l 1,29,-1
 200 283 l 1,30,-1
 335 418 l 1,31,32
 240 557 240 557 240 761 c 0,33,34
 240 944 240 944 317 1075 c 1,35,-1
 200 1193 l 1,36,-1
 306 1299 l 1,37,-1
 412 1192 l 17,38,39
 565 1331 565 1331 762 1331 c 0,13,14
EndSplineSet
Validated: 1
EndChar

StartChar: brokenbar
Encoding: 166 166 92
Width: 655
GlyphClass: 2
Flags: MW
LayerCount: 2
Fore
SplineSet
300 -150 m 2,0,1
 250 -150 250 -150 250 -100 c 2,2,-1
 250 610 l 2,3,4
 250 660 250 660 300 660 c 2,5,-1
 355 660 l 2,6,7
 405 660 405 660 405 610 c 2,8,-1
 405 -100 l 2,9,10
 405 -150 405 -150 355 -150 c 2,11,-1
 300 -150 l 2,0,1
300 1660 m 2,12,-1
 355 1660 l 2,13,14
 405 1660 405 1660 405 1610 c 2,15,-1
 405 900 l 2,16,17
 405 850 405 850 355 850 c 2,18,-1
 300 850 l 2,19,20
 250 850 250 850 250 900 c 2,21,-1
 250 1610 l 2,22,23
 250 1660 250 1660 300 1660 c 2,12,-1
EndSplineSet
Validated: 1
EndChar

StartChar: section
Encoding: 167 167 93
Width: 1142
GlyphClass: 2
Flags: MW
LayerCount: 2
Fore
SplineSet
550 -20 m 0,0,1
 393 -20 393 -20 309 79 c 0,2,3
 260 137 260 137 260 205 c 0,4,5
 260 274 260 274 304 316 c 0,6,7
 343 354 343 354 400 354 c 0,8,9
 452 354 452 354 490 323 c 0,10,11
 533 288 533 288 533 231 c 0,12,13
 533 176 533 176 498 142 c 0,14,15
 467 111 467 111 409 107 c 1,16,17
 448 63 448 63 552 63 c 0,18,19
 616 63 616 63 662 94 c 0,20,21
 721 134 721 134 721 199 c 0,22,23
 721 313 721 313 573 379 c 2,24,-1
 418 448 l 2,25,26
 150 567 150 567 150 759 c 0,27,28
 150 913 150 913 278 1022 c 1,29,-1
 394 959 l 1,30,31
 315 896 315 896 315 796 c 0,32,33
 315 676 315 676 484 598 c 2,34,-1
 654 520 l 2,35,36
 869 421 869 421 869 240 c 0,37,38
 869 120 869 120 773 43 c 0,39,40
 693 -20 693 -20 550 -20 c 0,0,1
592 1530 m 0,41,42
 749 1530 749 1530 833 1431 c 0,43,44
 882 1373 882 1373 882 1305 c 0,45,46
 882 1236 882 1236 838 1194 c 0,47,48
 799 1156 799 1156 742 1156 c 0,49,50
 690 1156 690 1156 652 1187 c 0,51,52
 609 1222 609 1222 609 1279 c 0,53,54
 609 1334 609 1334 644 1368 c 0,55,56
 675 1399 675 1399 733 1403 c 1,57,58
 694 1447 694 1447 590 1447 c 0,59,60
 526 1447 526 1447 480 1416 c 0,61,62
 421 1376 421 1376 421 1311 c 0,63,64
 421 1197 421 1197 569 1131 c 2,65,-1
 724 1062 l 2,66,67
 992 943 992 943 992 751 c 0,68,69
 992 597 992 597 864 488 c 1,70,-1
 748 551 l 1,71,72
 827 614 827 614 827 714 c 0,73,74
 827 834 827 834 658 912 c 2,75,-1
 488 990 l 2,76,77
 273 1089 273 1089 273 1270 c 0,78,79
 273 1390 273 1390 369 1467 c 0,80,81
 449 1530 449 1530 592 1530 c 0,41,42
EndSplineSet
Validated: 1
EndChar

StartChar: dieresis
Encoding: 168 168 94
Width: 636
GlyphClass: 2
Flags: MW
LayerCount: 2
Fore
SplineSet
470 1438 m 128,-1,1
 518 1438 518 1438 552 1404 c 128,-1,2
 586 1370 586 1370 586 1319 c 128,-1,3
 586 1268 586 1268 552 1234 c 128,-1,4
 518 1200 518 1200 470 1200 c 128,-1,5
 422 1200 422 1200 387 1234.5 c 128,-1,6
 352 1269 352 1269 352 1319 c 128,-1,7
 352 1369 352 1369 387 1403.5 c 128,-1,0
 422 1438 422 1438 470 1438 c 128,-1,1
166 1438 m 128,-1,9
 214 1438 214 1438 248 1404 c 128,-1,10
 282 1370 282 1370 282 1319 c 128,-1,11
 282 1268 282 1268 248 1234 c 128,-1,12
 214 1200 214 1200 166 1200 c 128,-1,13
 118 1200 118 1200 84 1234 c 128,-1,14
 50 1268 50 1268 50 1319 c 128,-1,15
 50 1370 50 1370 84 1404 c 128,-1,8
 118 1438 118 1438 166 1438 c 128,-1,9
EndSplineSet
Validated: 1
EndChar

StartChar: copyright
Encoding: 169 169 95
Width: 1401
GlyphClass: 2
Flags: MW
LayerCount: 2
Fore
SplineSet
716 1352 m 0,0,1
 834 1352 834 1352 896.5 1289.5 c 128,-1,2
 959 1227 959 1227 959 1164 c 0,3,4
 959 1128 959 1128 937 1103 c 0,5,6
 912 1075 912 1075 873 1075 c 0,7,8
 836 1075 836 1075 812 1099.5 c 128,-1,9
 788 1124 788 1124 788 1156 c 0,10,11
 788 1194 788 1194 814 1220 c 0,12,13
 836 1241 836 1241 872 1243 c 1,14,15
 832 1305 832 1305 734 1305 c 0,16,17
 665 1305 665 1305 611 1242 c 0,18,19
 550 1167 550 1167 550 960 c 0,20,21
 550 764 550 764 608 686 c 0,22,23
 658 618 658 618 737 618 c 0,24,25
 864 618 864 618 947 757 c 1,26,-1
 957 757 l 1,27,-1
 957 671 l 1,28,29
 872 568 872 568 730 568 c 0,30,31
 584 568 584 568 504 648 c 0,32,33
 394 757 394 757 394 966 c 0,34,35
 394 1172 394 1172 504 1273 c 0,36,37
 591 1352 591 1352 716 1352 c 0,0,1
701 1530 m 0,38,39
 943 1530 943 1530 1099 1357 c 0,40,41
 1251 1188 1251 1188 1251 953 c 0,42,43
 1251 701 1251 701 1090 549 c 0,44,45
 919 386 919 386 699 386 c 0,46,47
 476 386 476 386 311 549 c 0,48,49
 150 708 150 708 150 953 c 0,50,51
 150 1197 150 1197 308 1362 c 0,52,53
 469 1530 469 1530 701 1530 c 0,38,39
699 1453 m 0,54,55
 509 1453 509 1453 367 1312 c 0,56,57
 224 1170 224 1170 224 953 c 0,58,59
 224 760 224 760 364 605 c 0,60,61
 495 459 495 459 701 459 c 0,62,63
 892 459 892 459 1037 605 c 0,64,65
 1176 745 1176 745 1176 953 c 0,66,67
 1176 1174 1176 1174 1039 1309 c 0,68,69
 893 1453 893 1453 699 1453 c 0,54,55
EndSplineSet
Validated: 1
EndChar

StartChar: guillemotleft
Encoding: 171 171 96
Width: 1207
GlyphClass: 2
Flags: MW
LayerCount: 2
Fore
SplineSet
924 1293 m 0,0,1
 934 1293 934 1293 943 1287 c 2,2,-1
 974 1267 l 2,3,4
 989 1257 989 1257 989 1244 c 0,5,6
 989 1235 989 1235 983 1226 c 2,7,-1
 691 796 l 1,8,-1
 993 379 l 2,9,10
 1007 360 1007 360 1007 346 c 0,11,12
 1007 327 1007 327 984 309 c 2,13,-1
 929 266 l 2,14,15
 912 253 912 253 897 253 c 0,16,17
 875 253 875 253 859 275 c 2,18,-1
 537 730 l 1,19,-1
 902 1279 l 2,20,21
 911 1293 911 1293 924 1293 c 0,0,1
537 1293 m 0,22,23
 547 1293 547 1293 556 1287 c 2,24,-1
 587 1267 l 2,25,26
 602 1257 602 1257 602 1244 c 0,27,28
 602 1235 602 1235 596 1226 c 2,29,-1
 304 796 l 1,30,-1
 606 379 l 2,31,32
 620 360 620 360 620 346 c 0,33,34
 620 327 620 327 597 309 c 2,35,-1
 542 266 l 2,36,37
 525 253 525 253 510 253 c 0,38,39
 488 253 488 253 472 275 c 2,40,-1
 150 730 l 1,41,-1
 515 1279 l 2,42,43
 524 1293 524 1293 537 1293 c 0,22,23
EndSplineSet
Validated: 1
EndChar

StartChar: logicalnot
Encoding: 172 172 97
Width: 1218
GlyphClass: 2
Flags: MW
LayerCount: 2
Fore
SplineSet
200 830 m 2,0,-1
 1018 830 l 2,1,2
 1068 830 1068 830 1068 780 c 0,3,4
 1068 772 1068 772 1063 763 c 2,5,-1
 862 410 l 2,6,7
 845 380 845 380 818 380 c 2,8,-1
 724 380 l 2,9,10
 703 380 703 380 703 393 c 0,11,12
 703 401 703 401 708 410 c 2,13,-1
 862 680 l 9,14,-1
 200 680 l 2,15,16
 150 680 150 680 150 730 c 2,17,-1
 150 780 l 2,18,19
 150 830 150 830 200 830 c 2,0,-1
EndSplineSet
Validated: 1
EndChar

StartChar: uni00AD
Encoding: 173 173 98
Width: 1133
GlyphClass: 2
Flags: MW
LayerCount: 2
Fore
SplineSet
200 830 m 2,0,-1
 933 830 l 2,1,2
 983 830 983 830 983 780 c 2,3,4
 983 730 l 2,5,6
 983 680 983 680 933 680 c 2,7,-1
 200 680 l 2,8,9
 150 680 150 680 150 730 c 2,10,-1
 150 780 l 2,11,12
 150 830 150 830 200 830 c 2,0,-1
EndSplineSet
Validated: 1
EndChar

StartChar: registered
Encoding: 174 174 99
Width: 1401
GlyphClass: 2
Flags: MW
LayerCount: 2
Fore
SplineSet
696 1373 m 0,0,1
 843 1373 843 1373 927 1294 c 0,2,3
 1009 1217 1009 1217 1009 1097 c 0,4,5
 1009 998 1009 998 953 928 c 0,6,7
 898 859 898 859 820 836 c 1,8,9
 902 806 902 806 928 743 c 2,10,-1
 940 714 l 2,11,12
 962 662 962 662 1004 662 c 128,-1,13
 1046 662 1046 662 1069 727 c 1,14,-1
 1084 727 l 1,15,16
 1077 666 1077 666 1039 625.5 c 128,-1,17
 1001 585 1001 585 943 585 c 0,18,19
 842 585 842 585 800 680 c 2,20,-1
 779 728 l 2,21,22
 740 816 740 816 687 828 c 24,23,24
 632 841 632 841 611 850 c 1,25,-1
 611 721 l 2,26,27
 611 664 611 664 586 629 c 0,28,29
 555 587 555 587 495 587 c 0,30,31
 422 587 422 587 386 636 c 0,32,33
 366 663 366 663 366 706 c 1,34,-1
 381 706 l 1,35,36
 396 650 396 650 433 650 c 0,37,38
 471 650 471 650 471 701 c 2,39,-1
 471 1177 l 2,40,41
 471 1206 471 1206 500 1206 c 2,42,-1
 582 1206 l 2,43,44
 611 1206 611 1206 611 1177 c 2,45,-1
 611 932 l 1,46,47
 650 883 650 883 723 883 c 0,48,49
 782 883 782 883 814 925 c 0,50,51
 856 979 856 979 856 1090 c 0,52,53
 856 1194 856 1194 812 1252 c 0,54,55
 762 1318 762 1318 669 1318 c 0,56,57
 476 1318 476 1318 357 1121 c 1,58,-1
 335 1130 l 1,59,60
 437 1373 437 1373 696 1373 c 0,0,1
701 1530 m 0,61,62
 943 1530 943 1530 1099 1357 c 0,63,64
 1251 1188 1251 1188 1251 953 c 0,65,66
 1251 701 1251 701 1090 549 c 0,67,68
 919 386 919 386 699 386 c 0,69,70
 476 386 476 386 311 549 c 0,71,72
 150 708 150 708 150 953 c 0,73,74
 150 1197 150 1197 308 1362 c 0,75,76
 469 1530 469 1530 701 1530 c 0,61,62
699 1453 m 0,77,78
 509 1453 509 1453 367 1312 c 0,79,80
 224 1170 224 1170 224 953 c 0,81,82
 224 760 224 760 364 605 c 0,83,84
 495 459 495 459 701 459 c 0,85,86
 892 459 892 459 1037 605 c 0,87,88
 1176 745 1176 745 1176 953 c 0,89,90
 1176 1174 1176 1174 1039 1309 c 0,91,92
 893 1453 893 1453 699 1453 c 0,77,78
EndSplineSet
Validated: 1
EndChar

StartChar: macron
Encoding: 175 175 100
Width: 650
GlyphClass: 2
Flags: MW
LayerCount: 2
Fore
SplineSet
90 1376 m 2,0,-1
 560 1376 l 2,1,2
 600 1376 600 1376 600 1336 c 2,3,4
 600 1286 l 2,5,6
 600 1246 600 1246 560 1246 c 2,7,-1
 90 1246 l 2,8,9
 50 1246 50 1246 50 1286 c 2,10,-1
 50 1336 l 2,11,12
 50 1376 50 1376 90 1376 c 2,0,-1
EndSplineSet
Validated: 1
EndChar

StartChar: degree
Encoding: 176 176 101
Width: 558
GlyphClass: 2
Flags: MW
LayerCount: 2
Fore
SplineSet
278 1528 m 0,0,1
 226 1528 226 1528 201 1481 c 0,2,3
 173 1429 173 1429 173 1330 c 0,4,5
 173 1224 173 1224 201 1179 c 0,6,7
 230 1132 230 1132 280 1132 c 0,8,9
 332 1132 332 1132 357 1179 c 0,10,11
 385 1231 385 1231 385 1330 c 0,12,13
 385 1436 385 1436 357 1481 c 0,14,15
 328 1528 328 1528 278 1528 c 0,0,1
278 1580 m 128,-1,17
 364 1580 364 1580 431 1521 c 0,18,19
 508 1453 508 1453 508 1330 c 0,20,21
 508 1209 508 1209 431 1139 c 0,22,23
 364 1079 364 1079 278.5 1079 c 128,-1,24
 193 1079 193 1079 127 1139 c 0,25,26
 50 1209 50 1209 50 1330 c 128,-1,27
 50 1451 50 1451 127 1521 c 0,28,16
 192 1580 192 1580 278 1580 c 128,-1,17
EndSplineSet
Validated: 1
EndChar

StartChar: plusminus
Encoding: 177 177 102
Width: 1233
GlyphClass: 2
Flags: MW
LayerCount: 2
Fore
SplineSet
592 1300 m 2,0,-1
 642 1300 l 2,1,2
 692 1300 692 1300 692 1250 c 2,3,-1
 692 958 l 1,4,-1
 983 958 l 2,5,6
 1033 958 1033 958 1033 908 c 2,7,-1
 1033 858 l 2,8,9
 1033 808 1033 808 983 808 c 2,10,-1
 692 808 l 1,11,-1
 692 516 l 2,12,13
 692 466 692 466 642 466 c 2,14,-1
 592 466 l 2,15,16
 542 466 542 466 542 516 c 2,17,-1
 542 808 l 1,18,-1
 250 808 l 2,19,20
 200 808 200 808 200 858 c 2,21,-1
 200 908 l 2,22,23
 200 958 200 958 250 958 c 2,24,-1
 542 958 l 1,25,-1
 542 1250 l 2,26,27
 542 1300 542 1300 592 1300 c 2,0,-1
250 406 m 2,28,-1
 983 406 l 2,29,30
 1033 406 1033 406 1033 356 c 2,31,-1
 1033 306 l 2,32,33
 1033 256 1033 256 983 256 c 2,34,-1
 250 256 l 2,35,36
 200 256 200 256 200 306 c 2,37,-1
 200 356 l 2,38,39
 200 406 200 406 250 406 c 2,28,-1
EndSplineSet
Validated: 1
EndChar

StartChar: acute
Encoding: 180 180 103
Width: 436
GlyphClass: 2
Flags: MW
LayerCount: 2
Fore
SplineSet
293 1484 m 0,0,1
 336 1484 336 1484 361 1456 c 128,-1,2
 386 1428 386 1428 386 1391 c 0,3,4
 386 1340 386 1340 343 1316 c 2,5,6
 66 1160 l 1,7,-1
 50 1178 l 1,8,-1
 212 1439 l 2,9,10
 240 1484 240 1484 293 1484 c 0,0,1
EndSplineSet
Validated: 1
EndChar

StartChar: uni00B5
Encoding: 181 181 104
Width: 1270
GlyphClass: 2
Flags: MW
LayerCount: 2
Fore
SplineSet
1060 -20 m 0,0,1
 951 -20 951 -20 900 72 c 0,2,3
 875 119 875 119 870 192 c 1,4,5
 842 119 842 119 787 66 c 0,6,7
 698 -20 698 -20 560 -20 c 0,8,9
 470 -20 470 -20 400 19 c 1,10,-1
 400 0 l 2,11,12
 400 -300 400 -300 590 -415 c 1,13,-1
 590 -430 l 1,14,15
 220 -347 220 -347 220 0 c 2,16,-1
 220 900 l 2,17,18
 220 1013 220 1013 136 1013 c 0,19,20
 54 1013 54 1013 25 900 c 1,21,-1
 10 900 l 1,22,23
 10 972 10 972 46 1029 c 0,24,25
 103 1120 103 1120 210 1120 c 0,26,27
 318 1120 318 1120 370 1028 c 0,28,29
 400 973 400 973 400 861 c 2,30,-1
 400 390 l 2,31,32
 400 279 400 279 437 210 c 0,33,34
 501 91 501 91 635 91 c 128,-1,35
 769 91 769 91 833 210 c 0,36,37
 870 279 870 279 870 390 c 2,38,-1
 870 1050 l 2,39,40
 870 1100 870 1100 920 1100 c 2,41,-1
 1000 1100 l 2,42,43
 1050 1100 1050 1100 1050 1050 c 2,44,-1
 1050 200 l 2,45,46
 1050 87 1050 87 1134 87 c 0,47,48
 1216 87 1216 87 1245 200 c 1,49,-1
 1260 200 l 1,50,51
 1260 128 1260 128 1224 71 c 0,52,53
 1167 -20 1167 -20 1060 -20 c 0,0,1
EndSplineSet
Validated: 1
EndChar

StartChar: paragraph
Encoding: 182 182 105
Width: 1102
GlyphClass: 2
Flags: MW
LayerCount: 2
Fore
SplineSet
702 0 m 2,0,1
 652 0 652 0 652 50 c 2,2,-1
 652 764 l 1,3,4
 608 760 608 760 572 760 c 0,5,6
 405 760 405 760 300 838 c 0,7,8
 150 949 150 949 150 1145 c 0,9,10
 150 1353 150 1353 312 1459 c 0,11,12
 421 1530 421 1530 571 1530 c 0,13,14
 852 1530 852 1530 852 1253 c 2,15,-1
 852 50 l 2,16,17
 852 0 852 0 802 0 c 2,18,-1
 702 0 l 2,0,1
783 65 m 1,19,-1
 783 1283 l 1,20,-1
 723 1283 l 1,21,-1
 723 65 l 1,22,-1
 783 65 l 1,19,-1
EndSplineSet
Validated: 1
EndChar

StartChar: periodcentered
Encoding: 183 183 106
Width: 359
GlyphClass: 2
Flags: MW
LayerCount: 2
Fore
SplineSet
180 889 m 128,-1,1
 234 889 234 889 271.5 850.5 c 128,-1,2
 309 812 309 812 309 757 c 128,-1,3
 309 702 309 702 271.5 663.5 c 128,-1,4
 234 625 234 625 180 625 c 128,-1,5
 126 625 126 625 88 663.5 c 128,-1,6
 50 702 50 702 50 757 c 128,-1,7
 50 812 50 812 88 850.5 c 128,-1,0
 126 889 126 889 180 889 c 128,-1,1
EndSplineSet
Validated: 1
EndChar

StartChar: cedilla
Encoding: 184 184 107
Width: 364
GlyphClass: 2
Flags: MW
LayerCount: 2
Fore
SplineSet
58 0 m 1,0,-1
 138 0 l 1,1,-1
 138 -39 l 1,2,3
 200 -49 200 -49 241 -80 c 0,4,5
 314 -133 314 -133 314 -219 c 128,-1,6
 314 -305 314 -305 262 -360 c 0,7,8
 196 -430 196 -430 100 -430 c 0,9,10
 50 -430 50 -430 50 -380 c 2,11,-1
 50 -342 l 2,12,13
 50 -292 50 -292 100 -292 c 0,14,15
 138 -292 138 -292 166 -266 c 0,16,17
 191 -243 191 -243 191 -204 c 0,18,19
 191 -158 191 -158 153 -130 c 0,20,21
 121 -107 121 -107 58 -107 c 1,22,-1
 58 0 l 1,0,-1
EndSplineSet
Validated: 1
EndChar

StartChar: guillemotright
Encoding: 187 187 108
Width: 1207
GlyphClass: 2
Flags: MW
LayerCount: 2
Fore
SplineSet
310 1293 m 0,0,1
 332 1293 332 1293 348 1271 c 2,2,-1
 670 816 l 1,3,-1
 305 267 l 2,4,5
 296 253 296 253 283 253 c 0,6,7
 273 253 273 253 264 259 c 2,8,-1
 233 279 l 2,9,10
 218 289 218 289 218 302 c 0,11,12
 218 311 218 311 224 320 c 2,13,-1
 516 750 l 1,14,-1
 214 1167 l 2,15,16
 200 1186 200 1186 200 1200 c 0,17,18
 200 1219 200 1219 223 1237 c 2,19,-1
 278 1280 l 2,20,21
 295 1293 295 1293 310 1293 c 0,0,1
697 1293 m 0,22,23
 719 1293 719 1293 735 1271 c 2,24,-1
 1057 816 l 1,25,-1
 692 267 l 2,26,27
 683 253 683 253 670 253 c 0,28,29
 660 253 660 253 651 259 c 2,30,-1
 620 279 l 2,31,32
 605 289 605 289 605 302 c 0,33,34
 605 311 605 311 611 320 c 2,35,-1
 903 750 l 1,36,-1
 601 1167 l 2,37,38
 587 1186 587 1186 587 1200 c 0,39,40
 587 1219 587 1219 610 1237 c 2,41,-1
 665 1280 l 2,42,43
 682 1293 682 1293 697 1293 c 0,22,23
EndSplineSet
Validated: 1
EndChar

StartChar: questiondown
Encoding: 191 191 109
Width: 1256
GlyphClass: 2
Flags: MW
LayerCount: 2
Fore
SplineSet
607 -430 m 0,0,1
 395 -430 395 -430 270 -305 c 0,2,3
 150 -185 150 -185 150 -20 c 0,4,5
 150 205 150 205 349 365 c 2,6,-1
 541 519 l 2,7,8
 645 602 645 602 645 750 c 24,9,10
 645 780 645 780 675 780 c 2,11,-1
 717 780 l 2,12,13
 747 780 747 780 747 750 c 24,14,15
 747 573 747 573 625 436 c 2,16,-1
 529 328 l 2,17,18
 374 154 374 154 374 -2 c 0,19,20
 374 -137 374 -137 446 -226 c 0,21,22
 534 -334 534 -334 685 -334 c 0,23,24
 827 -334 827 -334 922 -246 c 0,25,26
 1015 -159 1015 -159 1037 -34 c 1,27,28
 1005 -62 1005 -62 965 -62 c 0,29,30
 915 -62 915 -62 878 -30 c 0,31,32
 840 2 840 2 840 60 c 0,33,34
 840 113 840 113 878 150 c 0,35,36
 918 189 918 189 970 189 c 0,37,38
 1025 189 1025 189 1065 151 c 0,39,40
 1106 112 1106 112 1106 36 c 0,41,42
 1106 -147 1106 -147 971 -286 c 0,43,44
 831 -430 831 -430 607 -430 c 0,0,1
689 1120 m 128,-1,46
 743 1120 743 1120 781 1081.5 c 128,-1,47
 819 1043 819 1043 819 988 c 128,-1,48
 819 933 819 933 781 894.5 c 128,-1,49
 743 856 743 856 689 856 c 128,-1,50
 635 856 635 856 597.5 894.5 c 128,-1,51
 560 933 560 933 560 988 c 128,-1,52
 560 1043 560 1043 597.5 1081.5 c 128,-1,45
 635 1120 635 1120 689 1120 c 128,-1,46
EndSplineSet
Validated: 1
EndChar

StartChar: endash
Encoding: 8211 8211 110
Width: 1133
GlyphClass: 2
Flags: MW
LayerCount: 2
Fore
SplineSet
200 830 m 2,0,-1
 933 830 l 2,1,2
 983 830 983 830 983 780 c 2,3,4
 983 730 l 2,5,6
 983 680 983 680 933 680 c 2,7,-1
 200 680 l 2,8,9
 150 680 150 680 150 730 c 2,10,-1
 150 780 l 2,11,12
 150 830 150 830 200 830 c 2,0,-1
EndSplineSet
Validated: 1
EndChar

StartChar: emdash
Encoding: 8212 8212 111
Width: 1533
GlyphClass: 2
Flags: MW
LayerCount: 2
Fore
SplineSet
200 830 m 2,0,-1
 1333 830 l 2,1,2
 1383 830 1383 830 1383 780 c 2,3,4
 1383 730 l 2,5,6
 1383 680 1383 680 1333 680 c 2,7,-1
 200 680 l 2,8,9
 150 680 150 680 150 730 c 2,10,-1
 150 780 l 2,11,12
 150 830 150 830 200 830 c 2,0,-1
EndSplineSet
Validated: 1
EndChar

StartChar: afii00208
Encoding: 8213 8213 112
Width: 1533
GlyphClass: 2
Flags: MW
LayerCount: 2
Fore
SplineSet
200 830 m 2,0,-1
 1333 830 l 2,1,2
 1383 830 1383 830 1383 780 c 2,3,4
 1383 730 l 2,5,6
 1383 680 1383 680 1333 680 c 2,7,-1
 200 680 l 2,8,9
 150 680 150 680 150 730 c 2,10,-1
 150 780 l 2,11,12
 150 830 150 830 200 830 c 2,0,-1
EndSplineSet
Validated: 1
EndChar

StartChar: quoteleft
Encoding: 8216 8216 113
Width: 401
GlyphClass: 2
Flags: MW
LayerCount: 2
Fore
SplineSet
351 1580 m 1,0,-1
 351 1567 l 1,1,2
 273 1523 273 1523 225 1456 c 0,3,4
 201 1422 201 1422 187 1377 c 1,5,6
 251 1377 251 1377 281 1346 c 0,7,8
 316 1310 316 1310 316 1260 c 0,9,10
 316 1208 316 1208 280 1171 c 0,11,12
 245 1136 245 1136 190 1136 c 0,13,14
 138 1136 138 1136 101 1170 c 0,15,16
 50 1218 50 1218 50 1290 c 128,-1,17
 50 1362 50 1362 95 1435 c 0,18,19
 154 1531 154 1531 264 1568 c 0,20,21
 300 1580 300 1580 351 1580 c 1,0,-1
EndSplineSet
Validated: 1
EndChar

StartChar: quoteright
Encoding: 8217 8217 114
Width: 401
GlyphClass: 2
Flags: MW
LayerCount: 2
Fore
SplineSet
211 1580 m 0,0,1
 263 1580 263 1580 300 1546 c 0,2,3
 351 1498 351 1498 351 1426 c 128,-1,4
 351 1354 351 1354 306 1281 c 0,5,6
 247 1185 247 1185 137 1148 c 0,7,8
 101 1136 101 1136 50 1136 c 1,9,-1
 50 1149 l 1,10,11
 128 1193 128 1193 176 1260 c 0,12,13
 200 1294 200 1294 214 1339 c 1,14,15
 150 1339 150 1339 120 1370 c 0,16,17
 85 1406 85 1406 85 1456 c 0,18,19
 85 1508 85 1508 121 1545 c 0,20,21
 156 1580 156 1580 211 1580 c 0,0,1
EndSplineSet
Validated: 1
EndChar

StartChar: quotesinglbase
Encoding: 8218 8218 115
Width: 368
GlyphClass: 2
Flags: MW
LayerCount: 2
Fore
SplineSet
17 -221 m 1,0,-1
 17 -208 l 1,1,2
 95 -164 95 -164 143 -97 c 0,3,4
 167 -63 167 -63 181 -18 c 1,5,6
 117 -18 117 -18 87 13 c 0,7,8
 52 49 52 49 52 99 c 0,9,10
 52 151 52 151 88 188 c 0,11,12
 123 223 123 223 178 223 c 0,13,14
 230 223 230 223 267 189 c 0,15,16
 318 141 318 141 318 69 c 128,-1,17
 318 -3 318 -3 273 -76 c 0,18,19
 214 -172 214 -172 104 -209 c 0,20,21
 68 -221 68 -221 17 -221 c 1,0,-1
EndSplineSet
Validated: 1
EndChar

StartChar: quotereversed
Encoding: 8219 8219 116
Width: 401
GlyphClass: 2
Flags: MW
LayerCount: 2
Fore
SplineSet
190 1580 m 0,0,1
 245 1580 245 1580 280 1545 c 0,2,3
 316 1508 316 1508 316 1456 c 0,4,5
 316 1406 316 1406 281 1370 c 0,6,7
 251 1339 251 1339 187 1339 c 1,8,9
 201 1294 201 1294 225 1260 c 0,10,11
 273 1193 273 1193 351 1149 c 1,12,-1
 351 1136 l 1,13,14
 300 1136 300 1136 264 1148 c 0,15,16
 154 1185 154 1185 95 1281 c 0,17,18
 50 1354 50 1354 50 1426 c 128,-1,19
 50 1498 50 1498 101 1546 c 0,20,21
 138 1580 138 1580 190 1580 c 0,0,1
EndSplineSet
Validated: 1
EndChar

StartChar: quotedblleft
Encoding: 8220 8220 117
Width: 685
GlyphClass: 2
Flags: MW
LayerCount: 2
Fore
SplineSet
351 1580 m 1,0,-1
 351 1567 l 1,1,2
 273 1523 273 1523 225 1456 c 0,3,4
 201 1422 201 1422 187 1377 c 1,5,6
 251 1377 251 1377 281 1346 c 0,7,8
 316 1310 316 1310 316 1260 c 0,9,10
 316 1208 316 1208 280 1171 c 0,11,12
 245 1136 245 1136 190 1136 c 0,13,14
 138 1136 138 1136 101 1170 c 0,15,16
 50 1218 50 1218 50 1290 c 128,-1,17
 50 1362 50 1362 95 1435 c 0,18,19
 154 1531 154 1531 264 1568 c 0,20,21
 300 1580 300 1580 351 1580 c 1,0,-1
668 1580 m 1,22,-1
 668 1567 l 1,23,24
 590 1523 590 1523 542 1456 c 0,25,26
 518 1422 518 1422 504 1377 c 1,27,28
 568 1377 568 1377 598 1346 c 0,29,30
 633 1310 633 1310 633 1260 c 0,31,32
 633 1208 633 1208 597 1171 c 0,33,34
 562 1136 562 1136 507 1136 c 0,35,36
 455 1136 455 1136 418 1170 c 0,37,38
 367 1218 367 1218 367 1290 c 128,-1,39
 367 1362 367 1362 412 1435 c 0,40,41
 471 1531 471 1531 581 1568 c 0,42,43
 617 1580 617 1580 668 1580 c 1,22,-1
EndSplineSet
Validated: 1
EndChar

StartChar: quotedblright
Encoding: 8221 8221 118
Width: 685
GlyphClass: 2
Flags: MW
LayerCount: 2
Fore
SplineSet
334 1136 m 1,0,-1
 334 1149 l 1,1,2
 412 1193 412 1193 460 1260 c 0,3,4
 484 1294 484 1294 498 1339 c 1,5,6
 434 1339 434 1339 404 1370 c 0,7,8
 369 1406 369 1406 369 1456 c 0,9,10
 369 1508 369 1508 405 1545 c 0,11,12
 440 1580 440 1580 495 1580 c 0,13,14
 547 1580 547 1580 584 1546 c 0,15,16
 635 1498 635 1498 635 1426 c 128,-1,17
 635 1354 635 1354 590 1281 c 0,18,19
 531 1185 531 1185 421 1148 c 0,20,21
 385 1136 385 1136 334 1136 c 1,0,-1
17 1136 m 1,22,-1
 17 1149 l 1,23,24
 95 1193 95 1193 143 1260 c 0,25,26
 167 1294 167 1294 181 1339 c 1,27,28
 117 1339 117 1339 87 1370 c 0,29,30
 52 1406 52 1406 52 1456 c 0,31,32
 52 1508 52 1508 88 1545 c 0,33,34
 123 1580 123 1580 178 1580 c 0,35,36
 230 1580 230 1580 267 1546 c 0,37,38
 318 1498 318 1498 318 1426 c 128,-1,39
 318 1354 318 1354 273 1281 c 0,40,41
 214 1185 214 1185 104 1148 c 0,42,43
 68 1136 68 1136 17 1136 c 1,22,-1
EndSplineSet
Validated: 1
EndChar

StartChar: quotedblbase
Encoding: 8222 8222 119
Width: 685
GlyphClass: 2
Flags: MW
LayerCount: 2
Fore
SplineSet
334 -221 m 1,0,-1
 334 -208 l 1,1,2
 412 -164 412 -164 460 -97 c 0,3,4
 484 -63 484 -63 498 -18 c 1,5,6
 434 -18 434 -18 404 13 c 0,7,8
 369 49 369 49 369 99 c 0,9,10
 369 151 369 151 405 188 c 0,11,12
 440 223 440 223 495 223 c 0,13,14
 547 223 547 223 584 189 c 0,15,16
 635 141 635 141 635 69 c 128,-1,17
 635 -3 635 -3 590 -76 c 0,18,19
 531 -172 531 -172 421 -209 c 0,20,21
 385 -221 385 -221 334 -221 c 1,0,-1
17 -221 m 1,22,-1
 17 -208 l 1,23,24
 95 -164 95 -164 143 -97 c 0,25,26
 167 -63 167 -63 181 -18 c 1,27,28
 117 -18 117 -18 87 13 c 0,29,30
 52 49 52 49 52 99 c 0,31,32
 52 151 52 151 88 188 c 0,33,34
 123 223 123 223 178 223 c 0,35,36
 230 223 230 223 267 189 c 0,37,38
 318 141 318 141 318 69 c 128,-1,39
 318 -3 318 -3 273 -76 c 0,40,41
 214 -172 214 -172 104 -209 c 0,42,43
 68 -221 68 -221 17 -221 c 1,22,-1
EndSplineSet
Validated: 1
EndChar

StartChar: dagger
Encoding: 8224 8224 120
Width: 1390
VWidth: 0
GlyphClass: 2
Flags: MW
LayerCount: 2
Fore
SplineSet
690 -40 m 1,0,1
 637 105 637 105 491 159 c 1,2,-1
 491 169 l 1,3,4
 645 224 645 224 645 368 c 2,5,-1
 645 935 l 1,6,-1
 558 935 l 2,7,8
 415 935 415 935 359 781 c 1,9,-1
 349 781 l 1,10,11
 295 927 295 927 150 980 c 1,12,-1
 150 990 l 1,13,14
 295 1043 295 1043 349 1189 c 1,15,-1
 359 1189 l 1,16,17
 414 1035 414 1035 558 1035 c 2,18,-1
 645 1035 l 1,19,-1
 645 1142 l 2,20,21
 645 1285 645 1285 491 1341 c 1,22,-1
 491 1351 l 1,23,24
 637 1405 637 1405 690 1550 c 1,25,-1
 700 1550 l 1,26,27
 753 1405 753 1405 899 1351 c 1,28,-1
 899 1341 l 1,29,30
 745 1286 745 1286 745 1142 c 2,31,-1
 745 1035 l 1,32,-1
 832 1035 l 2,33,34
 975 1035 975 1035 1031 1189 c 1,35,-1
 1041 1189 l 1,36,37
 1095 1043 1095 1043 1240 990 c 1,38,-1
 1240 980 l 1,39,40
 1095 927 1095 927 1041 781 c 1,41,-1
 1031 781 l 1,42,43
 976 935 976 935 832 935 c 2,44,-1
 745 935 l 1,45,-1
 745 368 l 2,46,47
 745 225 745 225 899 169 c 1,48,-1
 899 159 l 1,49,50
 753 105 753 105 700 -40 c 1,51,-1
 690 -40 l 1,0,1
EndSplineSet
Validated: 1
EndChar

StartChar: daggerdbl
Encoding: 8225 8225 121
Width: 1390
VWidth: 0
GlyphClass: 2
Flags: MW
LayerCount: 2
Fore
SplineSet
690 -40 m 1,0,1
 637 105 637 105 491 159 c 1,2,-1
 491 169 l 1,3,4
 645 224 645 224 645 368 c 2,5,-1
 645 475 l 1,6,-1
 558 475 l 2,7,8
 415 475 415 475 359 321 c 1,9,-1
 349 321 l 1,10,11
 295 467 295 467 150 520 c 1,12,-1
 150 530 l 1,13,14
 295 583 295 583 349 729 c 1,15,-1
 359 729 l 1,16,17
 414 575 414 575 558 575 c 2,18,-1
 645 575 l 1,19,-1
 645 935 l 1,20,-1
 558 935 l 2,21,22
 415 935 415 935 359 781 c 1,23,-1
 349 781 l 1,24,25
 295 927 295 927 150 980 c 1,26,-1
 150 990 l 1,27,28
 295 1043 295 1043 349 1189 c 1,29,-1
 359 1189 l 1,30,31
 414 1035 414 1035 558 1035 c 2,32,-1
 645 1035 l 1,33,-1
 645 1142 l 2,34,35
 645 1285 645 1285 491 1341 c 1,36,-1
 491 1351 l 1,37,38
 637 1405 637 1405 690 1550 c 1,39,-1
 700 1550 l 1,40,41
 753 1405 753 1405 899 1351 c 1,42,-1
 899 1341 l 1,43,44
 745 1286 745 1286 745 1142 c 2,45,-1
 745 1035 l 1,46,-1
 832 1035 l 2,47,48
 975 1035 975 1035 1031 1189 c 1,49,-1
 1041 1189 l 1,50,51
 1095 1043 1095 1043 1240 990 c 1,52,-1
 1240 980 l 1,53,54
 1095 927 1095 927 1041 781 c 1,55,-1
 1031 781 l 1,56,57
 976 935 976 935 832 935 c 2,58,-1
 745 935 l 1,59,-1
 745 575 l 1,60,-1
 832 575 l 2,61,62
 975 575 975 575 1031 729 c 1,63,-1
 1041 729 l 1,64,65
 1095 583 1095 583 1240 530 c 1,66,-1
 1240 520 l 1,67,68
 1095 467 1095 467 1041 321 c 1,69,-1
 1031 321 l 1,70,71
 976 475 976 475 832 475 c 2,72,-1
 745 475 l 1,73,-1
 745 368 l 2,74,75
 745 225 745 225 899 169 c 1,76,-1
 899 159 l 1,77,78
 753 105 753 105 700 -40 c 1,79,-1
 690 -40 l 1,0,1
EndSplineSet
Validated: 1
EndChar

StartChar: bullet
Encoding: 8226 8226 122
Width: 880
GlyphClass: 2
Flags: MW
LayerCount: 2
Fore
SplineSet
440 1042 m 128,-1,1
 560 1042 560 1042 645 958.5 c 128,-1,2
 730 875 730 875 730 756.5 c 128,-1,3
 730 638 730 638 645 554 c 128,-1,4
 560 470 560 470 440 470 c 128,-1,5
 320 470 320 470 235 554 c 128,-1,6
 150 638 150 638 150 756.5 c 128,-1,7
 150 875 150 875 235 958.5 c 128,-1,0
 320 1042 320 1042 440 1042 c 128,-1,1
EndSplineSet
Validated: 1
EndChar

StartChar: ellipsis
Encoding: 8230 8230 123
Width: 1125
GlyphClass: 2
Flags: MW
LayerCount: 2
Fore
SplineSet
946 -20 m 128,-1,1
 892 -20 892 -20 854 18.5 c 128,-1,2
 816 57 816 57 816 112 c 128,-1,3
 816 167 816 167 854 205.5 c 128,-1,4
 892 244 892 244 946 244 c 128,-1,5
 1000 244 1000 244 1037.5 205.5 c 128,-1,6
 1075 167 1075 167 1075 112 c 128,-1,7
 1075 57 1075 57 1037.5 18.5 c 128,-1,0
 1000 -20 1000 -20 946 -20 c 128,-1,1
563 -20 m 128,-1,9
 509 -20 509 -20 471 18.5 c 128,-1,10
 433 57 433 57 433 112 c 128,-1,11
 433 167 433 167 471 205.5 c 128,-1,12
 509 244 509 244 563 244 c 128,-1,13
 617 244 617 244 654.5 205.5 c 128,-1,14
 692 167 692 167 692 112 c 128,-1,15
 692 57 692 57 654.5 18.5 c 128,-1,8
 617 -20 617 -20 563 -20 c 128,-1,9
180 -20 m 128,-1,17
 126 -20 126 -20 88 18.5 c 128,-1,18
 50 57 50 57 50 112 c 128,-1,19
 50 167 50 167 88 205.5 c 128,-1,20
 126 244 126 244 180 244 c 128,-1,21
 234 244 234 244 271.5 205.5 c 128,-1,22
 309 167 309 167 309 112 c 128,-1,23
 309 57 309 57 271.5 18.5 c 128,-1,16
 234 -20 234 -20 180 -20 c 128,-1,17
EndSplineSet
Validated: 1
EndChar

StartChar: perthousand
Encoding: 8240 8240 124
Width: 2293
GlyphClass: 2
Flags: MW
LayerCount: 2
Fore
SplineSet
1830 -20 m 128,-1,1
 1712 -20 1712 -20 1622 62 c 0,2,3
 1517 157 1517 157 1517 322.5 c 128,-1,4
 1517 488 1517 488 1622 582 c 0,5,6
 1712 664 1712 664 1830 664 c 128,-1,7
 1948 664 1948 664 2038 582 c 0,8,9
 2143 486 2143 486 2143 322 c 128,-1,10
 2143 158 2143 158 2038 62 c 0,11,0
 1948 -20 1948 -20 1830 -20 c 128,-1,1
1830 39 m 128,-1,13
 1896 39 1896 39 1940 109 c 0,14,15
 1979 173 1979 173 1979 322 c 0,16,17
 1979 472 1979 472 1940 535 c 0,18,19
 1897 605 1897 605 1830 605 c 0,20,21
 1764 605 1764 605 1720 535 c 0,22,23
 1681 473 1681 473 1681 322 c 0,24,25
 1681 169 1681 169 1720 109 c 0,26,12
 1764 39 1764 39 1830 39 c 128,-1,13
1126 -20 m 128,-1,28
 1008 -20 1008 -20 918 62 c 0,29,30
 813 157 813 157 813 322.5 c 128,-1,31
 813 488 813 488 918 582 c 0,32,33
 1008 664 1008 664 1126 664 c 128,-1,34
 1244 664 1244 664 1334 582 c 0,35,36
 1439 486 1439 486 1439 322 c 128,-1,37
 1439 158 1439 158 1334 62 c 0,38,27
 1244 -20 1244 -20 1126 -20 c 128,-1,28
1126 39 m 128,-1,40
 1192 39 1192 39 1236 109 c 0,41,42
 1275 173 1275 173 1275 322 c 0,43,44
 1275 472 1275 472 1236 535 c 0,45,46
 1193 605 1193 605 1126 605 c 0,47,48
 1060 605 1060 605 1016 535 c 0,49,50
 977 473 977 473 977 322 c 0,51,52
 977 169 977 169 1016 109 c 0,53,39
 1060 39 1060 39 1126 39 c 128,-1,40
463 1530 m 128,-1,55
 581 1530 581 1530 671 1448 c 0,56,57
 776 1352 776 1352 776 1188 c 128,-1,58
 776 1024 776 1024 671 928 c 0,59,60
 581 846 581 846 463 846 c 128,-1,61
 345 846 345 846 255 928 c 0,62,63
 150 1023 150 1023 150 1188.5 c 128,-1,64
 150 1354 150 1354 255 1448 c 0,65,54
 345 1530 345 1530 463 1530 c 128,-1,55
463 1471 m 0,66,67
 397 1471 397 1471 353 1401 c 0,68,69
 314 1339 314 1339 314 1188 c 0,70,71
 314 1035 314 1035 352 975 c 0,72,73
 397 905 397 905 463 905 c 128,-1,74
 529 905 529 905 572 975 c 0,75,76
 612 1039 612 1039 612 1188 c 0,77,78
 612 1338 612 1338 573 1401 c 0,79,80
 530 1471 530 1471 463 1471 c 0,66,67
402 -40 m 0,81,82
 390 -40 390 -40 374 -31 c 2,83,-1
 326 -3 l 2,84,85
 298 13 298 13 298 36 c 0,86,87
 298 49 298 49 308 65 c 2,88,-1
 1148 1522 l 2,89,90
 1164 1550 1164 1550 1186 1550 c 0,91,92
 1200 1550 1200 1550 1216 1541 c 2,93,-1
 1264 1513 l 2,94,95
 1290 1497 1290 1497 1290 1474 c 0,96,97
 1290 1461 1290 1461 1282 1445 c 2,98,-1
 442 -12 l 2,99,100
 426 -40 426 -40 402 -40 c 0,81,82
EndSplineSet
Validated: 1
EndChar

StartChar: minute
Encoding: 8242 8242 125
Width: 350
GlyphClass: 2
Flags: MW
LayerCount: 2
Fore
SplineSet
170 1540 m 0,0,1
 177 1540 177 1540 188 1536 c 2,2,-1
 271 1506 l 2,3,4
 300 1496 300 1496 300 1473 c 0,5,6
 300 1462 300 1462 294 1449 c 2,7,-1
 173 1186 l 2,8,9
 160 1158 160 1158 137 1158 c 0,10,11
 129 1158 129 1158 119 1162 c 2,12,-1
 79 1178 l 2,13,14
 50 1190 50 1190 50 1212 c 0,15,16
 50 1218 50 1218 53 1228 c 2,17,-1
 138 1510 l 2,18,19
 147 1540 147 1540 170 1540 c 0,0,1
EndSplineSet
Validated: 1
EndChar

StartChar: second
Encoding: 8243 8243 126
Width: 597
GlyphClass: 2
Flags: MW
LayerCount: 2
Fore
SplineSet
417 1540 m 0,0,1
 424 1540 424 1540 435 1536 c 2,2,-1
 518 1506 l 2,3,4
 547 1496 547 1496 547 1473 c 0,5,6
 547 1462 547 1462 541 1449 c 2,7,-1
 420 1186 l 2,8,9
 407 1158 407 1158 384 1158 c 0,10,11
 376 1158 376 1158 366 1162 c 2,12,-1
 326 1178 l 2,13,14
 297 1190 297 1190 297 1212 c 0,15,16
 297 1218 297 1218 300 1228 c 2,17,-1
 385 1510 l 2,18,19
 394 1540 394 1540 417 1540 c 0,0,1
170 1540 m 0,20,21
 177 1540 177 1540 188 1536 c 2,22,-1
 271 1506 l 2,23,24
 300 1496 300 1496 300 1473 c 0,25,26
 300 1462 300 1462 294 1449 c 2,27,-1
 173 1186 l 2,28,29
 160 1158 160 1158 137 1158 c 0,30,31
 129 1158 129 1158 119 1162 c 2,32,-1
 79 1178 l 2,33,34
 50 1190 50 1190 50 1212 c 0,35,36
 50 1218 50 1218 53 1228 c 2,37,-1
 138 1510 l 2,38,39
 147 1540 147 1540 170 1540 c 0,20,21
EndSplineSet
Validated: 1
EndChar

StartChar: guilsinglleft
Encoding: 8249 8249 127
Width: 820
GlyphClass: 2
Flags: MW
LayerCount: 2
Fore
SplineSet
537 1293 m 0,0,1
 547 1293 547 1293 556 1287 c 2,2,-1
 587 1267 l 2,3,4
 602 1257 602 1257 602 1244 c 0,5,6
 602 1235 602 1235 596 1226 c 2,7,-1
 304 796 l 1,8,-1
 606 379 l 2,9,10
 620 360 620 360 620 346 c 0,11,12
 620 327 620 327 597 309 c 2,13,-1
 542 266 l 2,14,15
 525 253 525 253 510 253 c 0,16,17
 488 253 488 253 472 275 c 2,18,-1
 150 730 l 1,19,-1
 515 1279 l 2,20,21
 524 1293 524 1293 537 1293 c 0,0,1
EndSplineSet
Validated: 1
EndChar

StartChar: guilsinglright
Encoding: 8250 8250 128
Width: 820
GlyphClass: 2
Flags: MW
LayerCount: 2
Fore
SplineSet
310 1293 m 0,0,1
 332 1293 332 1293 348 1271 c 2,2,-1
 670 816 l 1,3,-1
 305 267 l 2,4,5
 296 253 296 253 283 253 c 0,6,7
 273 253 273 253 264 259 c 2,8,-1
 233 279 l 2,9,10
 218 289 218 289 218 302 c 0,11,12
 218 311 218 311 224 320 c 2,13,-1
 516 750 l 1,14,-1
 214 1167 l 2,15,16
 200 1186 200 1186 200 1200 c 0,17,18
 200 1219 200 1219 223 1237 c 2,19,-1
 278 1280 l 2,20,21
 295 1293 295 1293 310 1293 c 0,0,1
EndSplineSet
Validated: 1
EndChar

StartChar: fraction
Encoding: 8260 8260 129
Width: 1012
GlyphClass: 2
Flags: MW
LayerCount: 2
Fore
SplineSet
114 -40 m 0,0,1
 102 -40 102 -40 86 -31 c 2,2,-1
 38 -3 l 2,3,4
 10 13 10 13 10 36 c 0,5,6
 10 49 10 49 20 65 c 2,7,-1
 860 1522 l 2,8,9
 876 1550 876 1550 898 1550 c 0,10,11
 912 1550 912 1550 928 1541 c 2,12,-1
 976 1513 l 2,13,14
 1002 1497 1002 1497 1002 1474 c 0,15,16
 1002 1461 1002 1461 994 1445 c 2,17,-1
 154 -12 l 2,18,19
 138 -40 138 -40 114 -40 c 0,0,1
EndSplineSet
Validated: 1
EndChar

StartChar: Euro
Encoding: 8364 8364 130
Width: 1530
GlyphClass: 2
Flags: MW
LayerCount: 2
Fore
SplineSet
906 -20 m 0,0,1
 652 -20 652 -20 498 134 c 0,2,3
 324 309 324 309 289 600 c 1,4,-1
 180 600 l 2,5,6
 150 600 150 600 150 630 c 2,7,-1
 150 660 l 2,8,9
 150 690 150 690 180 690 c 2,10,-1
 281 690 l 1,11,12
 280 722 280 722 280 755 c 0,13,14
 280 787 280 787 281 818 c 1,15,-1
 180 818 l 2,16,17
 150 818 150 818 150 848 c 2,18,-1
 150 878 l 2,19,20
 150 908 150 908 180 908 c 2,21,-1
 288 908 l 1,22,23
 322 1214 322 1214 498 1376 c 0,24,25
 667 1530 667 1530 897 1530 c 0,26,27
 1091 1530 1091 1530 1220 1401 c 0,28,29
 1330 1291 1330 1291 1330 1162 c 0,30,31
 1330 1093 1330 1093 1291.5 1055.5 c 128,-1,32
 1253 1018 1253 1018 1199 1018 c 128,-1,33
 1145 1018 1145 1018 1107 1056 c 128,-1,34
 1069 1094 1069 1094 1069 1147 c 0,35,36
 1069 1202 1069 1202 1109 1242 c 0,37,38
 1147 1280 1147 1280 1216 1280 c 1,39,40
 1117 1455 1117 1455 920 1455 c 0,41,42
 747 1455 747 1455 636 1320 c 0,43,44
 535 1197 535 1197 515 908 c 1,45,-1
 918 908 l 2,46,47
 948 908 948 908 948 878 c 2,48,-1
 948 848 l 2,49,50
 948 818 948 818 918 818 c 2,51,-1
 511 818 l 1,52,53
 510 787 510 787 510 755 c 0,54,55
 510 722 510 722 511 690 c 1,56,-1
 918 690 l 2,57,58
 948 690 948 690 948 660 c 2,59,-1
 948 630 l 2,60,61
 948 600 948 600 918 600 c 2,62,-1
 515 600 l 1,63,64
 535 311 535 311 635 192 c 0,65,66
 750 55 750 55 931 55 c 0,67,68
 1099 55 1099 55 1209 180 c 0,69,70
 1270 249 1270 249 1312 336 c 1,71,-1
 1327 336 l 1,72,-1
 1327 178 l 1,73,74
 1169 -20 1169 -20 906 -20 c 0,0,1
EndSplineSet
Validated: 1
EndChar

StartChar: afii61248
Encoding: 8453 8453 131
Width: 1614
GlyphClass: 2
Flags: MW
LayerCount: 2
Fore
SplineSet
1150 33 m 0,0,1
 1203 33 1203 33 1250 94 c 0,2,3
 1314 177 1314 177 1314 375 c 0,4,5
 1314 569 1314 569 1250 658 c 0,6,7
 1206 719 1206 719 1150 719 c 0,8,9
 1097 719 1097 719 1050 658 c 0,10,11
 993 584 993 584 993 376 c 0,12,13
 993 170 993 170 1050 94 c 0,14,15
 1096 33 1096 33 1150 33 c 0,0,1
1150 -20 m 0,16,17
 1032 -20 1032 -20 952 61 c 0,18,19
 843 172 843 172 843 372 c 0,20,21
 843 574 843 574 952 685 c 0,22,23
 1031 765 1031 765 1153 765 c 128,-1,24
 1275 765 1275 765 1354 685 c 0,25,26
 1464 573 1464 573 1464 372 c 0,27,28
 1464 170 1464 170 1355 63 c 0,29,30
 1270 -20 1270 -20 1150 -20 c 0,16,17
472 1530 m 0,31,32
 590 1530 590 1530 652.5 1467.5 c 128,-1,33
 715 1405 715 1405 715 1342 c 0,34,35
 715 1306 715 1306 693 1281 c 0,36,37
 668 1253 668 1253 629 1253 c 0,38,39
 592 1253 592 1253 568 1277.5 c 128,-1,40
 544 1302 544 1302 544 1334 c 0,41,42
 544 1372 544 1372 570 1398 c 0,43,44
 592 1419 592 1419 628 1421 c 1,45,46
 588 1483 588 1483 490 1483 c 0,47,48
 421 1483 421 1483 367 1420 c 0,49,50
 306 1345 306 1345 306 1138 c 0,51,52
 306 942 306 942 364 864 c 0,53,54
 414 796 414 796 493 796 c 0,55,56
 620 796 620 796 703 935 c 1,57,-1
 713 935 l 1,58,-1
 713 849 l 1,59,60
 628 746 628 746 486 746 c 0,61,62
 340 746 340 746 260 826 c 0,63,64
 150 935 150 935 150 1144 c 0,65,66
 150 1350 150 1350 260 1451 c 0,67,68
 347 1530 347 1530 472 1530 c 0,31,32
423 -40 m 0,69,70
 411 -40 411 -40 395 -31 c 2,71,-1
 347 -3 l 2,72,73
 319 13 319 13 319 36 c 0,74,75
 319 49 319 49 329 65 c 2,76,-1
 1169 1522 l 2,77,78
 1185 1550 1185 1550 1207 1550 c 0,79,80
 1221 1550 1221 1550 1237 1541 c 2,81,-1
 1285 1513 l 2,82,83
 1311 1497 1311 1497 1311 1474 c 0,84,85
 1311 1461 1311 1461 1303 1445 c 2,86,-1
 463 -12 l 2,87,88
 447 -40 447 -40 423 -40 c 0,69,70
EndSplineSet
Validated: 1
EndChar

StartChar: afii61289
Encoding: 8467 8467 132
Width: 958
GlyphClass: 2
Flags: MW
LayerCount: 2
Fore
SplineSet
387 466 m 1,0,1
 498 708 498 708 554 860 c 0,2,3
 655 1134 655 1134 655 1359 c 1,4,5
 563 1238 563 1238 503 1067 c 0,6,7
 387 740 387 740 387 466 c 1,0,1
50 0 m 1,8,9
 171 158 171 158 244 282 c 1,10,11
 232 366 232 366 232 443 c 0,12,13
 232 629 232 629 279 848 c 0,14,15
 367 1251 367 1251 517 1434 c 0,16,17
 595 1530 595 1530 669 1530 c 0,18,19
 737 1530 737 1530 772 1479 c 0,20,21
 808 1429 808 1429 808 1318 c 0,22,23
 808 1226 808 1226 778 1072 c 0,24,25
 708 722 708 722 422 271 c 1,26,27
 454 116 454 116 511 116 c 0,28,29
 535 116 535 116 562.5 145 c 128,-1,30
 590 174 590 174 616 228 c 1,31,-1
 792 228 l 1,32,33
 715 100 715 100 650.5 40 c 128,-1,34
 586 -20 586 -20 502 -20 c 0,35,36
 382 -20 382 -20 305 90 c 1,37,-1
 251 0 l 1,38,-1
 50 0 l 1,8,9
EndSplineSet
Validated: 1
EndChar

StartChar: trademark
Encoding: 8482 8482 133
Width: 1947
VWidth: 1396
GlyphClass: 2
Flags: MW
LayerCount: 2
Fore
SplineSet
932 1540 m 0,0,1
 1012 1540 1012 1540 1053 1451 c 2,2,-1
 1258 1008 l 1,3,-1
 1460 1464 l 2,4,5
 1494 1541 1494 1541 1563 1541 c 0,6,7
 1615 1541 1615 1541 1641 1501 c 0,8,9
 1661 1470 1661 1470 1661 1420 c 1,10,-1
 1645 1420 l 1,11,12
 1628 1485 1628 1485 1583 1485 c 0,13,14
 1553 1485 1553 1485 1553 1455 c 1,15,-1
 1645 870 l 2,16,17
 1653 821 1653 821 1687 821 c 152,-1,18
 1721 821 1721 821 1732 875 c 1,19,-1
 1747 875 l 1,20,21
 1747 832 1747 832 1729 805 c 0,22,23
 1695 755 1695 755 1626 755 c 0,24,25
 1551 755 1551 755 1521 808 c 0,26,27
 1508 830 1508 830 1499 890 c 2,28,-1
 1449 1210 l 1,29,-1
 1241 744 l 1,30,-1
 1224 744 l 1,31,-1
 993 1246 l 1,32,-1
 938 870 l 2,33,34
 930 818 930 818 916 797 c 0,35,36
 887 754 887 754 831 754 c 0,37,38
 733 754 733 754 733 875 c 1,39,-1
 748 875 l 1,40,41
 766 808 766 808 802.5 808 c 152,-1,42
 839 808 839 808 848 870 c 2,43,-1
 925 1402 l 1,44,-1
 909 1439 l 2,45,46
 893 1475 893 1475 866 1475 c 24,47,48
 835 1475 835 1475 817 1420 c 1,49,-1
 802 1420 l 1,50,51
 802 1459 802 1459 822 1490 c 0,52,53
 855 1540 855 1540 932 1540 c 0,0,1
404 754 m 0,54,55
 329 754 329 754 295 803 c 0,56,57
 275 830 275 830 275 873 c 1,58,-1
 290 873 l 1,59,60
 305 817 305 817 342 817 c 24,61,62
 380 817 380 817 380 868 c 2,63,-1
 380 1344 l 2,64,65
 380 1373 380 1373 409 1373 c 2,66,-1
 491 1373 l 2,67,68
 520 1373 520 1373 520 1344 c 2,69,-1
 520 888 l 2,70,71
 520 831 520 831 495 796 c 0,72,73
 464 754 464 754 404 754 c 0,54,55
434 1530 m 2,74,-1
 584 1530 l 2,75,76
 671 1530 671 1530 720 1496 c 0,77,78
 767 1463 767 1463 767 1409 c 0,79,80
 767 1374 767 1374 749 1350 c 0,81,82
 724 1318 724 1318 683 1318 c 0,83,84
 643 1318 643 1318 620 1343 c 0,85,86
 598 1366 598 1366 598 1400 c 0,87,88
 598 1430 598 1430 614 1449 c 0,89,90
 627 1465 627 1465 647 1471 c 1,91,92
 620 1473 620 1473 585 1473 c 2,93,-1
 430 1473 l 2,94,95
 254 1473 254 1473 124 1271 c 1,96,-1
 100 1285 l 1,97,98
 192 1530 192 1530 434 1530 c 2,74,-1
EndSplineSet
Validated: 1
EndChar

StartChar: uni2126
Encoding: 8486 8486 134
Width: 1424
GlyphClass: 2
Flags: MW
LayerCount: 2
Fore
SplineSet
546 0 m 2,0,1
 373 0 l 2,2,3
 123 0 123 0 100 338 c 1,4,-1
 115 338 l 1,5,6
 215 125 215 125 373 125 c 2,7,-1
 510 125 l 1,8,-1
 510 156 l 1,9,10
 416 210 416 210 348 274 c 0,11,12
 130 480 130 480 130 805 c 0,13,14
 130 1152 130 1152 348 1376 c 0,15,16
 498 1530 498 1530 712 1530 c 128,-1,17
 926 1530 926 1530 1076 1376 c 0,18,19
 1294 1152 1294 1152 1294 805 c 0,20,21
 1294 480 1294 480 1076 274 c 0,22,23
 1008 210 1008 210 914 156 c 1,24,-1
 914 125 l 1,25,-1
 1051 125 l 2,26,27
 1209 125 1209 125 1309 338 c 1,28,-1
 1324 338 l 1,29,30
 1301 0 1301 0 1051 0 c 2,31,-1
 878 0 l 2,32,33
 828 0 828 0 828 50 c 2,34,-1
 828 182 l 1,35,36
 900 256 900 256 953 335 c 0,37,38
 1074 515 1074 515 1074 755 c 0,39,40
 1074 1161 1074 1161 946 1324 c 0,41,42
 843 1455 843 1455 712 1455 c 0,43,44
 574 1455 574 1455 478 1324 c 0,45,46
 350 1150 350 1150 350 755 c 0,47,48
 350 515 350 515 471 335 c 0,49,50
 524 256 524 256 596 182 c 1,51,-1
 596 50 l 2,52,53
 596 0 596 0 546 0 c 2,0,1
EndSplineSet
Validated: 1
EndChar

StartChar: estimated
Encoding: 8494 8494 135
Width: 1330
GlyphClass: 2
Flags: MW
LayerCount: 2
Fore
SplineSet
1104 204 m 1,0,1
 1032 113 1032 113 948 61 c 0,2,3
 817 -20 817 -20 665 -20 c 0,4,5
 409 -20 409 -20 256 139 c 0,6,7
 100 301 100 301 100 550 c 0,8,9
 100 788 100 788 249 952 c 24,10,11
 402 1120 402 1120 666 1120 c 0,12,13
 915 1120 915 1120 1064 964 c 280,14,15
 1230 790 1230 790 1230 525 c 1,16,-1
 348 525 l 1,17,-1
 348 192 l 1,18,19
 459 72 459 72 666 72 c 256,20,21
 789 72 789 72 880 132 c 0,22,23
 962 186 962 186 1011 266 c 1,24,25
 1104 204 l 1,0,1
348 605 m 1,26,-1
 983 605 l 1,27,-1
 983 903 l 1,28,29
 852 1036 852 1036 666 1036 c 0,30,31
 475 1036 475 1036 348 914 c 1,32,-1
 348 605 l 1,26,-1
EndSplineSet
Validated: 1
EndChar

StartChar: partialdiff
Encoding: 8706 8706 136
Width: 1285
GlyphClass: 2
Flags: MW
LayerCount: 2
Fore
SplineSet
512 -20 m 0,0,1
 150 -20 150 -20 150 375 c 0,2,3
 150 631 150 631 286 815 c 0,4,5
 454 1040 454 1040 672 1040 c 0,6,7
 859 1040 859 1040 952 930 c 1,8,9
 952 1136 952 1136 907 1239 c 0,10,11
 846 1378 846 1378 678 1378 c 0,12,13
 547 1378 547 1378 420 1294 c 1,14,-1
 420 1468 l 1,15,16
 554 1530 554 1530 703 1530 c 0,17,18
 1135 1530 1135 1530 1135 934 c 0,19,20
 1135 545 1135 545 966.5 262.5 c 128,-1,21
 798 -20 798 -20 512 -20 c 0,0,1
525 133 m 0,22,23
 663 133 663 133 772.5 286 c 128,-1,24
 882 439 882 439 920 680 c 1,25,26
 898 765 898 765 834.5 817.5 c 128,-1,27
 771 870 771 870 695 870 c 0,28,29
 535 870 535 870 436.5 710 c 128,-1,30
 338 550 338 550 338 369 c 0,31,32
 338 133 338 133 525 133 c 0,22,23
EndSplineSet
Validated: 1
EndChar

StartChar: uni2206
Encoding: 8710 8710 137
Width: 1418
GlyphClass: 2
Flags: MW
LayerCount: 2
Fore
SplineSet
156 90 m 1,0,-1
 1155 90 l 1,1,-1
 671 1215 l 1,2,-1
 156 90 l 1,0,-1
5 0 m 25,3,-1
 715 1550 l 1,4,-1
 730 1550 l 1,5,-1
 1413 0 l 25,6,-1
 5 0 l 25,3,-1
EndSplineSet
Validated: 1
EndChar

StartChar: product
Encoding: 8719 8719 138
Width: 1528
GlyphClass: 2
Flags: MW
LayerCount: 2
Fore
SplineSet
230.5 -430 m 128,-1,1
 123 -430 123 -430 66 -339 c 0,2,3
 30 -282 30 -282 30 -210 c 1,4,-1
 45 -210 l 1,5,6
 74 -323 74 -323 156 -323 c 0,7,8
 240 -323 240 -323 240 -210 c 2,9,-1
 240 1460 l 2,10,11
 240 1510 240 1510 290 1510 c 2,12,-1
 1238 1510 l 2,13,14
 1288 1510 1288 1510 1288 1460 c 2,15,-1
 1288 -210 l 2,16,17
 1288 -323 1288 -323 1372 -323 c 0,18,19
 1454 -323 1454 -323 1483 -210 c 1,20,-1
 1498 -210 l 1,21,22
 1498 -282 1498 -282 1462 -339 c 0,23,24
 1405 -430 1405 -430 1297.5 -430 c 128,-1,25
 1190 -430 1190 -430 1128 -338 c 0,26,27
 1088 -279 1088 -279 1088 -171 c 2,28,-1
 1088 1419 l 25,29,-1
 440 1419 l 25,30,-1
 440 -171 l 2,31,32
 440 -279 440 -279 400 -338 c 0,33,0
 338 -430 338 -430 230.5 -430 c 128,-1,1
EndSplineSet
Validated: 1
EndChar

StartChar: summation
Encoding: 8721 8721 139
Width: 1388
GlyphClass: 2
Flags: MW
LayerCount: 2
Fore
SplineSet
80 -410 m 1,0,-1
 80 -395 l 9,1,-1
 612 535 l 1,2,-1
 80 1495 l 17,3,-1
 80 1510 l 1,4,-1
 837 1510 l 2,5,6
 981 1510 981 1510 1073 1449 c 128,-1,7
 1165 1388 1165 1388 1165 1292 c 0,8,9
 1165 1237 1165 1237 1127 1198 c 0,10,11
 1090 1159 1090 1159 1035 1159 c 0,12,13
 983 1159 983 1159 943 1197 c 0,14,15
 905 1234 905 1234 905 1284 c 0,16,17
 905 1394 905 1394 1028 1403 c 1,18,19
 994 1420 994 1420 839 1420 c 2,20,-1
 335 1420 l 1,21,-1
 832 535 l 1,22,-1
 339 -320 l 1,23,-1
 982 -320 l 2,24,25
 1137 -320 1137 -320 1171 -303 c 1,26,27
 1048 -294 1048 -294 1048 -184 c 0,28,29
 1048 -134 1048 -134 1086 -97 c 0,30,31
 1126 -59 1126 -59 1178 -59 c 0,32,33
 1233 -59 1233 -59 1270 -98 c 0,34,35
 1308 -137 1308 -137 1308 -192 c 0,36,37
 1308 -288 1308 -288 1216 -349 c 128,-1,38
 1124 -410 1124 -410 980 -410 c 2,39,-1
 80 -410 l 1,0,-1
EndSplineSet
Validated: 1
EndChar

StartChar: minus
Encoding: 8722 8722 140
Width: 1133
GlyphClass: 2
Flags: MW
LayerCount: 2
Fore
SplineSet
200 830 m 2,0,-1
 933 830 l 2,1,2
 983 830 983 830 983 780 c 2,3,4
 983 730 l 2,5,6
 983 680 983 680 933 680 c 2,7,-1
 200 680 l 2,8,9
 150 680 150 680 150 730 c 2,10,-1
 150 780 l 2,11,12
 150 830 150 830 200 830 c 2,0,-1
EndSplineSet
Validated: 1
EndChar

StartChar: uni2215
Encoding: 8725 8725 141
Width: 1012
GlyphClass: 2
Flags: MW
LayerCount: 2
Fore
SplineSet
114 -40 m 0,0,1
 102 -40 102 -40 86 -31 c 2,2,-1
 38 -3 l 2,3,4
 10 13 10 13 10 36 c 0,5,6
 10 49 10 49 20 65 c 2,7,-1
 860 1522 l 2,8,9
 876 1550 876 1550 898 1550 c 0,10,11
 912 1550 912 1550 928 1541 c 2,12,-1
 976 1513 l 2,13,14
 1002 1497 1002 1497 1002 1474 c 0,15,16
 1002 1461 1002 1461 994 1445 c 2,17,-1
 154 -12 l 2,18,19
 138 -40 138 -40 114 -40 c 0,0,1
EndSplineSet
Validated: 1
EndChar

StartChar: uni2219
Encoding: 8729 8729 142
Width: 359
GlyphClass: 2
Flags: MW
LayerCount: 2
Fore
SplineSet
180 889 m 128,-1,1
 234 889 234 889 271.5 850.5 c 128,-1,2
 309 812 309 812 309 757 c 128,-1,3
 309 702 309 702 271.5 663.5 c 128,-1,4
 234 625 234 625 180 625 c 128,-1,5
 126 625 126 625 88 663.5 c 128,-1,6
 50 702 50 702 50 757 c 128,-1,7
 50 812 50 812 88 850.5 c 128,-1,0
 126 889 126 889 180 889 c 128,-1,1
EndSplineSet
Validated: 1
EndChar

StartChar: radical
Encoding: 8730 8730 143
Width: 1338
GlyphClass: 2
Flags: MW
LayerCount: 2
Fore
SplineSet
542 -40 m 1,0,-1
 232 741 l 1,1,-1
 80 741 l 2,2,3
 50 741 50 741 50 771 c 2,4,-1
 50 801 l 2,5,6
 50 831 50 831 80 831 c 2,7,-1
 362 831 l 2,8,9
 396 831 396 831 407 801 c 2,10,-1
 593 344 l 1,11,-1
 1073 1610 l 2,12,13
 1084 1640 1084 1640 1118 1640 c 2,14,-1
 1298 1640 l 2,15,16
 1328 1640 1328 1640 1328 1610 c 2,17,-1
 1328 1580 l 2,18,19
 1328 1550 1328 1550 1298 1550 c 2,20,-1
 1158 1550 l 1,21,-1
 557 -40 l 1,22,-1
 542 -40 l 1,0,-1
EndSplineSet
Validated: 1
EndChar

StartChar: infinity
Encoding: 8734 8734 144
Width: 1658
GlyphClass: 2
Flags: MW
LayerCount: 2
Fore
SplineSet
496 1148 m 0,0,1
 613 1148 613 1148 696 1089 c 16,2,3
 710 1079 710 1079 710 1066 c 0,4,5
 710 1057 710 1057 703 1047 c 2,6,-1
 686 1022 l 2,7,8
 677 1008 677 1008 664 1008 c 0,9,10
 655 1008 655 1008 644 1015 c 8,11,12
 576 1058 576 1058 499 1058 c 0,13,14
 400 1058 400 1058 324 972 c 0,15,16
 250 887 250 887 250 758 c 0,17,18
 250 664 250 664 318 598 c 0,19,20
 378 540 378 540 474 540 c 0,21,22
 621 540 621 540 700 710 c 2,23,-1
 772 865 l 2,24,25
 903 1148 903 1148 1127 1148 c 0,26,27
 1296 1148 1296 1148 1398 1042 c 0,28,29
 1508 928 1508 928 1508 752 c 0,30,31
 1508 586 1508 586 1398 468 c 0,32,33
 1300 362 1300 362 1162 362 c 0,34,35
 1045 362 1045 362 962 421 c 16,36,37
 948 431 948 431 948 444 c 0,38,39
 948 453 948 453 955 463 c 2,40,-1
 972 488 l 2,41,42
 981 502 981 502 994 502 c 0,43,44
 1003 502 1003 502 1014 495 c 8,45,46
 1082 452 1082 452 1159 452 c 0,47,48
 1258 452 1258 452 1334 538 c 0,49,50
 1408 623 1408 623 1408 752 c 0,51,52
 1408 846 1408 846 1340 912 c 0,53,54
 1280 970 1280 970 1184 970 c 0,55,56
 1038 970 1038 970 962 808 c 2,57,-1
 886 645 l 2,58,59
 754 362 754 362 531 362 c 0,60,61
 362 362 362 362 260 468 c 0,62,63
 150 582 150 582 150 758 c 0,64,65
 150 924 150 924 260 1042 c 0,66,67
 358 1148 358 1148 496 1148 c 0,0,1
EndSplineSet
Validated: 1
EndChar

StartChar: approxequal
Encoding: 8776 8776 145
Width: 1193
GlyphClass: 2
Flags: MW
LayerCount: 2
Fore
SplineSet
392 719 m 0,0,1
 449 719 449 719 522 687 c 2,2,-1
 766 580 l 2,3,4
 818 557 818 557 851 557 c 0,5,6
 966 557 966 557 1024 693 c 1,7,-1
 1043 693 l 1,8,9
 1023 406 1023 406 802 406 c 0,10,11
 745 406 745 406 672 438 c 2,12,-1
 428 545 l 2,13,14
 376 568 376 568 342 568 c 0,15,16
 228 568 228 568 170 432 c 1,17,-1
 150 432 l 1,18,19
 168 719 168 719 392 719 c 0,0,1
392 1117 m 0,20,21
 449 1117 449 1117 522 1085 c 2,22,-1
 766 978 l 2,23,24
 818 955 818 955 851 955 c 0,25,26
 966 955 966 955 1024 1091 c 1,27,-1
 1043 1091 l 1,28,29
 1023 804 1023 804 802 804 c 0,30,31
 745 804 745 804 672 836 c 2,32,-1
 428 943 l 2,33,34
 376 966 376 966 342 966 c 0,35,36
 228 966 228 966 170 830 c 1,37,-1
 150 830 l 1,38,39
 168 1117 168 1117 392 1117 c 0,20,21
EndSplineSet
Validated: 1
EndChar

StartChar: notequal
Encoding: 8800 8800 146
Width: 1133
GlyphClass: 2
Flags: MW
LayerCount: 2
Fore
SplineSet
863 1334 m 0,0,1
 874 1334 874 1334 887 1327 c 2,2,-1
 905 1316 l 2,3,4
 927 1303 927 1303 927 1285 c 0,5,6
 927 1274 927 1274 919 1262 c 2,7,-1
 780 1020 l 1,8,-1
 933 1020 l 2,9,10
 983 1020 983 1020 983 970 c 2,11,-1
 983 920 l 2,12,13
 983 870 983 870 933 870 c 2,14,-1
 693 870 l 1,15,-1
 560 640 l 1,16,-1
 933 640 l 2,17,18
 983 640 983 640 983 590 c 2,19,-1
 983 540 l 2,20,21
 983 490 983 490 933 490 c 2,22,-1
 473 490 l 1,23,-1
 301 192 l 2,24,25
 288 170 288 170 270 170 c 0,26,27
 259 170 259 170 246 177 c 2,28,-1
 228 188 l 2,29,30
 206 201 206 201 206 219 c 0,31,32
 206 230 206 230 214 242 c 2,33,-1
 357 490 l 1,34,-1
 200 490 l 2,35,36
 150 490 150 490 150 540 c 2,37,-1
 150 590 l 2,38,39
 150 640 150 640 200 640 c 2,40,-1
 443 640 l 1,41,-1
 576 870 l 1,42,-1
 200 870 l 2,43,44
 150 870 150 870 150 920 c 2,45,-1
 150 970 l 2,46,47
 150 1020 150 1020 200 1020 c 2,48,-1
 663 1020 l 1,49,-1
 832 1312 l 2,50,51
 845 1334 845 1334 863 1334 c 0,0,1
EndSplineSet
Validated: 1
EndChar

StartChar: lessequal
Encoding: 8804 8804 147
Width: 1233
GlyphClass: 2
Flags: MW
LayerCount: 2
Fore
SplineSet
924 1345 m 0,0,1
 939 1345 939 1345 950 1326 c 2,2,-1
 971 1290 l 2,3,4
 977 1280 977 1280 977 1269 c 0,5,6
 977 1254 977 1254 958 1243 c 2,7,-1
 375 913 l 1,8,-1
 944 604 l 2,9,10
 972 589 972 589 972 566 c 0,11,12
 972 554 972 554 962 536 c 2,13,-1
 927 474 l 2,14,15
 912 447 912 447 888 447 c 0,16,17
 876 447 876 447 859 456 c 2,18,-1
 250 788 l 2,19,20
 200 815 200 815 200 858 c 2,21,-1
 200 899 l 2,22,23
 200 941 200 941 250 969 c 2,24,-1
 903 1339 l 2,25,26
 914 1345 914 1345 924 1345 c 0,0,1
250 340 m 2,27,-1
 983 340 l 2,28,29
 1033 340 1033 340 1033 290 c 2,30,-1
 1033 240 l 2,31,32
 1033 190 1033 190 983 190 c 2,33,-1
 250 190 l 2,34,35
 200 190 200 190 200 240 c 2,36,-1
 200 290 l 2,37,38
 200 340 200 340 250 340 c 2,27,-1
EndSplineSet
Validated: 1
EndChar

StartChar: greaterequal
Encoding: 8805 8805 148
Width: 1233
GlyphClass: 2
Flags: MW
LayerCount: 2
Fore
SplineSet
309 447 m 0,0,1
 294 447 294 447 283 466 c 2,2,-1
 262 502 l 2,3,4
 256 512 256 512 256 523 c 0,5,6
 256 538 256 538 275 549 c 2,7,-1
 858 879 l 1,8,-1
 289 1188 l 2,9,10
 261 1203 261 1203 261 1226 c 0,11,12
 261 1238 261 1238 271 1256 c 2,13,-1
 306 1318 l 2,14,15
 321 1345 321 1345 345 1345 c 0,16,17
 357 1345 357 1345 374 1336 c 2,18,-1
 983 1004 l 2,19,20
 1033 977 1033 977 1033 934 c 2,21,-1
 1033 893 l 2,22,23
 1033 851 1033 851 983 823 c 2,24,-1
 330 453 l 2,25,26
 319 447 319 447 309 447 c 0,0,1
250 340 m 2,27,-1
 983 340 l 2,28,29
 1033 340 1033 340 1033 290 c 2,30,-1
 1033 240 l 2,31,32
 1033 190 1033 190 983 190 c 2,33,-1
 250 190 l 2,34,35
 200 190 200 190 200 240 c 2,36,-1
 200 290 l 2,37,38
 200 340 200 340 250 340 c 2,27,-1
EndSplineSet
Validated: 1
EndChar

StartChar: lozenge
Encoding: 9674 9674 149
Width: 1134
GlyphClass: 2
Flags: MW
LayerCount: 2
Fore
SplineSet
610 229 m 1,0,-1
 872 670 l 1,1,-1
 518 1265 l 1,2,-1
 254 816 l 1,3,-1
 610 229 l 1,0,-1
567 -20 m 1,4,-1
 100 738 l 1,5,-1
 567 1530 l 1,6,-1
 1034 741 l 1,7,-1
 567 -20 l 1,4,-1
EndSplineSet
Validated: 1
EndChar

StartChar: multiply
Encoding: 215 215 150
Width: 1060
Flags: MW
LayerCount: 2
Fore
SplineSet
288 1085 m 0,0,1
 306 1085 306 1085 324 1067 c 2,2,-1
 530 861 l 1,3,-1
 737 1067 l 2,4,5
 755 1085 755 1085 771 1085 c 0,6,7
 788 1085 788 1085 807 1067 c 2,8,-1
 843 1032 l 2,9,10
 860 1015 860 1015 860 997 c 0,11,12
 860 978 860 978 843 961 c 2,13,-1
 636 755 l 1,14,-1
 842 549 l 2,15,16
 860 531 860 531 860 513.5 c 128,-1,17
 860 496 860 496 842 478 c 2,18,-1
 807 443 l 2,19,20
 790 426 790 426 772 426 c 0,21,22
 753 426 753 426 736 443 c 2,23,-1
 530 649 l 1,24,-1
 324 442 l 2,25,26
 306 424 306 424 288.5 424 c 128,-1,27
 271 424 271 424 253 442 c 2,28,-1
 218 477 l 2,29,30
 200 495 200 495 200 512 c 0,31,32
 200 530 200 530 218 548 c 2,33,-1
 424 755 l 1,34,-1
 218 961 l 2,35,36
 200 979 200 979 200 996.5 c 128,-1,37
 200 1014 200 1014 218 1032 c 2,38,-1
 253 1067 l 2,39,40
 271 1085 271 1085 288 1085 c 0,0,1
EndSplineSet
Validated: 1
EndChar

StartChar: divide
Encoding: 247 247 151
Width: 1133
Flags: MW
LayerCount: 2
Fore
SplineSet
200 830 m 2,0,-1
 933 830 l 2,1,2
 983 830 983 830 983 780 c 2,3,4
 983 730 l 2,5,6
 983 680 983 680 933 680 c 2,7,-1
 200 680 l 2,8,9
 150 680 150 680 150 730 c 2,10,-1
 150 780 l 2,11,12
 150 830 150 830 200 830 c 2,0,-1
437 1075 m 128,-1,14
 437 1130 437 1130 475 1168.5 c 128,-1,15
 513 1207 513 1207 567 1207 c 128,-1,16
 621 1207 621 1207 658.5 1168.5 c 128,-1,17
 696 1130 696 1130 696 1075 c 128,-1,18
 696 1020 696 1020 658.5 981.5 c 128,-1,19
 621 943 621 943 567 943 c 128,-1,20
 513 943 513 943 475 981.5 c 128,-1,13
 437 1020 437 1020 437 1075 c 128,-1,14
437 430 m 128,-1,22
 437 485 437 485 475 523.5 c 128,-1,23
 513 562 513 562 567 562 c 128,-1,24
 621 562 621 562 658.5 523.5 c 128,-1,25
 696 485 696 485 696 430 c 128,-1,26
 696 375 696 375 658.5 336.5 c 128,-1,27
 621 298 621 298 567 298 c 128,-1,28
 513 298 513 298 475 336.5 c 128,-1,21
 437 375 437 375 437 430 c 128,-1,22
EndSplineSet
Validated: 1
EndChar

StartChar: g
Encoding: 103 103 152
Width: 1179
Flags: MW
LayerCount: 2
Fore
SplineSet
597 55 m 0,0,1
 683 55 683 55 735 114 c 0,2,3
 799 186 799 186 799 319 c 2,4,-1
 799 781 l 2,5,6
 799 914 799 914 735 986 c 0,7,8
 683 1045 683 1045 597 1045 c 0,9,10
 455 1045 455 1045 372 892 c 0,11,12
 310 777 310 777 310 550 c 128,-1,13
 310 323 310 323 372 208 c 0,14,15
 455 55 455 55 597 55 c 0,0,1
565 -20 m 0,16,17
 384 -20 384 -20 239 144 c 0,18,19
 110 290 110 290 110 549 c 0,20,21
 110 794 110 794 239 956 c 0,22,23
 370 1120 370 1120 565 1120 c 0,24,25
 728 1120 728 1120 799 1006 c 1,26,-1
 799 1050 l 2,27,28
 799 1100 799 1100 849 1100 c 2,29,-1
 929 1100 l 2,30,31
 979 1100 979 1100 979 1050 c 2,32,-1
 979 100 l 2,33,34
 979 -164 979 -164 831 -302 c 0,35,36
 695 -430 695 -430 504 -430 c 0,37,38
 357 -430 357 -430 254 -360 c 0,39,40
 171 -304 171 -304 171 -212 c 0,41,42
 171 -157 171 -157 209 -118.5 c 128,-1,43
 247 -80 247 -80 301 -80 c 128,-1,44
 355 -80 355 -80 392.5 -118.5 c 128,-1,45
 430 -157 430 -157 430 -212 c 128,-1,46
 430 -267 430 -267 393 -306 c 0,47,48
 367 -333 367 -333 323 -339 c 1,49,50
 387 -369 387 -369 477 -369 c 0,51,52
 638 -369 638 -369 726 -246 c 0,53,54
 799 -145 799 -145 799 0 c 2,55,-1
 799 94 l 1,56,57
 733 -20 733 -20 565 -20 c 0,16,17
EndSplineSet
Validated: 1
EndChar

StartChar: k
Encoding: 107 107 153
Width: 1158
Flags: MW
LayerCount: 2
Fore
SplineSet
270 0 m 2,0,1
 220 0 220 0 220 50 c 2,2,-1
 220 1310 l 2,3,4
 220 1423 220 1423 136 1423 c 0,5,6
 54 1423 54 1423 25 1310 c 1,7,-1
 10 1310 l 1,8,9
 10 1382 10 1382 46 1439 c 0,10,11
 103 1530 103 1530 209 1530 c 0,12,13
 320 1530 320 1530 370 1438 c 0,14,15
 400 1384 400 1384 400 1271 c 2,16,-1
 400 369 l 1,17,18
 524 797 524 797 786 1070 c 0,19,20
 834 1120 834 1120 894 1120 c 0,21,22
 948 1120 948 1120 985.5 1081.5 c 128,-1,23
 1023 1043 1023 1043 1023 988 c 128,-1,24
 1023 933 1023 933 985.5 894.5 c 128,-1,25
 948 856 948 856 894 856 c 128,-1,26
 840 856 840 856 802 894 c 0,27,28
 784 912 784 912 780 923 c 1,29,30
 649 767 649 767 571 578 c 1,31,32
 938 577 938 577 938 200 c 0,33,34
 938 87 938 87 1022 87 c 0,35,36
 1104 87 1104 87 1133 200 c 1,37,-1
 1148 200 l 1,38,39
 1148 128 1148 128 1112 71 c 0,40,41
 1055 -20 1055 -20 948 -20 c 0,42,43
 836 -20 836 -20 788 72 c 0,44,45
 758 129 758 129 758 240 c 0,46,47
 758 482 758 482 545 507 c 1,48,49
 454 278 454 278 400 50 c 0,50,51
 388 0 388 0 350 0 c 2,52,-1
 270 0 l 2,0,1
EndSplineSet
Validated: 1
EndChar

StartChar: v
Encoding: 118 118 154
Width: 1222
Flags: MW
LayerCount: 2
Fore
SplineSet
607 -20 m 0,0,1
 421 -20 421 -20 312 107 c 0,2,3
 220 215 220 215 220 383 c 2,4,-1
 220 900 l 2,5,6
 220 1013 220 1013 136 1013 c 0,7,8
 54 1013 54 1013 25 900 c 1,9,-1
 10 900 l 1,10,11
 10 972 10 972 46 1029 c 0,12,13
 103 1120 103 1120 210 1120 c 0,14,15
 320 1120 320 1120 370 1028 c 0,16,17
 400 973 400 973 400 861 c 2,18,-1
 400 381 l 2,19,20
 400 262 400 262 457 179 c 0,21,22
 525 79 525 79 672 79 c 0,23,24
 855 79 855 79 945 230 c 0,25,26
 1002 327 1002 327 1002 468 c 0,27,28
 1002 634 1002 634 907 754 c 0,29,30
 855 820 855 820 763 885 c 0,31,32
 708 924 708 924 708 991 c 0,33,34
 708 1047 708 1047 744 1084 c 0,35,36
 781 1121 781 1121 836 1121 c 0,37,38
 928 1121 928 1121 988 1021 c 0,39,40
 1112 814 1112 814 1112 557 c 0,41,42
 1112 367 1112 367 1019 214 c 0,43,44
 877 -20 877 -20 607 -20 c 0,0,1
EndSplineSet
Validated: 1
EndChar

StartChar: w
Encoding: 119 119 155
Width: 1872
Flags: MW
LayerCount: 2
Fore
SplineSet
560 -20 m 0,0,1
 394 -20 394 -20 295 114 c 0,2,3
 220 215 220 215 220 390 c 2,4,-1
 220 900 l 2,5,6
 220 1013 220 1013 136 1013 c 0,7,8
 54 1013 54 1013 25 900 c 1,9,-1
 10 900 l 1,10,11
 10 972 10 972 46 1029 c 0,12,13
 103 1120 103 1120 210 1120 c 0,14,15
 320 1120 320 1120 370 1028 c 0,16,17
 400 973 400 973 400 861 c 2,18,-1
 400 390 l 2,19,20
 400 279 400 279 437 210 c 0,21,22
 501 91 501 91 635 91 c 128,-1,23
 769 91 769 91 833 210 c 0,24,25
 870 279 870 279 870 383 c 2,26,-1
 870 1050 l 2,27,28
 870 1100 870 1100 920 1100 c 2,29,-1
 1000 1100 l 2,30,31
 1050 1100 1050 1100 1050 1050 c 2,32,-1
 1050 381 l 2,33,34
 1050 262 1050 262 1107 179 c 0,35,36
 1175 79 1175 79 1322 79 c 0,37,38
 1505 79 1505 79 1595 230 c 0,39,40
 1652 327 1652 327 1652 468 c 0,41,42
 1652 634 1652 634 1557 754 c 0,43,44
 1505 820 1505 820 1413 885 c 0,45,46
 1358 924 1358 924 1358 991 c 0,47,48
 1358 1047 1358 1047 1394 1084 c 0,49,50
 1431 1121 1431 1121 1486 1121 c 0,51,52
 1578 1121 1578 1121 1638 1021 c 0,53,54
 1762 814 1762 814 1762 557 c 0,55,56
 1762 367 1762 367 1669 214 c 0,57,58
 1528 -20 1528 -20 1257 -20 c 0,59,60
 1065 -20 1065 -20 962 107 c 0,61,62
 922 157 922 157 899 216 c 1,63,64
 870 135 870 135 796 62 c 0,65,66
 711 -20 711 -20 560 -20 c 0,0,1
EndSplineSet
Validated: 1
EndChar

StartChar: y
Encoding: 121 121 156
Width: 1270
Flags: MW
LayerCount: 2
Fore
SplineSet
560 -20 m 0,0,1
 394 -20 394 -20 295 114 c 0,2,3
 220 215 220 215 220 390 c 2,4,-1
 220 900 l 2,5,6
 220 1013 220 1013 136 1013 c 0,7,8
 54 1013 54 1013 25 900 c 1,9,-1
 10 900 l 1,10,11
 10 972 10 972 46 1029 c 0,12,13
 103 1120 103 1120 210 1120 c 0,14,15
 319 1120 319 1120 370 1028 c 0,16,17
 400 973 400 973 400 861 c 2,18,-1
 400 390 l 2,19,20
 400 279 400 279 437 210 c 0,21,22
 501 91 501 91 635 91 c 128,-1,23
 769 91 769 91 833 210 c 0,24,25
 870 279 870 279 870 390 c 2,26,-1
 870 1050 l 2,27,28
 870 1100 870 1100 920 1100 c 2,29,-1
 1000 1100 l 2,30,31
 1050 1100 1050 1100 1050 1050 c 2,32,-1
 1050 100 l 2,33,34
 1050 -164 1050 -164 902 -302 c 0,35,36
 766 -430 766 -430 575 -430 c 0,37,38
 428 -430 428 -430 325 -360 c 0,39,40
 242 -304 242 -304 242 -212 c 0,41,42
 242 -157 242 -157 280 -118.5 c 128,-1,43
 318 -80 318 -80 372 -80 c 128,-1,44
 426 -80 426 -80 463.5 -118.5 c 128,-1,45
 501 -157 501 -157 501 -212 c 128,-1,46
 501 -267 501 -267 464 -306 c 0,47,48
 438 -333 438 -333 394 -339 c 1,49,50
 458 -369 458 -369 548 -369 c 0,51,52
 695 -369 695 -369 797 -246 c 0,53,54
 870 -158 870 -158 870 0 c 2,55,-1
 870 192 l 1,56,57
 842 119 842 119 787 66 c 0,58,59
 698 -20 698 -20 560 -20 c 0,0,1
EndSplineSet
Validated: 1
EndChar

StartChar: z
Encoding: 122 122 157
Width: 1051
Flags: MW
LayerCount: 2
Fore
SplineSet
63 -20 m 1,0,-1
 50 -10 l 1,1,-1
 712 983 l 1,2,3
 601 983 601 983 513 1015 c 0,4,5
 427 1046 427 1046 377 1046 c 0,6,7
 274 1046 274 1046 234 996 c 1,8,9
 281 996 281 996 312 969 c 0,10,11
 354 932 354 932 354 879 c 0,12,13
 354 824 354 824 316 785 c 0,14,15
 280 748 280 748 225 748 c 0,16,17
 171 748 171 748 133 786 c 0,18,19
 94 825 94 825 94 885 c 0,20,21
 94 996 94 996 170 1059 c 0,22,23
 244 1120 244 1120 369 1120 c 0,24,25
 417 1120 417 1120 562 1085 c 0,26,27
 649 1064 649 1064 764 1064 c 0,28,29
 872 1064 872 1064 984 1120 c 1,30,-1
 997 1110 l 1,31,-1
 335 117 l 1,32,33
 466 117 466 117 554 85 c 0,34,35
 640 54 640 54 718 54 c 0,36,37
 821 54 821 54 861 104 c 1,38,39
 814 104 814 104 783 131 c 0,40,41
 741 168 741 168 741 221 c 0,42,43
 741 276 741 276 779 315 c 0,44,45
 815 352 815 352 870 352 c 0,46,47
 924 352 924 352 962 314 c 0,48,49
 1001 275 1001 275 1001 213 c 0,50,51
 1001 104 1001 104 925 41 c 0,52,53
 851 -20 851 -20 726 -20 c 0,54,55
 650 -20 650 -20 505 15 c 0,56,57
 418 36 418 36 312 36 c 0,58,59
 188 36 188 36 63 -20 c 1,0,-1
EndSplineSet
Validated: 1
EndChar

StartChar: x
Encoding: 120 120 158
Width: 1067
Flags: MW
LayerCount: 2
Fore
SplineSet
184 -20 m 0,0,1
 92 -20 92 -20 45 59 c 0,2,3
 10 119 10 119 10 200 c 1,4,-1
 25 200 l 1,5,6
 64 55 64 55 170 55 c 0,7,8
 243 55 243 55 314 112 c 0,9,10
 443 213 443 213 547 345 c 1,11,-1
 208 970 l 2,12,13
 185 1013 185 1013 136 1013 c 0,14,15
 54 1013 54 1013 25 900 c 1,16,-1
 10 900 l 1,17,18
 10 972 10 972 46 1029 c 0,19,20
 103 1120 103 1120 210 1120 c 0,21,22
 323 1120 323 1120 373 1028 c 2,23,-1
 667 486 l 1,24,25
 773 613 773 613 878 857 c 1,26,27
 814 857 814 857 772 898 c 0,28,29
 734 935 734 935 734 991 c 0,30,31
 734 1044 734 1044 772.5 1082 c 128,-1,32
 811 1120 811 1120 868 1120 c 0,33,34
 924 1120 924 1120 962 1084 c 0,35,36
 1006 1042 1006 1042 1006 982 c 0,37,38
 1006 921 1006 921 960 820 c 0,39,40
 858 591 858 591 711 403 c 1,41,-1
 859 130 l 2,42,43
 882 87 882 87 931 87 c 0,44,45
 1013 87 1013 87 1042 200 c 1,46,-1
 1057 200 l 1,47,48
 1057 128 1057 128 1021 71 c 0,49,50
 964 -20 964 -20 857 -20 c 0,51,52
 744 -20 744 -20 694 72 c 2,53,-1
 588 268 l 1,54,55
 477 138 477 138 373 57 c 0,56,57
 274 -20 274 -20 184 -20 c 0,0,1
EndSplineSet
Validated: 1
EndChar

StartChar: AE
Encoding: 198 198 159
Width: 2169
Flags: MW
LayerCount: 2
Fore
SplineSet
167 -20 m 0,0,1
 78 -20 78 -20 36 60 c 0,2,3
 10 109 10 109 10 200 c 1,4,-1
 26 200 l 1,5,6
 56 73 56 73 136 73 c 0,7,8
 207 73 207 73 247 171 c 2,9,-1
 715 1304 l 1,10,-1
 701 1339 l 2,11,12
 667 1423 667 1423 603 1423 c 0,13,14
 532 1423 532 1423 502 1310 c 1,15,-1
 488 1310 l 1,16,17
 488 1380 488 1380 524 1439 c 0,18,19
 580 1530 580 1530 694 1530 c 0,20,21
 839 1530 839 1530 898 1387 c 2,22,-1
 1175 717 l 1,23,24
 1189 739 1189 739 1205 755 c 0,25,26
 1324 874 1324 874 1485 886 c 1,27,28
 1396 913 1396 913 1336 969 c 0,29,30
 1235 1063 1235 1063 1235 1195 c 0,31,32
 1235 1350 1235 1350 1359 1447 c 0,33,34
 1466 1530 1466 1530 1627 1530 c 0,35,36
 1795 1530 1795 1530 1886 1423 c 0,37,38
 1966 1328 1966 1328 1966 1238 c 0,39,40
 1966 1177 1966 1177 1932 1142 c 0,41,42
 1891 1100 1891 1100 1837 1100 c 128,-1,43
 1783 1100 1783 1100 1745 1138.5 c 128,-1,44
 1707 1177 1707 1177 1707 1232 c 128,-1,45
 1707 1287 1707 1287 1745 1325.5 c 128,-1,46
 1783 1364 1783 1364 1837 1364 c 2,47,-1
 1846 1364 l 1,48,49
 1783 1465 1783 1465 1650 1465 c 0,50,51
 1531 1465 1531 1465 1474 1376 c 0,52,53
 1429 1306 1429 1306 1429 1204 c 0,54,55
 1429 1068 1429 1068 1493 995 c 0,56,57
 1565 913 1565 913 1700 871 c 1,58,-1
 1700 856 l 1,59,60
 1544 836 1544 836 1444 755 c 0,61,62
 1323 657 1323 657 1323 470 c 0,63,64
 1323 282 1323 282 1406 182 c 0,65,66
 1511 55 1511 55 1667 55 c 0,67,68
 1827 55 1827 55 1929 168 c 0,69,70
 2006 253 2006 253 2054 397 c 1,71,-1
 2069 397 l 1,72,-1
 2069 211 l 1,73,74
 2034 159 2034 159 1993 117 c 0,75,76
 1859 -20 1859 -20 1660 -20 c 0,77,78
 1571 -20 1571 -20 1496 -3 c 1,79,80
 1458 -20 1458 -20 1410 -20 c 0,81,82
 1263 -20 1263 -20 1204 123 c 2,83,-1
 1048 500 l 1,84,-1
 491 500 l 1,85,-1
 335 123 l 2,86,87
 276 -20 276 -20 167 -20 c 0,0,1
1011 590 m 1,88,-1
 769 1174 l 1,89,-1
 528 590 l 1,90,-1
 1011 590 l 1,88,-1
EndSplineSet
Validated: 1
EndChar

StartChar: Eth
Encoding: 208 208 160
Width: 1504
Flags: MW
LayerCount: 2
Fore
SplineSet
280 -20 m 0,0,1
 173 -20 173 -20 116 71 c 0,2,3
 80 128 80 128 80 200 c 1,4,-1
 95 200 l 1,5,6
 124 87 124 87 206 87 c 0,7,8
 290 87 290 87 290 200 c 2,9,-1
 290 599 l 1,10,-1
 142 599 l 2,11,12
 112 599 112 599 112 629 c 2,13,-1
 112 659 l 2,14,15
 112 689 112 689 142 689 c 2,16,-1
 290 689 l 1,17,-1
 290 1150 l 2,18,19
 290 1200 290 1200 340 1200 c 2,20,-1
 440 1200 l 2,21,22
 490 1200 490 1200 490 1150 c 2,23,-1
 490 689 l 1,24,-1
 742 689 l 2,25,26
 772 689 772 689 772 659 c 2,27,-1
 772 629 l 2,28,29
 772 599 772 599 742 599 c 2,30,-1
 490 599 l 1,31,-1
 490 239 l 2,32,33
 490 162 490 162 523 121 c 0,34,35
 573 60 573 60 698 60 c 0,36,37
 945 60 945 60 1058 317 c 0,38,39
 1140 506 1140 506 1140 755 c 0,40,41
 1140 997 1140 997 1042 1191 c 0,42,43
 917 1440 917 1440 657 1440 c 0,44,45
 262 1440 262 1440 33 1045 c 1,46,-1
 20 1053 l 1,47,48
 220 1530 220 1530 687 1530 c 0,49,50
 1028 1530 1028 1530 1220 1266 c 0,51,52
 1374 1053 1374 1053 1374 754 c 0,53,54
 1374 456 1374 456 1215 235 c 0,55,56
 1031 -20 1031 -20 729 -20 c 0,57,58
 533 -20 533 -20 444 64 c 1,59,60
 384 -20 384 -20 280 -20 c 0,0,1
EndSplineSet
Validated: 1
EndChar

StartChar: Dcroat
Encoding: 272 272 161
Width: 1504
Flags: MW
LayerCount: 2
Fore
SplineSet
280 -20 m 0,0,1
 173 -20 173 -20 116 71 c 0,2,3
 80 128 80 128 80 200 c 1,4,-1
 95 200 l 1,5,6
 124 87 124 87 206 87 c 0,7,8
 290 87 290 87 290 200 c 2,9,-1
 290 599 l 1,10,-1
 142 599 l 2,11,12
 112 599 112 599 112 629 c 2,13,-1
 112 659 l 2,14,15
 112 689 112 689 142 689 c 2,16,-1
 290 689 l 1,17,-1
 290 1150 l 2,18,19
 290 1200 290 1200 340 1200 c 2,20,-1
 440 1200 l 2,21,22
 490 1200 490 1200 490 1150 c 2,23,-1
 490 689 l 1,24,-1
 742 689 l 2,25,26
 772 689 772 689 772 659 c 2,27,-1
 772 629 l 2,28,29
 772 599 772 599 742 599 c 2,30,-1
 490 599 l 1,31,-1
 490 239 l 2,32,33
 490 162 490 162 523 121 c 0,34,35
 573 60 573 60 698 60 c 0,36,37
 945 60 945 60 1058 317 c 0,38,39
 1140 506 1140 506 1140 755 c 0,40,41
 1140 997 1140 997 1042 1191 c 0,42,43
 917 1440 917 1440 657 1440 c 0,44,45
 262 1440 262 1440 33 1045 c 1,46,-1
 20 1053 l 1,47,48
 220 1530 220 1530 687 1530 c 0,49,50
 1028 1530 1028 1530 1220 1266 c 0,51,52
 1374 1053 1374 1053 1374 754 c 0,53,54
 1374 456 1374 456 1215 235 c 0,55,56
 1031 -20 1031 -20 729 -20 c 0,57,58
 533 -20 533 -20 444 64 c 1,59,60
 384 -20 384 -20 280 -20 c 0,0,1
EndSplineSet
Validated: 1
EndChar

StartChar: Hbar
Encoding: 294 294 162
Width: 1417
Flags: MW
LayerCount: 2
Fore
SplineSet
230.5 -20 m 128,-1,1
 123 -20 123 -20 66 71 c 0,2,3
 30 128 30 128 30 200 c 1,4,-1
 45 200 l 1,5,6
 74 87 74 87 156 87 c 0,7,8
 240 87 240 87 240 200 c 2,9,-1
 240 1220 l 1,10,-1
 145 1220 l 2,11,12
 115 1220 115 1220 115 1250 c 2,13,-1
 115 1280 l 2,14,15
 115 1310 115 1310 145 1310 c 2,16,-1
 240 1310 l 1,17,18
 240 1423 240 1423 156 1423 c 0,19,20
 74 1423 74 1423 45 1310 c 1,21,-1
 30 1310 l 1,22,23
 30 1382 30 1382 66 1439 c 0,24,25
 123 1530 123 1530 230.5 1530 c 128,-1,26
 338 1530 338 1530 400 1438 c 0,27,28
 432 1390 432 1390 439 1310 c 1,29,-1
 978 1310 l 1,30,31
 984 1390 984 1390 1017 1438 c 0,32,33
 1079 1530 1079 1530 1186.5 1530 c 128,-1,34
 1294 1530 1294 1530 1351 1439 c 0,35,36
 1387 1382 1387 1382 1387 1310 c 1,37,-1
 1372 1310 l 1,38,39
 1343 1423 1343 1423 1261 1423 c 0,40,41
 1177 1423 1177 1423 1177 1310 c 1,42,-1
 1272 1310 l 2,43,44
 1302 1310 1302 1310 1302 1280 c 2,45,-1
 1302 1250 l 2,46,47
 1302 1220 1302 1220 1272 1220 c 2,48,-1
 1177 1220 l 1,49,-1
 1177 200 l 2,50,51
 1177 87 1177 87 1261 87 c 0,52,53
 1343 87 1343 87 1372 200 c 1,54,-1
 1387 200 l 1,55,56
 1387 128 1387 128 1351 71 c 0,57,58
 1294 -20 1294 -20 1186.5 -20 c 128,-1,59
 1079 -20 1079 -20 1017 72 c 0,60,61
 977 131 977 131 977 239 c 2,62,-1
 977 600 l 1,63,-1
 440 600 l 1,64,-1
 440 239 l 2,65,66
 440 131 440 131 400 72 c 0,67,0
 338 -20 338 -20 230.5 -20 c 128,-1,1
440 1220 m 1,68,-1
 440 690 l 1,69,-1
 977 690 l 1,70,-1
 977 1220 l 1,71,-1
 440 1220 l 1,68,-1
EndSplineSet
Validated: 1
EndChar

StartChar: Lslash
Encoding: 321 321 163
Width: 1218
Flags: MW
LayerCount: 2
Fore
SplineSet
230 -20 m 0,0,1
 123 -20 123 -20 66 71 c 0,2,3
 30 128 30 128 30 200 c 1,4,-1
 45 200 l 1,5,6
 74 87 74 87 156 87 c 0,7,8
 240 87 240 87 240 200 c 2,9,-1
 240 457 l 1,10,-1
 152 406 l 2,11,12
 143 401 143 401 135 401 c 0,13,14
 120 401 120 401 111 417 c 2,15,-1
 96 443 l 2,16,17
 91 452 91 452 91 461 c 0,18,19
 91 475 91 475 107 484 c 2,20,-1
 240 561 l 1,21,-1
 240 960 l 2,22,23
 240 1246 240 1246 400 1394 c 0,24,25
 546 1530 546 1530 744 1530 c 0,26,27
 974 1530 974 1530 1077 1325 c 0,28,29
 1098 1283 1098 1283 1098 1228 c 128,-1,30
 1098 1173 1098 1173 1060.5 1134.5 c 128,-1,31
 1023 1096 1023 1096 969 1096 c 128,-1,32
 915 1096 915 1096 877 1134.5 c 128,-1,33
 839 1173 839 1173 839 1228 c 128,-1,34
 839 1283 839 1283 877 1321.5 c 128,-1,35
 915 1360 915 1360 969 1360 c 2,36,-1
 978 1360 l 1,37,38
 880 1455 880 1455 770 1455 c 0,39,40
 596 1455 596 1455 512 1309 c 0,41,42
 440 1183 440 1183 440 960 c 2,43,-1
 440 677 l 1,44,-1
 759 861 l 2,45,46
 768 866 768 866 777 866 c 0,47,48
 791 866 791 866 800 850 c 2,49,-1
 815 824 l 2,50,51
 820 815 820 815 820 806 c 0,52,53
 820 792 820 792 804 783 c 2,54,-1
 440 573 l 1,55,-1
 440 239 l 2,56,57
 440 157 440 157 418 106 c 1,58,59
 469 117 469 117 532 117 c 0,60,61
 644 117 644 117 732 85 c 0,62,63
 818 54 818 54 901 54 c 0,64,65
 1008 54 1008 54 1048 104 c 1,66,67
 1002 104 1002 104 970 131 c 0,68,69
 928 168 928 168 928 221 c 0,70,71
 928 276 928 276 966 315 c 0,72,73
 1002 352 1002 352 1058 352 c 0,74,75
 1112 352 1112 352 1150 314 c 0,76,77
 1188 275 1188 275 1188 213 c 0,78,79
 1188 104 1188 104 1112 41 c 0,80,81
 1038 -20 1038 -20 909 -20 c 0,82,83
 828 -20 828 -20 682 15 c 0,84,85
 596 36 596 36 515 36 c 0,86,87
 448 36 448 36 374 8 c 128,-1,88
 300 -20 300 -20 230 -20 c 0,0,1
EndSplineSet
Validated: 1
EndChar

StartChar: Eng
Encoding: 330 330 164
Width: 1480
Flags: MW
LayerCount: 2
Fore
SplineSet
290 0 m 2,0,1
 240 0 240 0 240 50 c 2,2,-1
 240 1310 l 2,3,4
 240 1423 240 1423 156 1423 c 0,5,6
 74 1423 74 1423 45 1310 c 1,7,-1
 30 1310 l 1,8,9
 30 1383 30 1383 66 1439 c 0,10,11
 124 1530 124 1530 230 1530 c 0,12,13
 338 1530 338 1530 400 1438 c 0,14,15
 437 1383 437 1383 437 1294 c 1,16,17
 453 1342 453 1342 496 1394 c 0,18,19
 609 1530 609 1530 800 1530 c 0,20,21
 1036 1530 1036 1530 1163 1344 c 0,22,23
 1240 1231 1240 1231 1240 1000 c 2,24,-1
 1240 0 l 2,25,26
 1240 -347 1240 -347 850 -430 c 1,27,-1
 850 -415 l 1,28,29
 1040 -300 1040 -300 1040 0 c 2,30,-1
 1040 1002 l 2,31,32
 1040 1169 1040 1169 999 1259 c 0,33,34
 930 1411 930 1411 742 1411 c 0,35,36
 559 1411 559 1411 483 1244 c 0,37,38
 440 1150 440 1150 440 1000 c 2,39,-1
 440 50 l 2,40,41
 440 0 440 0 390 0 c 2,42,-1
 290 0 l 2,0,1
EndSplineSet
Validated: 1
EndChar

StartChar: Oslash
Encoding: 216 216 165
Width: 1424
Flags: MW
LayerCount: 2
Fore
SplineSet
712 -20 m 0,0,1
 598 -20 598 -20 500 26 c 1,2,-1
 463 -75 l 2,3,4
 453 -102 453 -102 430 -102 c 0,5,6
 422 -102 422 -102 412 -99 c 2,7,-1
 393 -92 l 2,8,9
 366 -82 366 -82 366 -59 c 0,10,11
 366 -51 366 -51 369 -41 c 2,12,-1
 412 78 l 1,13,14
 379 103 379 103 348 134 c 0,15,16
 130 353 130 353 130 755 c 0,17,18
 130 1152 130 1152 348 1376 c 0,19,20
 498 1530 498 1530 712 1530 c 0,21,22
 828 1530 828 1530 925 1485 c 1,23,-1
 961 1585 l 2,24,25
 971 1612 971 1612 994 1612 c 0,26,27
 1002 1612 1002 1612 1012 1609 c 2,28,-1
 1031 1602 l 2,29,30
 1058 1592 1058 1592 1058 1569 c 0,31,32
 1058 1561 1058 1561 1055 1551 c 2,33,-1
 1012 1433 l 1,34,35
 1045 1408 1045 1408 1076 1376 c 0,36,37
 1294 1152 1294 1152 1294 755 c 0,38,39
 1294 353 1294 353 1077 139 c 0,40,41
 916 -20 916 -20 712 -20 c 0,0,1
535 123 m 1,42,43
 613 55 613 55 712 55 c 0,44,45
 863 55 863 55 952 185 c 0,46,47
 1074 364 1074 364 1074 755 c 0,48,49
 1074 1132 1074 1132 963 1300 c 1,50,-1
 535 123 l 1,42,43
461 211 m 1,51,-1
 888 1385 l 1,52,53
 807 1455 807 1455 712 1455 c 0,54,55
 574 1455 574 1455 478 1324 c 0,56,57
 350 1150 350 1150 350 755 c 0,58,59
 350 386 350 386 461 211 c 1,51,-1
EndSplineSet
Validated: 1
EndChar

StartChar: OE
Encoding: 338 338 166
Width: 1974
Flags: MW
LayerCount: 2
Fore
SplineSet
1074 755 m 0,0,1
 1074 1161 1074 1161 946 1324 c 0,2,3
 843 1455 843 1455 712 1455 c 0,4,5
 574 1455 574 1455 478 1324 c 0,6,7
 350 1150 350 1150 350 755 c 0,8,9
 350 359 350 359 478 186 c 0,10,11
 575 55 575 55 712 55 c 0,12,13
 863 55 863 55 952 185 c 0,14,15
 1074 364 1074 364 1074 755 c 0,0,1
712 -20 m 0,16,17
 502 -20 502 -20 348 134 c 0,18,19
 130 352 130 352 130 755 c 0,20,21
 130 1152 130 1152 348 1376 c 0,22,23
 498 1530 498 1530 712 1530 c 0,24,25
 922 1530 922 1530 1076 1376 c 0,26,27
 1082 1370 1082 1370 1087 1364 c 1,28,29
 1117 1410 1117 1410 1164 1447 c 0,30,31
 1269 1530 1269 1530 1432 1530 c 0,32,33
 1600 1530 1600 1530 1691 1423 c 0,34,35
 1771 1328 1771 1328 1771 1238 c 0,36,37
 1771 1177 1771 1177 1737 1142 c 0,38,39
 1696 1100 1696 1100 1642 1100 c 128,-1,40
 1588 1100 1588 1100 1550 1138.5 c 128,-1,41
 1512 1177 1512 1177 1512 1232 c 128,-1,42
 1512 1287 1512 1287 1550 1325.5 c 128,-1,43
 1588 1364 1588 1364 1642 1364 c 2,44,-1
 1651 1364 l 1,45,46
 1588 1465 1588 1465 1455 1465 c 0,47,48
 1336 1465 1336 1465 1279 1376 c 0,49,50
 1234 1306 1234 1306 1234 1204 c 0,51,52
 1234 1068 1234 1068 1298 995 c 0,53,54
 1370 913 1370 913 1505 871 c 1,55,-1
 1505 856 l 1,56,57
 1382 840 1382 840 1294 786 c 1,58,59
 1294 771 1294 771 1294 755 c 0,60,61
 1294 449 1294 449 1168 251 c 1,62,63
 1186 213 1186 213 1211 182 c 0,64,65
 1313 55 1313 55 1472 55 c 0,66,67
 1634 55 1634 55 1734 168 c 0,68,69
 1811 253 1811 253 1859 397 c 1,70,-1
 1874 397 l 1,71,-1
 1874 211 l 1,72,73
 1839 159 1839 159 1798 117 c 0,74,75
 1664 -20 1664 -20 1465 -20 c 0,76,77
 1216 -20 1216 -20 1078 104 c 0,78,79
 1068 113 1068 113 1058 121 c 1,80,81
 904 -20 904 -20 712 -20 c 0,16,17
EndSplineSet
Validated: 1
EndChar

StartChar: Scommaaccent
Encoding: 536 536 167
Width: 1261
Flags: MW
LayerCount: 2
Fore
SplineSet
583 -80 m 0,0,1
 626 -80 626 -80 651 -108 c 128,-1,2
 676 -136 676 -136 676 -173 c 0,3,4
 676 -224 676 -224 633 -248 c 2,5,6
 356 -404 l 1,7,-1
 340 -386 l 1,8,-1
 502 -125 l 2,9,10
 530 -80 530 -80 583 -80 c 0,0,1
585 -20 m 0,11,12
 359 -20 359 -20 230 109 c 0,13,14
 120 219 120 219 120 348 c 0,15,16
 120 417 120 417 158.5 454.5 c 128,-1,17
 197 492 197 492 251 492 c 128,-1,18
 305 492 305 492 343 454 c 128,-1,19
 381 416 381 416 381 363 c 0,20,21
 381 308 381 308 341 268 c 0,22,23
 303 230 303 230 234 230 c 1,24,25
 333 55 333 55 563 55 c 0,26,27
 769 55 769 55 865 187 c 0,28,29
 937 286 937 286 937 418 c 0,30,31
 937 624 937 624 701 727 c 2,32,-1
 523 805 l 2,33,34
 222 937 222 937 222 1189 c 0,35,36
 222 1327 222 1327 345 1438 c 0,37,38
 447 1530 447 1530 631 1530 c 0,39,40
 892 1530 892 1530 995 1325 c 0,41,42
 1016 1283 1016 1283 1016 1228 c 128,-1,43
 1016 1173 1016 1173 978.5 1134.5 c 128,-1,44
 941 1096 941 1096 887 1096 c 128,-1,45
 833 1096 833 1096 795 1134.5 c 128,-1,46
 757 1173 757 1173 757 1228 c 128,-1,47
 757 1283 757 1283 795 1321.5 c 128,-1,48
 833 1360 833 1360 887 1360 c 2,49,-1
 896 1360 l 1,50,51
 802 1455 802 1455 670 1455 c 0,52,53
 545 1455 545 1455 478 1390 c 0,54,55
 410 1324 410 1324 410 1223 c 0,56,57
 410 1074 410 1074 605 990 c 2,58,-1
 806 903 l 2,59,60
 1141 758 1141 758 1141 463 c 0,61,62
 1141 260 1141 260 978 113 c 0,63,64
 832 -20 832 -20 585 -20 c 0,11,12
EndSplineSet
Validated: 1
EndChar

StartChar: Tbar
Encoding: 358 358 168
Width: 1296
Flags: MW
LayerCount: 2
Fore
SplineSet
560 -20 m 0,0,1
 453 -20 453 -20 396 71 c 0,2,3
 360 128 360 128 360 200 c 1,4,-1
 374 200 l 1,5,6
 404 87 404 87 486 87 c 0,7,8
 570 87 570 87 570 200 c 2,9,-1
 570 569 l 1,10,-1
 410 569 l 2,11,12
 380 569 380 569 380 599 c 2,13,-1
 380 629 l 2,14,15
 380 659 380 659 410 659 c 2,16,-1
 570 659 l 1,17,-1
 570 1150 l 2,18,19
 570 1200 570 1200 620 1200 c 2,20,-1
 720 1200 l 2,21,22
 770 1200 770 1200 770 1150 c 2,23,-1
 770 659 l 1,24,-1
 946 659 l 2,25,26
 976 659 976 659 976 629 c 2,27,-1
 976 599 l 2,28,29
 976 569 976 569 946 569 c 2,30,-1
 770 569 l 1,31,-1
 770 239 l 2,32,33
 769 131 769 131 730 72 c 0,34,35
 668 -20 668 -20 560 -20 c 0,0,1
639 1510 m 2,36,-1
 938 1510 l 2,37,38
 1082 1510 1082 1510 1174 1449 c 128,-1,39
 1266 1388 1266 1388 1266 1292 c 0,40,41
 1266 1237 1266 1237 1228 1198 c 0,42,43
 1191 1159 1191 1159 1136 1159 c 0,44,45
 1084 1159 1084 1159 1044 1197 c 0,46,47
 1006 1234 1006 1234 1006 1284 c 0,48,49
 1006 1394 1006 1394 1129 1403 c 1,50,51
 1095 1420 1095 1420 940 1420 c 2,52,-1
 631 1420 l 2,53,54
 258 1420 258 1420 24 1025 c 1,55,-1
 10 1033 l 1,56,57
 185 1510 185 1510 639 1510 c 2,36,-1
EndSplineSet
Validated: 1
EndChar

StartChar: uni021A
Encoding: 538 538 169
Width: 1296
Flags: MW
LayerCount: 2
Fore
SplineSet
560 -80 m 0,0,1
 603 -80 603 -80 628 -108 c 128,-1,2
 653 -136 653 -136 653 -173 c 0,3,4
 653 -224 653 -224 610 -248 c 2,5,6
 333 -404 l 1,7,-1
 317 -386 l 1,8,-1
 479 -125 l 2,9,10
 507 -80 507 -80 560 -80 c 0,0,1
560 -20 m 0,11,12
 453 -20 453 -20 396 71 c 0,13,14
 360 128 360 128 360 200 c 1,15,-1
 374 200 l 1,16,17
 404 87 404 87 486 87 c 0,18,19
 570 87 570 87 570 200 c 2,20,-1
 570 1150 l 2,21,22
 570 1200 570 1200 620 1200 c 2,23,-1
 720 1200 l 2,24,25
 770 1200 770 1200 770 1150 c 2,26,-1
 770 239 l 2,27,28
 769 131 769 131 730 72 c 0,29,30
 668 -20 668 -20 560 -20 c 0,11,12
639 1510 m 2,31,-1
 938 1510 l 2,32,33
 1082 1510 1082 1510 1174 1449 c 128,-1,34
 1266 1388 1266 1388 1266 1292 c 0,35,36
 1266 1237 1266 1237 1228 1198 c 0,37,38
 1191 1159 1191 1159 1136 1159 c 0,39,40
 1084 1159 1084 1159 1044 1197 c 0,41,42
 1006 1234 1006 1234 1006 1284 c 0,43,44
 1006 1394 1006 1394 1129 1403 c 1,45,46
 1095 1420 1095 1420 940 1420 c 2,47,-1
 631 1420 l 2,48,49
 258 1420 258 1420 24 1025 c 1,50,-1
 10 1033 l 1,51,52
 185 1510 185 1510 639 1510 c 2,31,-1
EndSplineSet
Validated: 1
EndChar

StartChar: uni1E02
Encoding: 7682 7682 170
Width: 1405
Flags: MW
LayerCount: 2
Fore
SplineSet
666 1864 m 128,-1,1
 720 1864 720 1864 757.5 1825.5 c 128,-1,2
 795 1787 795 1787 795 1732 c 128,-1,3
 795 1677 795 1677 757.5 1638.5 c 128,-1,4
 720 1600 720 1600 666 1600 c 128,-1,5
 612 1600 612 1600 574 1638.5 c 128,-1,6
 536 1677 536 1677 536 1732 c 128,-1,7
 536 1787 536 1787 574 1825.5 c 128,-1,0
 612 1864 612 1864 666 1864 c 128,-1,1
280 -20 m 0,8,9
 173 -20 173 -20 116 71 c 0,10,11
 80 128 80 128 80 200 c 1,12,-1
 95 200 l 1,13,14
 124 87 124 87 206 87 c 0,15,16
 290 87 290 87 290 200 c 2,17,-1
 290 1150 l 2,18,19
 290 1200 290 1200 340 1200 c 2,20,-1
 440 1200 l 2,21,22
 490 1200 490 1200 490 1150 c 2,23,-1
 490 239 l 2,24,25
 490 162 490 162 523 121 c 0,26,27
 573 60 573 60 698 60 c 0,28,29
 877 60 877 60 988 215 c 0,30,31
 1054 308 1054 308 1054 462 c 0,32,33
 1054 628 1054 628 936 725 c 0,34,35
 834 809 834 809 642 841 c 1,36,37
 770 873 770 873 831 948 c 0,38,39
 909 1045 909 1045 909 1176 c 0,40,41
 909 1285 909 1285 853 1351 c 0,42,43
 776 1440 776 1440 641 1440 c 0,44,45
 264 1440 264 1440 34 1045 c 1,46,-1
 20 1053 l 1,47,48
 220 1530 220 1530 663 1530 c 0,49,50
 894 1530 894 1530 1015 1405 c 0,51,52
 1114 1303 1114 1303 1114 1178 c 0,53,54
 1114 1036 1114 1036 1008 944 c 0,55,56
 934 880 934 880 857 859 c 1,57,58
 1005 840 1005 840 1086 790 c 0,59,60
 1275 675 1275 675 1275 457 c 0,61,62
 1275 247 1275 247 1097 104 c 0,63,64
 943 -20 943 -20 713 -20 c 0,65,66
 533 -20 533 -20 444 64 c 1,67,68
 384 -20 384 -20 280 -20 c 0,8,9
EndSplineSet
Validated: 1
EndChar

StartChar: uni1E03
Encoding: 7683 7683 171
Width: 1199
Flags: MW
LayerCount: 2
Fore
SplineSet
229 1864 m 128,-1,1
 283 1864 283 1864 320.5 1825.5 c 128,-1,2
 358 1787 358 1787 358 1732 c 128,-1,3
 358 1677 358 1677 320.5 1638.5 c 128,-1,4
 283 1600 283 1600 229 1600 c 128,-1,5
 175 1600 175 1600 137 1638.5 c 128,-1,6
 99 1677 99 1677 99 1732 c 128,-1,7
 99 1787 99 1787 137 1825.5 c 128,-1,0
 175 1864 175 1864 229 1864 c 128,-1,1
635 -20 m 0,8,9
 431 -20 431 -20 321 110 c 0,10,11
 220 229 220 229 220 450 c 2,12,-1
 220 1310 l 2,13,14
 220 1423 220 1423 136 1423 c 0,15,16
 54 1423 54 1423 25 1310 c 1,17,-1
 10 1310 l 1,18,19
 10 1382 10 1382 46 1439 c 0,20,21
 103 1530 103 1530 210 1530 c 0,22,23
 320 1530 320 1530 370 1438 c 0,24,25
 400 1383 400 1383 400 1271 c 2,26,-1
 400 1006 l 1,27,28
 471 1120 471 1120 634 1120 c 0,29,30
 829 1120 829 1120 960 956 c 0,31,32
 1089 794 1089 794 1089 549 c 0,33,34
 1089 290 1089 290 960 144 c 0,35,36
 815 -20 815 -20 635 -20 c 0,8,9
602 55 m 0,37,38
 744 55 744 55 827 208 c 0,39,40
 889 323 889 323 889 550 c 128,-1,41
 889 777 889 777 827 892 c 0,42,43
 744 1045 744 1045 602 1045 c 0,44,45
 516 1045 516 1045 464 986 c 0,46,47
 400 914 400 914 400 781 c 2,48,-1
 400 319 l 2,49,50
 400 186 400 186 464 114 c 0,51,52
 516 55 516 55 602 55 c 0,37,38
EndSplineSet
Validated: 1
EndChar

StartChar: uni1E0A
Encoding: 7690 7690 172
Width: 1504
Flags: MW
LayerCount: 2
Fore
SplineSet
691 1864 m 128,-1,1
 745 1864 745 1864 782.5 1825.5 c 128,-1,2
 820 1787 820 1787 820 1732 c 128,-1,3
 820 1677 820 1677 782.5 1638.5 c 128,-1,4
 745 1600 745 1600 691 1600 c 128,-1,5
 637 1600 637 1600 599 1638.5 c 128,-1,6
 561 1677 561 1677 561 1732 c 128,-1,7
 561 1787 561 1787 599 1825.5 c 128,-1,0
 637 1864 637 1864 691 1864 c 128,-1,1
280 -20 m 0,8,9
 173 -20 173 -20 116 71 c 0,10,11
 80 128 80 128 80 200 c 1,12,-1
 95 200 l 1,13,14
 124 87 124 87 206 87 c 0,15,16
 290 87 290 87 290 200 c 2,17,-1
 290 1150 l 2,18,19
 290 1200 290 1200 340 1200 c 2,20,-1
 440 1200 l 2,21,22
 490 1200 490 1200 490 1150 c 2,23,-1
 490 239 l 2,24,25
 490 162 490 162 523 121 c 0,26,27
 573 60 573 60 698 60 c 0,28,29
 945 60 945 60 1058 317 c 0,30,31
 1140 506 1140 506 1140 755 c 0,32,33
 1140 997 1140 997 1042 1191 c 0,34,35
 917 1440 917 1440 657 1440 c 0,36,37
 262 1440 262 1440 33 1045 c 1,38,-1
 20 1053 l 1,39,40
 220 1530 220 1530 687 1530 c 0,41,42
 1028 1530 1028 1530 1220 1266 c 0,43,44
 1374 1053 1374 1053 1374 754 c 0,45,46
 1374 456 1374 456 1215 235 c 0,47,48
 1031 -20 1031 -20 729 -20 c 0,49,50
 533 -20 533 -20 444 64 c 1,51,52
 384 -20 384 -20 280 -20 c 0,8,9
EndSplineSet
Validated: 1
EndChar

StartChar: uni1E0B
Encoding: 7691 7691 173
Width: 1199
Flags: MW
LayerCount: 2
Fore
SplineSet
806 1864 m 128,-1,1
 860 1864 860 1864 897.5 1825.5 c 128,-1,2
 935 1787 935 1787 935 1732 c 128,-1,3
 935 1677 935 1677 897.5 1638.5 c 128,-1,4
 860 1600 860 1600 806 1600 c 128,-1,5
 752 1600 752 1600 714 1638.5 c 128,-1,6
 676 1677 676 1677 676 1732 c 128,-1,7
 676 1787 676 1787 714 1825.5 c 128,-1,0
 752 1864 752 1864 806 1864 c 128,-1,1
597 55 m 0,8,9
 683 55 683 55 735 114 c 0,10,11
 799 186 799 186 799 319 c 2,12,-1
 799 781 l 2,13,14
 799 914 799 914 735 986 c 0,15,16
 683 1045 683 1045 597 1045 c 0,17,18
 455 1045 455 1045 372 892 c 0,19,20
 310 777 310 777 310 550 c 128,-1,21
 310 323 310 323 372 208 c 0,22,23
 455 55 455 55 597 55 c 0,8,9
565 -20 m 0,24,25
 383 -20 383 -20 239 144 c 0,26,27
 110 291 110 291 110 549 c 0,28,29
 110 797 110 797 239 956 c 0,30,31
 372 1120 372 1120 565 1120 c 0,32,33
 728 1120 728 1120 799 1006 c 1,34,-1
 799 1310 l 2,35,36
 799 1423 799 1423 715 1423 c 0,37,38
 633 1423 633 1423 604 1310 c 1,39,-1
 589 1310 l 1,40,41
 589 1382 589 1382 625 1439 c 0,42,43
 682 1530 682 1530 789 1530 c 128,-1,44
 896 1530 896 1530 949 1438 c 0,45,46
 979 1383 979 1383 979 1271 c 2,47,-1
 979 200 l 2,48,49
 979 87 979 87 1063 87 c 0,50,51
 1145 87 1145 87 1174 200 c 1,52,-1
 1189 200 l 1,53,54
 1189 128 1189 128 1153 71 c 0,55,56
 1096 -20 1096 -20 989 -20 c 0,57,58
 877 -20 877 -20 829 72 c 0,59,60
 818 93 818 93 812 116 c 1,61,62
 743 -20 743 -20 565 -20 c 0,24,25
EndSplineSet
Validated: 1
EndChar

StartChar: uni1E1E
Encoding: 7710 7710 174
Width: 1128
Flags: MW
LayerCount: 2
Fore
SplineSet
677 1864 m 128,-1,1
 731 1864 731 1864 768.5 1825.5 c 128,-1,2
 806 1787 806 1787 806 1732 c 128,-1,3
 806 1677 806 1677 768.5 1638.5 c 128,-1,4
 731 1600 731 1600 677 1600 c 128,-1,5
 623 1600 623 1600 585 1638.5 c 128,-1,6
 547 1677 547 1677 547 1732 c 128,-1,7
 547 1787 547 1787 585 1825.5 c 128,-1,0
 623 1864 623 1864 677 1864 c 128,-1,1
230.5 -20 m 128,-1,9
 123 -20 123 -20 66 71 c 0,10,11
 30 128 30 128 30 200 c 1,12,-1
 45 200 l 1,13,14
 74 87 74 87 156 87 c 0,15,16
 240 87 240 87 240 200 c 2,17,-1
 240 600 l 1,18,-1
 89 600 l 2,19,20
 59 600 59 600 59 630 c 2,21,-1
 59 660 l 2,22,23
 59 690 59 690 89 690 c 2,24,-1
 240 690 l 1,25,-1
 240 960 l 2,26,27
 240 1246 240 1246 400 1394 c 0,28,29
 546 1530 546 1530 744 1530 c 0,30,31
 974 1530 974 1530 1077 1325 c 0,32,33
 1098 1283 1098 1283 1098 1228 c 128,-1,34
 1098 1173 1098 1173 1060.5 1134.5 c 128,-1,35
 1023 1096 1023 1096 969 1096 c 128,-1,36
 915 1096 915 1096 877 1134.5 c 128,-1,37
 839 1173 839 1173 839 1228 c 128,-1,38
 839 1283 839 1283 877 1321.5 c 128,-1,39
 915 1360 915 1360 969 1360 c 2,40,-1
 978 1360 l 1,41,42
 880 1455 880 1455 770 1455 c 0,43,44
 597 1455 597 1455 512 1309 c 0,45,46
 440 1184 440 1184 440 960 c 2,47,-1
 440 690 l 1,48,-1
 839 690 l 2,49,50
 869 690 869 690 869 660 c 2,51,-1
 869 630 l 2,52,53
 869 600 869 600 839 600 c 2,54,-1
 440 600 l 1,55,-1
 440 239 l 2,56,57
 440 131 440 131 400 72 c 0,58,8
 338 -20 338 -20 230.5 -20 c 128,-1,9
EndSplineSet
Validated: 1
EndChar

StartChar: uni1E1F
Encoding: 7711 7711 175
Width: 979
Flags: MW
LayerCount: 2
Fore
SplineSet
540 1864 m 128,-1,1
 594 1864 594 1864 631.5 1825.5 c 128,-1,2
 669 1787 669 1787 669 1732 c 128,-1,3
 669 1677 669 1677 631.5 1638.5 c 128,-1,4
 594 1600 594 1600 540 1600 c 128,-1,5
 486 1600 486 1600 448 1638.5 c 128,-1,6
 410 1677 410 1677 410 1732 c 128,-1,7
 410 1787 410 1787 448 1825.5 c 128,-1,0
 486 1864 486 1864 540 1864 c 128,-1,1
210 -430 m 128,-1,9
 103 -430 103 -430 46 -339 c 0,10,11
 10 -282 10 -282 10 -210 c 1,12,-1
 25 -210 l 1,13,14
 54 -323 54 -323 136 -323 c 0,15,16
 220 -323 220 -323 220 -210 c 2,17,-1
 220 600 l 1,18,-1
 89 600 l 2,19,20
 59 600 59 600 59 630 c 2,21,-1
 59 660 l 2,22,23
 59 690 59 690 89 690 c 2,24,-1
 220 690 l 1,25,-1
 220 1132 l 2,26,27
 220 1307 220 1307 338 1426 c 0,28,29
 441 1530 441 1530 619 1530 c 0,30,31
 778 1530 778 1530 869 1423 c 0,32,33
 949 1328 949 1328 949 1238 c 0,34,35
 949 1177 949 1177 915 1142 c 0,36,37
 874 1100 874 1100 820 1100 c 128,-1,38
 766 1100 766 1100 728 1138.5 c 128,-1,39
 690 1177 690 1177 690 1232 c 128,-1,40
 690 1287 690 1287 728 1325.5 c 128,-1,41
 766 1364 766 1364 820 1364 c 2,42,-1
 829 1364 l 1,43,44
 771 1460 771 1460 649 1460 c 0,45,46
 532 1460 532 1460 464 1380 c 0,47,48
 400 1305 400 1305 400 1132 c 2,49,-1
 400 690 l 1,50,-1
 689 690 l 2,51,52
 719 690 719 690 719 660 c 2,53,-1
 719 630 l 2,54,55
 719 600 719 600 689 600 c 2,56,-1
 400 600 l 1,57,-1
 400 -171 l 2,58,59
 400 -286 400 -286 370 -338 c 0,60,8
 317 -430 317 -430 210 -430 c 128,-1,9
EndSplineSet
Validated: 1
EndChar

StartChar: uni1E40
Encoding: 7744 7744 176
Width: 1966
Flags: MW
LayerCount: 2
Fore
SplineSet
1012 1864 m 128,-1,1
 1066 1864 1066 1864 1103.5 1825.5 c 128,-1,2
 1141 1787 1141 1787 1141 1732 c 128,-1,3
 1141 1677 1141 1677 1103.5 1638.5 c 128,-1,4
 1066 1600 1066 1600 1012 1600 c 128,-1,5
 958 1600 958 1600 920 1638.5 c 128,-1,6
 882 1677 882 1677 882 1732 c 128,-1,7
 882 1787 882 1787 920 1825.5 c 128,-1,0
 958 1864 958 1864 1012 1864 c 128,-1,1
166 -20 m 0,8,9
 74 -20 74 -20 32 67 c 0,10,11
 10 113 10 113 10 200 c 1,12,-1
 25 200 l 1,13,14
 63 62 63 62 141 62 c 128,-1,15
 219 62 219 62 239 200 c 2,16,-1
 394 1261 l 1,17,-1
 360 1339 l 2,18,19
 323 1423 323 1423 262 1423 c 0,20,21
 191 1423 191 1423 161 1310 c 1,22,-1
 147 1310 l 1,23,24
 147 1382 147 1382 183 1439 c 0,25,26
 240 1530 240 1530 353 1530 c 0,27,28
 495 1530 495 1530 557 1387 c 2,29,-1
 1016 326 l 1,30,-1
 1461 1387 l 2,31,32
 1521 1530 1521 1530 1629 1530 c 0,33,34
 1718 1530 1718 1530 1760 1450 c 0,35,36
 1786 1401 1786 1401 1786 1310 c 1,37,-1
 1770 1310 l 1,38,39
 1740 1442 1740 1442 1659 1442 c 0,40,41
 1595 1442 1595 1442 1569 1370 c 1,42,-1
 1754 200 l 2,43,44
 1772 87 1772 87 1838 87 c 0,45,46
 1912 87 1912 87 1942 200 c 1,47,-1
 1956 200 l 1,48,49
 1956 128 1956 128 1920 71 c 0,50,51
 1862 -20 1862 -20 1758 -20 c 0,52,53
 1638 -20 1638 -20 1586 77 c 0,54,55
 1559 127 1559 127 1542 239 c 2,56,-1
 1418 1036 l 1,57,-1
 975 -40 l 1,58,-1
 960 -40 l 1,59,-1
 471 1083 l 1,60,-1
 339 200 l 2,61,62
 324 98 324 98 295 54 c 0,63,64
 247 -20 247 -20 166 -20 c 0,8,9
EndSplineSet
Validated: 1
EndChar

StartChar: uni1E41
Encoding: 7745 7745 177
Width: 1920
Flags: MW
LayerCount: 2
Fore
SplineSet
970 1444 m 128,-1,1
 1024 1444 1024 1444 1061.5 1405.5 c 128,-1,2
 1099 1367 1099 1367 1099 1312 c 128,-1,3
 1099 1257 1099 1257 1061.5 1218.5 c 128,-1,4
 1024 1180 1024 1180 970 1180 c 128,-1,5
 916 1180 916 1180 878 1218.5 c 128,-1,6
 840 1257 840 1257 840 1312 c 128,-1,7
 840 1367 840 1367 878 1405.5 c 128,-1,0
 916 1444 916 1444 970 1444 c 128,-1,1
270 0 m 2,8,9
 220 0 220 0 220 50 c 2,10,-1
 220 900 l 2,11,12
 220 1013 220 1013 136 1013 c 0,13,14
 54 1013 54 1013 25 900 c 1,15,-1
 10 900 l 1,16,17
 10 972 10 972 46 1029 c 0,18,19
 103 1120 103 1120 210 1120 c 128,-1,20
 317 1120 317 1120 370 1028 c 0,21,22
 395 984 395 984 400 908 c 1,23,24
 428 981 428 981 483 1034 c 0,25,26
 572 1120 572 1120 710 1120 c 0,27,28
 874 1120 874 1120 975 986 c 0,29,30
 1008 942 1008 942 1028 881 c 1,31,32
 1057 967 1057 967 1129 1034 c 0,33,34
 1223 1120 1223 1120 1360 1120 c 0,35,36
 1526 1120 1526 1120 1625 986 c 0,37,38
 1700 885 1700 885 1700 710 c 2,39,-1
 1700 200 l 2,40,41
 1700 87 1700 87 1784 87 c 0,42,43
 1866 87 1866 87 1895 200 c 1,44,-1
 1910 200 l 1,45,46
 1910 128 1910 128 1874 71 c 0,47,48
 1817 -20 1817 -20 1710 -20 c 128,-1,49
 1603 -20 1603 -20 1550 72 c 0,50,51
 1520 127 1520 127 1520 239 c 2,52,-1
 1520 710 l 2,53,54
 1520 821 1520 821 1483 890 c 0,55,56
 1419 1009 1419 1009 1285 1009 c 128,-1,57
 1151 1009 1151 1009 1087 890 c 0,58,59
 1050 821 1050 821 1050 710 c 2,60,-1
 1050 50 l 2,61,62
 1050 0 1050 0 1000 0 c 2,63,-1
 920 0 l 2,64,65
 870 0 870 0 870 50 c 2,66,-1
 870 710 l 2,67,68
 870 823 870 823 833 890 c 0,69,70
 769 1009 769 1009 635 1009 c 128,-1,71
 501 1009 501 1009 437 890 c 0,72,73
 400 821 400 821 400 710 c 2,74,-1
 400 50 l 2,75,76
 400 0 400 0 350 0 c 2,77,-1
 270 0 l 2,8,9
EndSplineSet
Validated: 1
EndChar

StartChar: uni1E56
Encoding: 7766 7766 178
Width: 1416
Flags: MW
LayerCount: 2
Fore
SplineSet
703 1864 m 128,-1,1
 757 1864 757 1864 794.5 1825.5 c 128,-1,2
 832 1787 832 1787 832 1732 c 128,-1,3
 832 1677 832 1677 794.5 1638.5 c 128,-1,4
 757 1600 757 1600 703 1600 c 128,-1,5
 649 1600 649 1600 611 1638.5 c 128,-1,6
 573 1677 573 1677 573 1732 c 128,-1,7
 573 1787 573 1787 611 1825.5 c 128,-1,0
 649 1864 649 1864 703 1864 c 128,-1,1
280.5 -20 m 128,-1,9
 173 -20 173 -20 116 71 c 0,10,11
 80 128 80 128 80 200 c 1,12,-1
 95 200 l 1,13,14
 124 87 124 87 206 87 c 0,15,16
 290 87 290 87 290 200 c 2,17,-1
 290 1150 l 2,18,19
 290 1200 290 1200 340 1200 c 2,20,-1
 440 1200 l 2,21,22
 490 1200 490 1200 490 1150 c 2,23,-1
 490 657 l 1,24,25
 568 528 568 528 727 528 c 0,26,27
 884 528 884 528 970 642 c 0,28,29
 1061 763 1061 763 1061 994 c 0,30,31
 1061 1182 1061 1182 972 1302 c 0,32,33
 869 1440 869 1440 647 1440 c 0,34,35
 290 1440 290 1440 35 1047 c 1,36,-1
 20 1053 l 1,37,38
 214 1530 214 1530 701 1530 c 0,39,40
 967 1530 967 1530 1128 1377 c 0,41,42
 1286 1227 1286 1227 1286 996 c 0,43,44
 1286 792 1286 792 1174 652 c 0,45,46
 1018 458 1018 458 778 458 c 0,47,48
 590 458 590 458 490 550 c 1,49,-1
 490 239 l 2,50,51
 490 131 490 131 450 72 c 0,52,8
 388 -20 388 -20 280.5 -20 c 128,-1,9
EndSplineSet
Validated: 1
EndChar

StartChar: uni1E57
Encoding: 7767 7767 179
Width: 1199
Flags: MW
LayerCount: 2
Fore
SplineSet
616 1444 m 128,-1,1
 670 1444 670 1444 707.5 1405.5 c 128,-1,2
 745 1367 745 1367 745 1312 c 128,-1,3
 745 1257 745 1257 707.5 1218.5 c 128,-1,4
 670 1180 670 1180 616 1180 c 128,-1,5
 562 1180 562 1180 524 1218.5 c 128,-1,6
 486 1257 486 1257 486 1312 c 128,-1,7
 486 1367 486 1367 524 1405.5 c 128,-1,0
 562 1444 562 1444 616 1444 c 128,-1,1
602 55 m 0,8,9
 744 55 744 55 827 208 c 0,10,11
 889 323 889 323 889 550 c 128,-1,12
 889 777 889 777 827 892 c 0,13,14
 744 1045 744 1045 602 1045 c 0,15,16
 516 1045 516 1045 464 986 c 0,17,18
 400 914 400 914 400 781 c 2,19,-1
 400 319 l 2,20,21
 400 186 400 186 464 114 c 0,22,23
 516 55 516 55 602 55 c 0,8,9
634 -20 m 0,24,25
 471 -20 471 -20 400 94 c 1,26,-1
 400 -360 l 2,27,28
 400 -410 400 -410 350 -410 c 2,29,-1
 270 -410 l 2,30,31
 220 -410 220 -410 220 -360 c 2,32,-1
 220 900 l 2,33,34
 220 1013 220 1013 136 1013 c 0,35,36
 54 1013 54 1013 25 900 c 1,37,-1
 10 900 l 1,38,39
 10 972 10 972 46 1029 c 0,40,41
 103 1120 103 1120 210 1120 c 0,42,43
 322 1120 322 1120 370 1028 c 0,44,45
 381 1007 381 1007 387 984 c 1,46,47
 456 1120 456 1120 634 1120 c 0,48,49
 815 1120 815 1120 960 956 c 0,50,51
 1089 810 1089 810 1089 551 c 0,52,53
 1089 306 1089 306 960 144 c 0,54,55
 829 -20 829 -20 634 -20 c 0,24,25
EndSplineSet
Validated: 1
EndChar

StartChar: uni1E60
Encoding: 7776 7776 180
Width: 1261
Flags: MW
LayerCount: 2
Fore
SplineSet
633 1864 m 128,-1,1
 687 1864 687 1864 724.5 1825.5 c 128,-1,2
 762 1787 762 1787 762 1732 c 128,-1,3
 762 1677 762 1677 724.5 1638.5 c 128,-1,4
 687 1600 687 1600 633 1600 c 128,-1,5
 579 1600 579 1600 541 1638.5 c 128,-1,6
 503 1677 503 1677 503 1732 c 128,-1,7
 503 1787 503 1787 541 1825.5 c 128,-1,0
 579 1864 579 1864 633 1864 c 128,-1,1
585 -20 m 0,8,9
 359 -20 359 -20 230 109 c 0,10,11
 120 219 120 219 120 348 c 0,12,13
 120 417 120 417 158.5 454.5 c 128,-1,14
 197 492 197 492 251 492 c 128,-1,15
 305 492 305 492 343 454 c 128,-1,16
 381 416 381 416 381 363 c 0,17,18
 381 308 381 308 341 268 c 0,19,20
 303 230 303 230 234 230 c 1,21,22
 333 55 333 55 563 55 c 0,23,24
 769 55 769 55 865 187 c 0,25,26
 937 286 937 286 937 418 c 0,27,28
 937 624 937 624 701 727 c 2,29,-1
 523 805 l 2,30,31
 222 937 222 937 222 1189 c 0,32,33
 222 1327 222 1327 345 1438 c 0,34,35
 447 1530 447 1530 631 1530 c 0,36,37
 892 1530 892 1530 995 1325 c 0,38,39
 1016 1283 1016 1283 1016 1228 c 128,-1,40
 1016 1173 1016 1173 978.5 1134.5 c 128,-1,41
 941 1096 941 1096 887 1096 c 128,-1,42
 833 1096 833 1096 795 1134.5 c 128,-1,43
 757 1173 757 1173 757 1228 c 128,-1,44
 757 1283 757 1283 795 1321.5 c 128,-1,45
 833 1360 833 1360 887 1360 c 2,46,-1
 896 1360 l 1,47,48
 802 1455 802 1455 670 1455 c 0,49,50
 545 1455 545 1455 478 1390 c 0,51,52
 410 1324 410 1324 410 1223 c 0,53,54
 410 1074 410 1074 605 990 c 2,55,-1
 806 903 l 2,56,57
 1141 758 1141 758 1141 463 c 0,58,59
 1141 260 1141 260 978 113 c 0,60,61
 832 -20 832 -20 585 -20 c 0,8,9
EndSplineSet
Validated: 1
EndChar

StartChar: uni1E61
Encoding: 7777 7777 181
Width: 1020
Flags: MW
LayerCount: 2
Fore
SplineSet
538 1444 m 128,-1,1
 592 1444 592 1444 629.5 1405.5 c 128,-1,2
 667 1367 667 1367 667 1312 c 128,-1,3
 667 1257 667 1257 629.5 1218.5 c 128,-1,4
 592 1180 592 1180 538 1180 c 128,-1,5
 484 1180 484 1180 446 1218.5 c 128,-1,6
 408 1257 408 1257 408 1312 c 128,-1,7
 408 1367 408 1367 446 1405.5 c 128,-1,0
 484 1444 484 1444 538 1444 c 128,-1,1
496 -20 m 0,8,9
 290 -20 290 -20 178 117 c 0,10,11
 110 199 110 199 110 280 c 0,12,13
 110 350 110 350 154 392 c 0,14,15
 193 430 193 430 250 430 c 0,16,17
 302 430 302 430 340 399 c 0,18,19
 383 364 383 364 383 307 c 0,20,21
 383 254 383 254 348 218 c 0,22,23
 304 174 304 174 222 174 c 1,24,25
 311 63 311 63 482 63 c 0,26,27
 594 63 594 63 666 124 c 0,28,29
 740 187 740 187 740 287 c 0,30,31
 740 411 740 411 595 479 c 2,32,-1
 425 559 l 2,33,34
 207 662 207 662 207 835 c 0,35,36
 207 967 207 967 319 1056 c 0,37,38
 400 1120 400 1120 537 1120 c 0,39,40
 694 1120 694 1120 778 1021 c 0,41,42
 827 963 827 963 827 895 c 0,43,44
 827 826 827 826 783 784 c 0,45,46
 744 746 744 746 687 746 c 0,47,48
 635 746 635 746 597 777 c 0,49,50
 554 812 554 812 554 869 c 0,51,52
 554 924 554 924 589 958 c 0,53,54
 634 1003 634 1003 707 1003 c 1,55,56
 649 1047 649 1047 566 1047 c 0,57,58
 479 1047 479 1047 425 1001 c 0,59,60
 365 950 365 950 365 872 c 0,61,62
 365 770 365 770 508 704 c 2,63,-1
 663 633 l 2,64,65
 910 520 910 520 910 326 c 0,66,67
 910 167 910 167 784 72 c 0,68,69
 663 -20 663 -20 496 -20 c 0,8,9
EndSplineSet
Validated: 1
EndChar

StartChar: uni1E6A
Encoding: 7786 7786 182
Width: 1296
Flags: MW
LayerCount: 2
Fore
SplineSet
666 1864 m 128,-1,1
 720 1864 720 1864 757.5 1825.5 c 128,-1,2
 795 1787 795 1787 795 1732 c 128,-1,3
 795 1677 795 1677 757.5 1638.5 c 128,-1,4
 720 1600 720 1600 666 1600 c 128,-1,5
 612 1600 612 1600 574 1638.5 c 128,-1,6
 536 1677 536 1677 536 1732 c 128,-1,7
 536 1787 536 1787 574 1825.5 c 128,-1,0
 612 1864 612 1864 666 1864 c 128,-1,1
560 -20 m 0,8,9
 453 -20 453 -20 396 71 c 0,10,11
 360 128 360 128 360 200 c 1,12,-1
 374 200 l 1,13,14
 404 87 404 87 486 87 c 0,15,16
 570 87 570 87 570 200 c 2,17,-1
 570 1150 l 2,18,19
 570 1200 570 1200 620 1200 c 2,20,-1
 720 1200 l 2,21,22
 770 1200 770 1200 770 1150 c 2,23,-1
 770 239 l 2,24,25
 769 131 769 131 730 72 c 0,26,27
 668 -20 668 -20 560 -20 c 0,8,9
639 1510 m 2,28,-1
 938 1510 l 2,29,30
 1082 1510 1082 1510 1174 1449 c 128,-1,31
 1266 1388 1266 1388 1266 1292 c 0,32,33
 1266 1237 1266 1237 1228 1198 c 0,34,35
 1191 1159 1191 1159 1136 1159 c 0,36,37
 1084 1159 1084 1159 1044 1197 c 0,38,39
 1006 1234 1006 1234 1006 1284 c 0,40,41
 1006 1394 1006 1394 1129 1403 c 1,42,43
 1095 1420 1095 1420 940 1420 c 2,44,-1
 631 1420 l 2,45,46
 258 1420 258 1420 24 1025 c 1,47,-1
 10 1033 l 1,48,49
 185 1510 185 1510 639 1510 c 2,28,-1
EndSplineSet
Validated: 1
EndChar

StartChar: uni1E6B
Encoding: 7787 7787 183
Width: 700
Flags: MW
LayerCount: 2
Fore
SplineSet
311 1864 m 128,-1,1
 365 1864 365 1864 402.5 1825.5 c 128,-1,2
 440 1787 440 1787 440 1732 c 128,-1,3
 440 1677 440 1677 402.5 1638.5 c 128,-1,4
 365 1600 365 1600 311 1600 c 128,-1,5
 257 1600 257 1600 219 1638.5 c 128,-1,6
 181 1677 181 1677 181 1732 c 128,-1,7
 181 1787 181 1787 219 1825.5 c 128,-1,0
 257 1864 257 1864 311 1864 c 128,-1,1
450 -20 m 128,-1,9
 343 -20 343 -20 290 72 c 0,10,11
 260 127 260 127 260 239 c 2,12,-1
 260 1010 l 1,13,-1
 50 1010 l 2,14,15
 20 1010 20 1010 20 1040 c 2,16,-1
 20 1070 l 2,17,18
 20 1100 20 1100 50 1100 c 2,19,-1
 260 1100 l 1,20,-1
 260 1310 l 2,21,22
 260 1423 260 1423 176 1423 c 0,23,24
 94 1423 94 1423 65 1310 c 1,25,-1
 50 1310 l 1,26,27
 50 1382 50 1382 86 1439 c 0,28,29
 143 1530 143 1530 250 1530 c 128,-1,30
 357 1530 357 1530 410 1438 c 0,31,32
 440 1383 440 1383 440 1271 c 2,33,-1
 440 1100 l 1,34,-1
 650 1100 l 2,35,36
 680 1100 680 1100 680 1070 c 2,37,-1
 680 1040 l 2,38,39
 680 1010 680 1010 650 1010 c 2,40,-1
 440 1010 l 1,41,-1
 440 200 l 2,42,43
 440 87 440 87 524 87 c 0,44,45
 606 87 606 87 635 200 c 1,46,-1
 650 200 l 1,47,48
 650 128 650 128 614 71 c 0,49,8
 557 -20 557 -20 450 -20 c 128,-1,9
EndSplineSet
Validated: 1
EndChar

StartChar: Wgrave
Encoding: 7808 7808 184
Width: 2245
Flags: MW
LayerCount: 2
Fore
SplineSet
916 1904 m 0,0,1
 969 1904 969 1904 997 1859 c 2,2,-1
 1159 1598 l 1,3,-1
 1143 1580 l 1,4,-1
 866 1736 l 2,5,6
 823 1760 823 1760 823 1811 c 0,7,8
 823 1848 823 1848 848 1876 c 128,-1,9
 873 1904 873 1904 916 1904 c 0,0,1
680 -20 m 0,10,11
 444 -20 444 -20 317 166 c 0,12,13
 240 279 240 279 240 510 c 2,14,-1
 240 1310 l 2,15,16
 240 1423 240 1423 156 1423 c 0,17,18
 74 1423 74 1423 45 1310 c 1,19,-1
 30 1310 l 1,20,21
 30 1382 30 1382 66 1439 c 0,22,23
 123 1530 123 1530 230.5 1530 c 128,-1,24
 338 1530 338 1530 400 1438 c 0,25,26
 440 1379 440 1379 440 1271 c 2,27,-1
 440 508 l 2,28,29
 440 341 440 341 481 251 c 0,30,31
 550 99 550 99 738 99 c 0,32,33
 921 99 921 99 997 266 c 0,34,35
 1040 360 1040 360 1040 510 c 2,36,-1
 1040 1460 l 2,37,38
 1040 1510 1040 1510 1090 1510 c 2,39,-1
 1190 1510 l 2,40,41
 1240 1510 1240 1510 1240 1460 c 2,42,-1
 1240 508 l 2,43,44
 1240 330 1240 330 1281 251 c 0,45,46
 1360 99 1360 99 1551 99 c 0,47,48
 1768 99 1768 99 1898 325 c 0,49,50
 1985 476 1985 476 1985 736 c 0,51,52
 1985 935 1985 935 1894 1088 c 0,53,54
 1829 1197 1829 1197 1711 1294 c 0,55,56
 1658 1337 1658 1337 1658 1400 c 0,57,58
 1658 1455 1658 1455 1695 1492 c 0,59,60
 1733 1530 1733 1530 1786 1530 c 0,61,62
 1876 1530 1876 1530 1939 1438 c 0,63,64
 2115 1183 2115 1183 2115 826 c 0,65,66
 2115 525 2115 525 2003 318 c 0,67,68
 1820 -20 1820 -20 1503 -20 c 0,69,70
 1240 -20 1240 -20 1119 165 c 0,71,72
 1094 203 1094 203 1074 258 c 1,73,74
 1048 182 1048 182 996 119 c 0,75,76
 881 -20 881 -20 680 -20 c 0,10,11
EndSplineSet
Validated: 1
EndChar

StartChar: wgrave
Encoding: 7809 7809 185
Width: 1872
Flags: MW
LayerCount: 2
Fore
SplineSet
750 1484 m 0,0,1
 803 1484 803 1484 831 1439 c 2,2,-1
 993 1178 l 1,3,-1
 977 1160 l 1,4,-1
 700 1316 l 2,5,6
 657 1340 657 1340 657 1391 c 0,7,8
 657 1428 657 1428 682 1456 c 128,-1,9
 707 1484 707 1484 750 1484 c 0,0,1
560 -20 m 0,10,11
 394 -20 394 -20 295 114 c 0,12,13
 220 215 220 215 220 390 c 2,14,-1
 220 900 l 2,15,16
 220 1013 220 1013 136 1013 c 0,17,18
 54 1013 54 1013 25 900 c 1,19,-1
 10 900 l 1,20,21
 10 972 10 972 46 1029 c 0,22,23
 103 1120 103 1120 210 1120 c 0,24,25
 320 1120 320 1120 370 1028 c 0,26,27
 400 973 400 973 400 861 c 2,28,-1
 400 390 l 2,29,30
 400 279 400 279 437 210 c 0,31,32
 501 91 501 91 635 91 c 128,-1,33
 769 91 769 91 833 210 c 0,34,35
 870 279 870 279 870 383 c 2,36,-1
 870 1050 l 2,37,38
 870 1100 870 1100 920 1100 c 2,39,-1
 1000 1100 l 2,40,41
 1050 1100 1050 1100 1050 1050 c 2,42,-1
 1050 381 l 2,43,44
 1050 262 1050 262 1107 179 c 0,45,46
 1175 79 1175 79 1322 79 c 0,47,48
 1505 79 1505 79 1595 230 c 0,49,50
 1652 327 1652 327 1652 468 c 0,51,52
 1652 634 1652 634 1557 754 c 0,53,54
 1505 820 1505 820 1413 885 c 0,55,56
 1358 924 1358 924 1358 991 c 0,57,58
 1358 1047 1358 1047 1394 1084 c 0,59,60
 1431 1121 1431 1121 1486 1121 c 0,61,62
 1578 1121 1578 1121 1638 1021 c 0,63,64
 1762 814 1762 814 1762 557 c 0,65,66
 1762 367 1762 367 1669 214 c 0,67,68
 1528 -20 1528 -20 1257 -20 c 0,69,70
 1065 -20 1065 -20 962 107 c 0,71,72
 922 157 922 157 899 216 c 1,73,74
 870 135 870 135 796 62 c 0,75,76
 711 -20 711 -20 560 -20 c 0,10,11
EndSplineSet
Validated: 1
EndChar

StartChar: Wacute
Encoding: 7810 7810 186
Width: 2245
Flags: MW
LayerCount: 2
Fore
SplineSet
1339 1904 m 0,0,1
 1382 1904 1382 1904 1407 1876 c 128,-1,2
 1432 1848 1432 1848 1432 1811 c 0,3,4
 1432 1760 1432 1760 1389 1736 c 2,5,6
 1112 1580 l 1,7,-1
 1096 1598 l 1,8,-1
 1258 1859 l 2,9,10
 1286 1904 1286 1904 1339 1904 c 0,0,1
680 -20 m 0,11,12
 444 -20 444 -20 317 166 c 0,13,14
 240 279 240 279 240 510 c 2,15,-1
 240 1310 l 2,16,17
 240 1423 240 1423 156 1423 c 0,18,19
 74 1423 74 1423 45 1310 c 1,20,-1
 30 1310 l 1,21,22
 30 1382 30 1382 66 1439 c 0,23,24
 123 1530 123 1530 230.5 1530 c 128,-1,25
 338 1530 338 1530 400 1438 c 0,26,27
 440 1379 440 1379 440 1271 c 2,28,-1
 440 508 l 2,29,30
 440 341 440 341 481 251 c 0,31,32
 550 99 550 99 738 99 c 0,33,34
 921 99 921 99 997 266 c 0,35,36
 1040 360 1040 360 1040 510 c 2,37,-1
 1040 1460 l 2,38,39
 1040 1510 1040 1510 1090 1510 c 2,40,-1
 1190 1510 l 2,41,42
 1240 1510 1240 1510 1240 1460 c 2,43,-1
 1240 508 l 2,44,45
 1240 330 1240 330 1281 251 c 0,46,47
 1360 99 1360 99 1551 99 c 0,48,49
 1768 99 1768 99 1898 325 c 0,50,51
 1985 476 1985 476 1985 736 c 0,52,53
 1985 935 1985 935 1894 1088 c 0,54,55
 1829 1197 1829 1197 1711 1294 c 0,56,57
 1658 1337 1658 1337 1658 1400 c 0,58,59
 1658 1455 1658 1455 1695 1492 c 0,60,61
 1733 1530 1733 1530 1786 1530 c 0,62,63
 1876 1530 1876 1530 1939 1438 c 0,64,65
 2115 1183 2115 1183 2115 826 c 0,66,67
 2115 525 2115 525 2003 318 c 0,68,69
 1820 -20 1820 -20 1503 -20 c 0,70,71
 1240 -20 1240 -20 1119 165 c 0,72,73
 1094 203 1094 203 1074 258 c 1,74,75
 1048 182 1048 182 996 119 c 0,76,77
 881 -20 881 -20 680 -20 c 0,11,12
EndSplineSet
Validated: 1
EndChar

StartChar: wacute
Encoding: 7811 7811 187
Width: 1872
Flags: MW
LayerCount: 2
Fore
SplineSet
1162 1484 m 0,0,1
 1205 1484 1205 1484 1230 1456 c 128,-1,2
 1255 1428 1255 1428 1255 1391 c 0,3,4
 1255 1340 1255 1340 1212 1316 c 2,5,6
 935 1160 l 1,7,-1
 919 1178 l 1,8,-1
 1081 1439 l 2,9,10
 1109 1484 1109 1484 1162 1484 c 0,0,1
560 -20 m 0,11,12
 394 -20 394 -20 295 114 c 0,13,14
 220 215 220 215 220 390 c 2,15,-1
 220 900 l 2,16,17
 220 1013 220 1013 136 1013 c 0,18,19
 54 1013 54 1013 25 900 c 1,20,-1
 10 900 l 1,21,22
 10 972 10 972 46 1029 c 0,23,24
 103 1120 103 1120 210 1120 c 0,25,26
 320 1120 320 1120 370 1028 c 0,27,28
 400 973 400 973 400 861 c 2,29,-1
 400 390 l 2,30,31
 400 279 400 279 437 210 c 0,32,33
 501 91 501 91 635 91 c 128,-1,34
 769 91 769 91 833 210 c 0,35,36
 870 279 870 279 870 383 c 2,37,-1
 870 1050 l 2,38,39
 870 1100 870 1100 920 1100 c 2,40,-1
 1000 1100 l 2,41,42
 1050 1100 1050 1100 1050 1050 c 2,43,-1
 1050 381 l 2,44,45
 1050 262 1050 262 1107 179 c 0,46,47
 1175 79 1175 79 1322 79 c 0,48,49
 1505 79 1505 79 1595 230 c 0,50,51
 1652 327 1652 327 1652 468 c 0,52,53
 1652 634 1652 634 1557 754 c 0,54,55
 1505 820 1505 820 1413 885 c 0,56,57
 1358 924 1358 924 1358 991 c 0,58,59
 1358 1047 1358 1047 1394 1084 c 0,60,61
 1431 1121 1431 1121 1486 1121 c 0,62,63
 1578 1121 1578 1121 1638 1021 c 0,64,65
 1762 814 1762 814 1762 557 c 0,66,67
 1762 367 1762 367 1669 214 c 0,68,69
 1528 -20 1528 -20 1257 -20 c 0,70,71
 1065 -20 1065 -20 962 107 c 0,72,73
 922 157 922 157 899 216 c 1,74,75
 870 135 870 135 796 62 c 0,76,77
 711 -20 711 -20 560 -20 c 0,11,12
EndSplineSet
Validated: 1
EndChar

StartChar: Wdieresis
Encoding: 7812 7812 188
Width: 2245
Flags: MW
LayerCount: 2
Fore
SplineSet
1299 1858 m 128,-1,1
 1347 1858 1347 1858 1381 1824 c 128,-1,2
 1415 1790 1415 1790 1415 1739 c 128,-1,3
 1415 1688 1415 1688 1381 1654 c 128,-1,4
 1347 1620 1347 1620 1299 1620 c 128,-1,5
 1251 1620 1251 1620 1216 1654.5 c 128,-1,6
 1181 1689 1181 1689 1181 1739 c 128,-1,7
 1181 1789 1181 1789 1216 1823.5 c 128,-1,0
 1251 1858 1251 1858 1299 1858 c 128,-1,1
995 1858 m 128,-1,9
 1043 1858 1043 1858 1077 1824 c 128,-1,10
 1111 1790 1111 1790 1111 1739 c 128,-1,11
 1111 1688 1111 1688 1077 1654 c 128,-1,12
 1043 1620 1043 1620 995 1620 c 128,-1,13
 947 1620 947 1620 913 1654 c 128,-1,14
 879 1688 879 1688 879 1739 c 128,-1,15
 879 1790 879 1790 913 1824 c 128,-1,8
 947 1858 947 1858 995 1858 c 128,-1,9
680 -20 m 0,16,17
 444 -20 444 -20 317 166 c 0,18,19
 240 279 240 279 240 510 c 2,20,-1
 240 1310 l 2,21,22
 240 1423 240 1423 156 1423 c 0,23,24
 74 1423 74 1423 45 1310 c 1,25,-1
 30 1310 l 1,26,27
 30 1382 30 1382 66 1439 c 0,28,29
 123 1530 123 1530 230.5 1530 c 128,-1,30
 338 1530 338 1530 400 1438 c 0,31,32
 440 1379 440 1379 440 1271 c 2,33,-1
 440 508 l 2,34,35
 440 341 440 341 481 251 c 0,36,37
 550 99 550 99 738 99 c 0,38,39
 921 99 921 99 997 266 c 0,40,41
 1040 360 1040 360 1040 510 c 2,42,-1
 1040 1460 l 2,43,44
 1040 1510 1040 1510 1090 1510 c 2,45,-1
 1190 1510 l 2,46,47
 1240 1510 1240 1510 1240 1460 c 2,48,-1
 1240 508 l 2,49,50
 1240 330 1240 330 1281 251 c 0,51,52
 1360 99 1360 99 1551 99 c 0,53,54
 1768 99 1768 99 1898 325 c 0,55,56
 1985 476 1985 476 1985 736 c 0,57,58
 1985 935 1985 935 1894 1088 c 0,59,60
 1829 1197 1829 1197 1711 1294 c 0,61,62
 1658 1337 1658 1337 1658 1400 c 0,63,64
 1658 1455 1658 1455 1695 1492 c 0,65,66
 1733 1530 1733 1530 1786 1530 c 0,67,68
 1876 1530 1876 1530 1939 1438 c 0,69,70
 2115 1183 2115 1183 2115 826 c 0,71,72
 2115 525 2115 525 2003 318 c 0,73,74
 1820 -20 1820 -20 1503 -20 c 0,75,76
 1240 -20 1240 -20 1119 165 c 0,77,78
 1094 203 1094 203 1074 258 c 1,79,80
 1048 182 1048 182 996 119 c 0,81,82
 881 -20 881 -20 680 -20 c 0,16,17
EndSplineSet
Validated: 1
EndChar

StartChar: wdieresis
Encoding: 7813 7813 189
Width: 1872
Flags: MW
LayerCount: 2
Fore
SplineSet
1121 1438 m 128,-1,1
 1169 1438 1169 1438 1203 1404 c 128,-1,2
 1237 1370 1237 1370 1237 1319 c 128,-1,3
 1237 1268 1237 1268 1203 1234 c 128,-1,4
 1169 1200 1169 1200 1121 1200 c 128,-1,5
 1073 1200 1073 1200 1038 1234.5 c 128,-1,6
 1003 1269 1003 1269 1003 1319 c 128,-1,7
 1003 1369 1003 1369 1038 1403.5 c 128,-1,0
 1073 1438 1073 1438 1121 1438 c 128,-1,1
817 1438 m 128,-1,9
 865 1438 865 1438 899 1404 c 128,-1,10
 933 1370 933 1370 933 1319 c 128,-1,11
 933 1268 933 1268 899 1234 c 128,-1,12
 865 1200 865 1200 817 1200 c 128,-1,13
 769 1200 769 1200 735 1234 c 128,-1,14
 701 1268 701 1268 701 1319 c 128,-1,15
 701 1370 701 1370 735 1404 c 128,-1,8
 769 1438 769 1438 817 1438 c 128,-1,9
560 -20 m 0,16,17
 394 -20 394 -20 295 114 c 0,18,19
 220 215 220 215 220 390 c 2,20,-1
 220 900 l 2,21,22
 220 1013 220 1013 136 1013 c 0,23,24
 54 1013 54 1013 25 900 c 1,25,-1
 10 900 l 1,26,27
 10 972 10 972 46 1029 c 0,28,29
 103 1120 103 1120 210 1120 c 0,30,31
 320 1120 320 1120 370 1028 c 0,32,33
 400 973 400 973 400 861 c 2,34,-1
 400 390 l 2,35,36
 400 279 400 279 437 210 c 0,37,38
 501 91 501 91 635 91 c 128,-1,39
 769 91 769 91 833 210 c 0,40,41
 870 279 870 279 870 383 c 2,42,-1
 870 1050 l 2,43,44
 870 1100 870 1100 920 1100 c 2,45,-1
 1000 1100 l 2,46,47
 1050 1100 1050 1100 1050 1050 c 2,48,-1
 1050 381 l 2,49,50
 1050 262 1050 262 1107 179 c 0,51,52
 1175 79 1175 79 1322 79 c 0,53,54
 1505 79 1505 79 1595 230 c 0,55,56
 1652 327 1652 327 1652 468 c 0,57,58
 1652 634 1652 634 1557 754 c 0,59,60
 1505 820 1505 820 1413 885 c 0,61,62
 1358 924 1358 924 1358 991 c 0,63,64
 1358 1047 1358 1047 1394 1084 c 0,65,66
 1431 1121 1431 1121 1486 1121 c 0,67,68
 1578 1121 1578 1121 1638 1021 c 0,69,70
 1762 814 1762 814 1762 557 c 0,71,72
 1762 367 1762 367 1669 214 c 0,73,74
 1528 -20 1528 -20 1257 -20 c 0,75,76
 1065 -20 1065 -20 962 107 c 0,77,78
 922 157 922 157 899 216 c 1,79,80
 870 135 870 135 796 62 c 0,81,82
 711 -20 711 -20 560 -20 c 0,16,17
EndSplineSet
Validated: 1
EndChar

StartChar: Ygrave
Encoding: 7922 7922 190
Width: 1420
Flags: MW
LayerCount: 2
Fore
SplineSet
661 -20 m 0,0,1
 416 -20 416 -20 313 185 c 0,2,3
 292 227 292 227 292 282 c 128,-1,4
 292 337 292 337 329.5 375.5 c 128,-1,5
 367 414 367 414 421 414 c 128,-1,6
 475 414 475 414 513 375.5 c 128,-1,7
 551 337 551 337 551 282 c 128,-1,8
 551 227 551 227 513 188.5 c 128,-1,9
 475 150 475 150 421 150 c 2,10,-1
 412 150 l 1,11,12
 510 55 510 55 635 55 c 0,13,14
 817 55 817 55 908 201 c 0,15,16
 980 319 980 319 980 550 c 2,17,-1
 980 694 l 1,18,19
 951 644 951 644 897 597 c 0,20,21
 795 510 795 510 635 510 c 0,22,23
 442 510 442 510 328 641 c 0,24,25
 240 745 240 745 240 920 c 2,26,-1
 240 1310 l 2,27,28
 240 1423 240 1423 156 1423 c 0,29,30
 74 1423 74 1423 45 1310 c 1,31,-1
 30 1310 l 1,32,33
 30 1382 30 1382 66 1439 c 0,34,35
 123 1530 123 1530 230.5 1530 c 128,-1,36
 338 1530 338 1530 400 1438 c 0,37,38
 440 1379 440 1379 440 1271 c 2,39,-1
 440 920 l 2,40,41
 440 805 440 805 480 739 c 0,42,43
 552 621 552 621 711 621 c 0,44,45
 868 621 868 621 943 740 c 0,46,47
 980 798 980 798 980 920 c 2,48,-1
 980 1460 l 2,49,50
 980 1510 980 1510 1030 1510 c 2,51,-1
 1130 1510 l 2,52,53
 1180 1510 1180 1510 1180 1460 c 2,54,-1
 1180 550 l 2,55,56
 1180 264 1180 264 1020 116 c 0,57,58
 874 -20 874 -20 661 -20 c 0,0,1
492 1904 m 0,59,60
 545 1904 545 1904 573 1859 c 2,61,-1
 735 1598 l 1,62,-1
 719 1580 l 1,63,-1
 442 1736 l 2,64,65
 399 1760 399 1760 399 1811 c 0,66,67
 399 1848 399 1848 424 1876 c 128,-1,68
 449 1904 449 1904 492 1904 c 0,59,60
EndSplineSet
Validated: 1
EndChar

StartChar: ygrave
Encoding: 7923 7923 191
Width: 1270
Flags: MW
LayerCount: 2
Fore
SplineSet
438 1484 m 0,0,1
 491 1484 491 1484 519 1439 c 2,2,-1
 681 1178 l 1,3,-1
 665 1160 l 1,4,-1
 388 1316 l 2,5,6
 345 1340 345 1340 345 1391 c 0,7,8
 345 1428 345 1428 370 1456 c 128,-1,9
 395 1484 395 1484 438 1484 c 0,0,1
560 -20 m 0,10,11
 394 -20 394 -20 295 114 c 0,12,13
 220 215 220 215 220 390 c 2,14,-1
 220 900 l 2,15,16
 220 1013 220 1013 136 1013 c 0,17,18
 54 1013 54 1013 25 900 c 1,19,-1
 10 900 l 1,20,21
 10 972 10 972 46 1029 c 0,22,23
 103 1120 103 1120 210 1120 c 0,24,25
 319 1120 319 1120 370 1028 c 0,26,27
 400 973 400 973 400 861 c 2,28,-1
 400 390 l 2,29,30
 400 279 400 279 437 210 c 0,31,32
 501 91 501 91 635 91 c 128,-1,33
 769 91 769 91 833 210 c 0,34,35
 870 279 870 279 870 390 c 2,36,-1
 870 1050 l 2,37,38
 870 1100 870 1100 920 1100 c 2,39,-1
 1000 1100 l 2,40,41
 1050 1100 1050 1100 1050 1050 c 2,42,-1
 1050 100 l 2,43,44
 1050 -164 1050 -164 902 -302 c 0,45,46
 766 -430 766 -430 575 -430 c 0,47,48
 428 -430 428 -430 325 -360 c 0,49,50
 242 -304 242 -304 242 -212 c 0,51,52
 242 -157 242 -157 280 -118.5 c 128,-1,53
 318 -80 318 -80 372 -80 c 128,-1,54
 426 -80 426 -80 463.5 -118.5 c 128,-1,55
 501 -157 501 -157 501 -212 c 128,-1,56
 501 -267 501 -267 464 -306 c 0,57,58
 438 -333 438 -333 394 -339 c 1,59,60
 458 -369 458 -369 548 -369 c 0,61,62
 695 -369 695 -369 797 -246 c 0,63,64
 870 -158 870 -158 870 0 c 2,65,-1
 870 192 l 1,66,67
 842 119 842 119 787 66 c 0,68,69
 698 -20 698 -20 560 -20 c 0,10,11
EndSplineSet
Validated: 1
EndChar

